<svg xmlns="http://www.w3.org/2000/svg" width="190" height="124.726"><defs><style>.cls-2{fill:#fff}</style></defs><g id="Alelo" transform="translate(-1393.556 -2933.706)"><path id="Caminho_99" d="M1521.2 2933.706a62.043 62.043 0 0 0-34.741 10.576c-.707.478-5.587 3.968-5.8 4.131-8.1 6.1-13.545 7.178-21 5.285-.45-.112-2.587-.851-3.262-1.1a46.457 46.457 0 1 0-1.688 87.543c11.119-3.327 17.154-2.417 24.1 2.508 1.393.989 4.758 3.14 5.448 3.648a62.358 62.358 0 1 0 36.951-112.587z" data-name="Caminho 99" fill="#00775e"/><g id="Agrupar_116" data-name="Agrupar 116"><g id="Agrupar_115" data-name="Agrupar 115"><g id="Agrupar_110" data-name="Agrupar 110"><path id="Caminho_100" d="M1498.7 3005.7a11.023 11.023 0 0 1-13.642 1.453l-4.133 6.562a18.827 18.827 0 0 0 23.2-2.465z" class="cls-2" data-name="Caminho 100"/><path id="Caminho_101" d="M1491.249 2978.946a18.84 18.84 0 0 0-16.072 29.115l34.125-14.58a18.846 18.846 0 0 0-18.053-14.535zm-11.308 20.008a11.079 11.079 0 0 1 19.486-8.328z" class="cls-2" data-name="Caminho 101"/></g><g id="Agrupar_112" data-name="Agrupar 112"><g id="Agrupar_111" data-name="Agrupar 111"><path id="Caminho_102" d="M1520 2970.461v36.37l6.305 2.615-2.975 7.168-6.242-2.593a6.909 6.909 0 0 1-3.073-2.585 8.059 8.059 0 0 1-1.212-4.508v-36.467z" class="cls-2" data-name="Caminho 102"/></g></g><g id="Agrupar_114" data-name="Agrupar 114"><g id="Agrupar_113" data-name="Agrupar 113"><path id="Caminho_103" d="M1465.085 2970.461v36.37l6.3 2.615-2.974 7.168-6.242-2.593a6.936 6.936 0 0 1-3.075-2.585 8.067 8.067 0 0 1-1.212-4.508v-36.467z" class="cls-2" data-name="Caminho 103"/></g></g><path id="Caminho_104" d="M1551.047 2987.78a11.091 11.091 0 0 1 5.195 14.806l6.979 3.351a18.835 18.835 0 0 0-29.657-22.085l5.216 5.732a11.074 11.074 0 0 1 12.267-1.804z" data-name="Caminho 104" fill="#a9b359"/><path id="Caminho_105" d="M1541.438 3007.777a11.1 11.1 0 0 1-5.192-14.8l-6.979-3.355a18.835 18.835 0 0 0 29.661 22.085l-5.217-5.726a11.1 11.1 0 0 1-12.273 1.796z" class="cls-2" data-name="Caminho 105"/><path id="Caminho_106" d="M1450.784 3008.3v-10.528a18.8 18.8 0 1 0-18.8 18.8h.008a18.718 18.718 0 0 0 8.383-1.977l-3.045-7.093a11.1 11.1 0 0 1-16.458-9.731 11.11 11.11 0 0 1 8.6-10.811 10.945 10.945 0 0 1 2.5-.3 11.149 11.149 0 0 1 11.11 11.11v10.44a8.089 8.089 0 0 0 1.209 4.507 6.943 6.943 0 0 0 3.074 2.587l3.525 1.4 2.977-7.168z" class="cls-2" data-name="Caminho 106"/></g></g></g></svg>