<svg xmlns="http://www.w3.org/2000/svg" width="190" height="48.58"><defs><style>.cls-1,.cls-2{fill:#0071b6}.cls-2{fill-rule:evenodd}</style></defs><g id="Allianz" transform="translate(-1393.556 -3589.369)"><path id="Caminho_107" d="M1559.6 3589.369a24.292 24.292 0 1 1-23.952 24.29 24.123 24.123 0 0 1 23.952-24.29zm0 3.914a20.378 20.378 0 1 0 20.038 20.376 20.209 20.209 0 0 0-20.038-20.376z" class="cls-1" data-name="Caminho 107"/><path id="Caminho_108" d="M1546.4 3605.974a2.349 2.349 0 0 1 2.349-2.348h4.412v23.674h-6.761z" class="cls-2" data-name="Caminho 108"/><path id="Caminho_109" d="M1572.8 3605.974a2.348 2.348 0 0 0-2.348-2.348h-4.412v23.674h6.76z" class="cls-2" data-name="Caminho 109"/><path id="Caminho_110" d="M1554.172 3600.747c1.554 0 2.073.539 2.073 1.936v24.617h6.745v-27.152a2.348 2.348 0 0 0-2.347-2.348h-6.471z" class="cls-2" data-name="Caminho 110"/><path id="Caminho_111" d="M1421.7 3599.352c1.554 0 2.073.539 2.073 1.936v26.547h7.319v-28.923a2.348 2.348 0 0 0-2.348-2.348h-7.044z" class="cls-2" data-name="Caminho 111"/><path id="Caminho_112" d="M1434 3599.352c1.554 0 2.074.539 2.074 1.936v26.547h7.319v-28.923a2.349 2.349 0 0 0-2.349-2.348H1434z" class="cls-2" data-name="Caminho 112"/><path id="Caminho_113" d="M1446.39 3607.293c1.554 0 2.074.539 2.074 1.936v18.606h7.319v-20.982a2.349 2.349 0 0 0-2.349-2.348h-7.044z" class="cls-2" data-name="Caminho 113"/><ellipse id="Elipse_1" cx="4.27" cy="3.544" class="cls-1" data-name="Elipse 1" rx="4.27" ry="3.544" transform="translate(1447.497 3595.941)"/><path id="Caminho_114" d="M1491 3607.055v-.2a2.348 2.348 0 0 0-2.348-2.348h-7.044v2.788c1.554 0 2.073.539 2.073 1.936v18.606H1491v-15.67c3.011-3.644 5.7-2.387 5.7.016v15.654h7.319v-17.471c0-6.254-4.656-6.426-5.945-6.426-2.751-.002-5.524 1.86-7.074 3.115z" class="cls-2" data-name="Caminho 114"/><path id="Caminho_115" d="M1516.95 3609.117l-9.825 13.849v4.869h18.15v-4.869h-10.086l9.663-13.849v-4.617h-15.225a2.348 2.348 0 0 0-2.348 2.348v4.337h2.788c0-1.554.539-2.073 1.936-2.073z" class="cls-2" data-name="Caminho 115"/><path id="Caminho_116" d="M1407.631 3603.628c.685 2.788 1.79 7.292 2.92 11.715h-6.151zm4.231 16.843l1.88 7.364h8.009l-7.809-28.923a3.3 3.3 0 0 0-2.983-2.348h-11.614v2.9s3.455-.526 2.524 2.393c-7.966 24.966-8.313 25.978-8.313 25.978h7.454l2-7.364z" class="cls-2" data-name="Caminho 116"/><path id="Caminho_117" d="M1465.9 3620.94v-.583c0-2.544 3.476-3.687 5.632-3.687v4.547s-1.718 2.019-3.693 2.019c-1.39 0-1.939-.822-1.939-2.296zm-4.031-9.783l-1.694-4.533a23.208 23.208 0 0 1 10.943-2.685c6.438 0 7.439 4.216 7.439 7.978v11.512c0 2.223 1.876 2.029 1.876 2.029v2.377h-6.746c-1.347 0-2.155-.77-2.155-2.338a8.882 8.882 0 0 1-6.682 2.736c-4.445 0-5.782-2.762-5.782-6.474 0-4.747 2.114-6.214 4.1-7.207s8.365-1.985 8.365-1.985v-.372c0-.213 0-3.078-2.6-3.078a16.728 16.728 0 0 0-7.069 2.04z" class="cls-2" data-name="Caminho 117"/></g></svg>