<svg xmlns="http://www.w3.org/2000/svg" width="190" height="50.547"><defs><style>.cls-1{fill:#5b5b5f}.cls-3{fill:#fff}</style></defs><g id="Bradesco" transform="translate(-709.142 -2970.796)"><path id="Caminho_180" d="M879.984 3002.966c-.072-.184-.1-.3-.126-.292-.056.017-.154.073-.23.1a4.945 4.945 0 0 1-2.371.573 4.086 4.086 0 0 1-4.049-4.317c0-2.9 1.586-4.469 3.744-4.467a4.7 4.7 0 0 1 2.819.838 11.126 11.126 0 0 1 1.778-3.626 10.038 10.038 0 0 0-1.525-.891 8.648 8.648 0 0 0-3.576-.741c-4.76 0-8.389 3.222-8.389 8.789 0 5.535 3.629 8.75 8.389 8.754a11.516 11.516 0 0 0 4.066-.746c.383-.15 1.005-.438 1.269-.562a13.78 13.78 0 0 1-1.8-3.417" class="cls-1" data-name="Caminho 180"/><path id="Caminho_181" d="M770.918 2984.842h9.343c3.6 0 6.282 1.834 6.282 5.694 0 2.834-1.243 4.41-3.4 5.246v.064a4.6 4.6 0 0 1 3.9 4.957c0 5.374-4.068 6.5-7.527 6.5h-8.594v-22.461zm5.149 18.213h1.978c1.88 0 3.847-.324 3.847-2.609 0-2.444-2.019-2.669-3.791-2.669h-2.034v5.278zm0-9.331h1.895c1.688 0 3.432-.487 3.432-2.381 0-2.062-1.66-2.253-3.375-2.253h-1.952v4.634z" class="cls-1" data-name="Caminho 181"/><path id="Caminho_182" d="M834.335 3007.3h-4.6v-2.518h-.054a5.442 5.442 0 0 1-4.955 2.906c-4.291 0-6.586-4.122-6.586-9.074 0-4.123 2.186-8.469 6.173-8.469a5.426 5.426 0 0 1 4.952 2.545h.055v-7.911h5.01v22.521zm-8.026-4.055c1.661 0 3.044-1.833 3.044-4.281 0-2.543-1.218-4.373-3.044-4.373-1.935 0-3.016 1.929-3.016 4.147 0 2.674 1.133 4.507 3.016 4.507" class="cls-1" data-name="Caminho 182"/><path id="Caminho_183" d="M882.368 2998.937c0-5.566 3.627-8.789 8.387-8.789s8.387 3.223 8.387 8.789c0 5.535-3.623 8.755-8.387 8.755s-8.387-3.22-8.387-8.755m11.627 0c0-2.513-.943-4.729-3.24-4.729s-3.234 2.216-3.234 4.729c0 2.478.94 4.7 3.234 4.7s3.24-2.219 3.24-4.7" class="cls-1" data-name="Caminho 183"/><path id="Caminho_184" d="M815.834 3007.3a24.118 24.118 0 0 1-.277-3.959v-6.241c0-5.114-3.18-6.951-6.864-6.951a13.131 13.131 0 0 0-5.673 1.153v3.966a8.322 8.322 0 0 1 4.6-1.257c1.8 0 3.261.612 3.29 2.9a12.647 12.647 0 0 0-2.324-.227c-2.656 0-7.447.612-7.447 5.73 0 3.636 2.55 5.279 5.4 5.279a4.85 4.85 0 0 0 4.427-2.6v2.219zm-4.893-5.321a3.4 3.4 0 0 1-3.1 1.737 1.845 1.845 0 0 1-2.048-1.836c0-1.606 1.329-2.218 3.016-2.218.749 0 1.5.064 2.137.092v2.225z" class="cls-1" data-name="Caminho 184"/><path id="Caminho_185" d="M798.708 2990.148c-2.16 0-3.405 1.356-4.264 3.475h-.053v-3.088h-4.54v16.77h4.984v-7.083c0-3.276 1.284-5.253 3.6-5.421a4.89 4.89 0 0 1 1.708.272v-4.668a4.65 4.65 0 0 0-1.439-.257" class="cls-1" data-name="Caminho 185"/><path id="Caminho_186" d="M851.908 2999.548c0-4.989-1.933-9.4-7.275-9.4-4.486 0-7.725 3.223-7.725 8.755s3.628 8.788 8.384 8.788a12.733 12.733 0 0 0 5.289-1.063v-4.087a8.31 8.31 0 0 1-4.4 1.285c-2.437 0-3.961-.9-4.235-3.216h9.961v-1.062zm-10.017-2.221c.11-1.928.971-3.5 2.766-3.5 1.994 0 2.77 1.577 2.77 3.5z" class="cls-1" data-name="Caminho 186"/><path id="Caminho_187" d="M860.283 2990.148c-2.877 0-6.143 1.578-6.143 5.443 0 6.046 7.086 4.055 7.086 6.887 0 1.155-1 1.348-2.02 1.348a10.86 10.86 0 0 1-4.676-1.157v3.991a12.427 12.427 0 0 0 4.953 1.032c3.266 0 6.724-1.128 6.724-5.6 0-6.375-7.42-4.314-7.42-6.921 0-.932 1.222-1.183 2.3-1.16a8.354 8.354 0 0 1 3.979 1.25v-4.116a12.332 12.332 0 0 0-4.783-1" class="cls-1" data-name="Caminho 187"/><g id="Agrupar_137" data-name="Agrupar 137"><path id="Caminho_188" d="M759.687 3021.343h-42.056s-8.489 0-8.489-8.49V2970.8H751.2s8.49 0 8.49 8.49v42.057z" data-name="Caminho 188" fill="#9a0037"/><path id="Caminho_189" d="M732.134 3014.24h-2.489v-12.752h2.489v12.752z" class="cls-3" data-name="Caminho 189"/><path id="Caminho_190" d="M738.473 3014.24H734.4v-17.5h4.076v17.5z" class="cls-3" data-name="Caminho 190"/><path id="Caminho_191" d="M727.413 2984.545a12.833 12.833 0 0 1 11.035-2.694 11.792 11.792 0 0 1 5.383 2.546s.347.328.615.061c0 0 .338-.267-.038-.664a12.318 12.318 0 0 0-5.971-4.016 15.733 15.733 0 0 0-11.043.685 11.555 11.555 0 0 0-5.353 5.313 31.34 31.34 0 0 0-4.764 2.025s-.6.241-.375.708c0 0 .2.336.723.086 0 0 1.9-.653 3.723-1.061a14.074 14.074 0 0 0 3.9 14.514.53.53 0 0 0 .649.1.41.41 0 0 0 .086-.56 16.223 16.223 0 0 1-2.108-5.54 13.288 13.288 0 0 1 1.58-9.208s7.007-.979 12.98 1.269c0 0 10.147 3.311 7.592 9.45a9.315 9.315 0 0 1-3.542 4.066s-.469.272-.213.665a.546.546 0 0 0 .69.107s4.29-1.394 6.14-4.839c0 0 3.757-5.747-5.1-10.434a24.327 24.327 0 0 0-5.563-2 32.516 32.516 0 0 0-11.024-.583" class="cls-3" data-name="Caminho 191"/></g></g></svg>