<svg xmlns="http://www.w3.org/2000/svg" width="190" height="19.216"><defs><style>.cls-1{fill:#211915}</style></defs><g id="Chubb" transform="translate(-1393.556 -3383.587)"><g id="Agrupar_134" data-name="Agrupar 134"><g id="Agrupar_133" data-name="Agrupar 133"><path id="Caminho_178" d="M1570.862 3399.539H1550.7v-4.8h20.161zm-20.161-12.673h20.161v4.663H1550.7zm18.653 15.937c3.566 0 5.211-1.481 5.211-4.032v-2.25a1.684 1.684 0 0 0-.768-1.481l-2.3-1.975 2.3-1.975a1.685 1.685 0 0 0 .768-1.481v-1.975c0-2.551-1.645-4.032-5.211-4.032h-22.273v19.2zm-37.442-3.264h-20.161v-4.8h20.161zm-20.161-12.673h20.161v4.663h-20.161zm18.649 15.934c3.566 0 5.212-1.481 5.212-4.032v-2.25a1.686 1.686 0 0 0-.768-1.481l-2.3-1.975 2.3-1.975a1.687 1.687 0 0 0 .768-1.481v-1.975c0-2.551-1.646-4.032-5.212-4.032h-22.27v19.2zm-38.373-19.2v15.772h-19.064V3383.6h-3.621v14.812c0 2.716 1.646 4.389 4.91 4.389h16.486c3.264 0 4.909-1.673 4.909-4.389V3383.6zm-58.125 7.845v-7.845h-3.62v19.2h3.62v-7.982h19.339v7.982h3.62v-19.2h-3.62v7.845zm-14.181-4.417v-3.428h-21.258c-3.264 0-4.91 1.673-4.91 4.388v10.424c0 2.716 1.646 4.389 4.91 4.389h21.258v-3.429h-22.465v-12.342z" class="cls-1" data-name="Caminho 178"/></g></g><g id="Agrupar_135" data-name="Agrupar 135"><path id="Caminho_179" d="M1581.973 3383.788a2.538 2.538 0 0 1 .83.556 2.6 2.6 0 0 1 .552.833 2.734 2.734 0 0 1 0 2.058 2.541 2.541 0 0 1-1.382 1.38 2.776 2.776 0 0 1-2.069 0 2.546 2.546 0 0 1-1.383-1.38 2.661 2.661 0 0 1 .553-2.891 2.527 2.527 0 0 1 .83-.556 2.76 2.76 0 0 1 2.069 0zm-1.918.348a2.185 2.185 0 0 0-.7.479 2.141 2.141 0 0 0-.46.71 2.413 2.413 0 0 0 0 1.759 2.156 2.156 0 0 0 .46.711 2.187 2.187 0 0 0 1.583.654 2.187 2.187 0 0 0 1.576-.654 2.234 2.234 0 0 0 .465-.711 2.374 2.374 0 0 0 0-1.759 2.219 2.219 0 0 0-.465-.71 2.249 2.249 0 0 0-2.459-.479zm-.067 3.582v-3.026h1.161a1.093 1.093 0 0 1 .75.215.8.8 0 0 1 .235.622.91.91 0 0 1-.059.345.708.708 0 0 1-.166.25.814.814 0 0 1-.242.162 1.329 1.329 0 0 1-.293.088l.9 1.344h-.436l-.851-1.344h-.627v1.344zm1.2-1.672a.965.965 0 0 0 .292-.059.44.44 0 0 0 .2-.159.5.5 0 0 0 .078-.3.5.5 0 0 0-.06-.26.452.452 0 0 0-.162-.158.655.655 0 0 0-.229-.081 1.643 1.643 0 0 0-.267-.021h-.683v1.048h.493c.116.001.228-.003.338-.01z" class="cls-1" data-name="Caminho 179"/></g></g></svg>