<svg xmlns="http://www.w3.org/2000/svg" width="45" height="45"><g fill="#161C49"><path d="M44.063 18.75c-6.689 0-10.66 1.552-11.46 1.895A12.72 12.72 0 0 0 35.3 12.8C35.3 5.731 29.569 0 22.5 0 15.431 0 9.7 5.731 9.7 12.8c0 2.954 1.015 5.66 2.697 7.825h-1.249c.04-.298.075-.588.098-.857a.934.934 0 0 0-.289-.761c-1.607-1.523-8.033-2.016-9.964-2.13a.94.94 0 0 0-.993.936v16.875c0 .518.42.938.938.938h5.625a.938.938 0 0 0 .891-.647c.019-.058.1-.307.219-.684l.694.721c.836.874 1.701 1.778 2.282 2.265 3.491 2.923 7.688 6.079 8.524 6.628.689.453 2.176 1.091 3.327 1.091.924 0 1.635-.212 2.128-.626.66.257 1.41.259 2.132-.023a3.697 3.697 0 0 0 1.952-1.802c.739.158 1.584.047 2.353-.339.752-.379 1.296-.958 1.566-1.635.746.039 1.515-.225 2.151-.771.856-.732 1.209-1.787 1.008-2.839l1.491-1.002c.102.329.192.627.253.848a.937.937 0 0 0 .904.688h5.625a.936.936 0 0 0 .937-.936V19.688c0-.52-.42-.938-.937-.938zm-12.042 3.227l-.449-.173c.124-.125.246-.252.365-.382a.942.942 0 0 0 .084.555zM11.158 12.8c0-6.264 5.078-11.342 11.342-11.342S33.842 6.536 33.842 12.8c0 3.349-1.467 6.339-3.776 8.414a93.276 93.276 0 0 1-3.434-1.446c-3.379-1.51-5.56-1.045-7.975.857h-4.344a11.276 11.276 0 0 1-3.155-7.825zm-5.28 20.95H1.875V18.818c3.013.238 6.264.756 7.446 1.329-.497 4.106-2.745 11.402-3.443 13.603zm27.685 4.628c-.364.313-.857.412-1.136.234-.722-.587-3.666-3.6-5.497-5.51a.937.937 0 1 0-1.354 1.298c.435.454 3.938 4.104 5.341 5.382-.107.408-.499.655-.691.751-.6.304-1.226.251-1.461.034-.01-.009-.022-.014-.032-.022-.008-.007-.012-.018-.021-.025-1.123-.898-3.945-3.896-4.583-4.59a.939.939 0 0 0-1.382 1.27c.031.032 2.78 3 4.337 4.393a1.808 1.808 0 0 1-.999 1.008c-.287.109-.703.174-1.076-.167-.005-.005-.011-.007-.016-.012-.005-.004-.007-.01-.012-.015-1.337-1.127-4.073-4.039-4.607-4.611a.938.938 0 1 0-1.371 1.281c.635.68 2.526 2.683 3.946 4.02a3.189 3.189 0 0 1-.449.028c-.624 0-1.747-.422-2.297-.786-.658-.433-4.785-3.512-8.349-6.497-.501-.422-1.367-1.326-2.132-2.124a43.698 43.698 0 0 0-1.423-1.443c.784-2.587 1.912-6.547 2.536-9.775h5.755c-1.281 1.288-3.007 3.868-2.559 5.764.193.81.763 1.41 1.611 1.689 2.124.701 4.063.03 5.507-1.886.596-.092.921-.227 1.408-.446.176-.079.383-.171.656-.281 1.073 1.007 2.52 2.179 4.044 3.411 2.756 2.229 5.882 4.757 6.585 6.219.347.721-.026 1.192-.279 1.408zm1.398-3.114c-1.29-1.729-3.938-3.878-6.524-5.971-1.703-1.376-3.311-2.677-4.337-3.703a.937.937 0 0 0-.981-.219c-.632.229-1.022.405-1.329.542-.469.21-.626.281-1.258.345a.935.935 0 0 0-.686.411c-1.326 1.982-2.698 1.813-3.615 1.506-.293-.098-.345-.223-.373-.343-.197-.823.791-2.739 2.072-4.02 3.047-3.049 4.618-3.812 7.937-2.329 3.147 1.408 6.291 2.556 7.263 2.904 1.103 2.678 2.588 6.83 3.552 9.722l-1.721 1.155zm8.164.361h-3.986c-.889-2.895-3.514-10.444-4.978-13.564 1.431-.486 4.504-1.32 8.964-1.425v14.989z"/><path d="M22.731 15.795l6.478-8.107a.75.75 0 0 0-1.171-.937l-6.023 7.54-4.572-3.432a.75.75 0 0 0-.9 1.2l5.153 3.867a.748.748 0 0 0 1.035-.131z"/></g></svg>