<svg xmlns="http://www.w3.org/2000/svg" width="45" height="45"><g fill="#C9801D"><path d="M13.5 11.25h-1.283a2.256 2.256 0 0 0-2.123 1.5l-2.815 8.001a.75.75 0 1 0 1.415.498l2.816-7.998a.75.75 0 0 1 .707-.501H13.5a.75.75 0 0 0 0-1.5zm-5.25 15h-3A2.25 2.25 0 0 0 3 28.5V30a2.25 2.25 0 0 0 2.25 2.25h4.5A2.25 2.25 0 0 0 12 30a3.754 3.754 0 0 0-3.75-3.75zm1.5 4.5h-4.5A.75.75 0 0 1 4.5 30v-1.5a.75.75 0 0 1 .75-.75h3A2.25 2.25 0 0 1 10.5 30a.75.75 0 0 1-.75.75zm15.75 0H15a1.5 1.5 0 0 0-1.5 1.5v3a1.5 1.5 0 0 0 1.5 1.5h10.5a1.5 1.5 0 0 0 1.5-1.5v-3a1.5 1.5 0 0 0-1.5-1.5zm0 4.5H15v-3h10.5v3zm8.237-22.158l-1.901-.668c-.416-.138-.701-.282-.854-.43-.154-.149-.23-.391-.23-.728 0-.416.099-.676.297-.78.198-.104.589-.156 1.173-.156 1.257 0 2.317.015 3.178.044l.134-1.544a11.093 11.093 0 0 0-1.916-.341l.148-1.396h-1.648l-.134 1.336c-.861.01-1.532.092-2.012.245-.48.154-.841.436-1.084.846-.243.411-.364.992-.364 1.745 0 .772.161 1.396.483 1.871.322.475.859.852 1.611 1.129l2.02.728c.376.119.634.25.772.394.138.143.208.389.208.735 0 .386-.102.641-.305.765s-.601.186-1.195.186c-.574 0-1.688-.02-3.341-.059l-.148 1.663c.802.169 1.544.277 2.227.327l-.148 1.648h1.648l.149-1.604c1.247-.02 2.121-.243 2.621-.668.5-.425.75-1.183.75-2.272 0-.772-.161-1.398-.483-1.878s-.874-.861-1.656-1.138z"/><path d="M45 13.871c0-7.069-5.731-12.8-12.8-12.8-5.136 0-9.554 3.033-11.592 7.399.034-.072.061-.148.096-.22h-9.55a3.75 3.75 0 0 0-3.535 2.504l-4.42 12.552A3.743 3.743 0 0 0 0 27v11.25a1.5 1.5 0 0 0 1.5 1.5h.75v3A2.25 2.25 0 0 0 4.5 45H9a2.25 2.25 0 0 0 2.25-2.25v-3h18v3A2.25 2.25 0 0 0 31.5 45H36a2.25 2.25 0 0 0 2.25-2.25v-3H39a1.5 1.5 0 0 0 1.5-1.5V27a3.695 3.695 0 0 0-1.062-2.575C42.796 22.117 45 18.253 45 13.871zM9.032 11.25a2.249 2.249 0 0 1 2.12-1.5H19.5v1.5h-2.25a1.5 1.5 0 0 0-1.5 1.5v1.5a1.5 1.5 0 0 0 1.5 1.5h2.303a12.757 12.757 0 0 0 3.956 7.5h-18.7l4.223-12zm10.387 3H17.25v-1.5h2.205l.002-.013a12.91 12.91 0 0 0-.057 1.135c0 .127.015.251.019.378zM9.75 42.75a.75.75 0 0 1-.75.75H4.5a.75.75 0 0 1-.75-.75v-3h6v3zm-4.5-4.5v-1.5h1.5v1.5h-1.5zm31.5 4.5a.75.75 0 0 1-.75.75h-4.5a.75.75 0 0 1-.75-.75v-3h6v3zm-3-4.5v-1.5h1.5v1.5h-1.5zm5.25 0h-2.25v-1.5a1.5 1.5 0 0 0-1.5-1.5h-1.5a1.5 1.5 0 0 0-1.5 1.5v1.5h-24v-1.5a1.5 1.5 0 0 0-1.5-1.5h-1.5a1.5 1.5 0 0 0-1.5 1.5v1.5H1.5V27a2.25 2.25 0 0 1 2.25-2.25h21.728a12.694 12.694 0 0 0 5.258 1.832A3.748 3.748 0 0 0 28.5 30a2.25 2.25 0 0 0 2.25 2.25h4.5A2.25 2.25 0 0 0 37.5 30v-1.5a2.25 2.25 0 0 0-1.436-2.091l.962-.685c.366-.149.721-.316 1.069-.497A2.2 2.2 0 0 1 39 27v11.25zm-6.75-10.5h3a.75.75 0 0 1 .75.75V30a.75.75 0 0 1-.75.75h-4.5A.75.75 0 0 1 30 30a2.25 2.25 0 0 1 2.25-2.25zm-.05-2.536c-6.264 0-11.342-5.078-11.342-11.342S25.936 2.53 32.2 2.53s11.342 5.078 11.342 11.342S38.464 25.214 32.2 25.214z"/></g></svg>