<svg xmlns="http://www.w3.org/2000/svg" width="45" height="45"><g fill="#C9801D"><path d="M44.55 19.987L42 18.871v-2.003a1.473 1.473 0 0 0-.582-1.184L21.46.158a.75.75 0 0 0-.921 0L13.5 5.634V3.75a1.5 1.5 0 0 0-1.5-1.5H7.5A1.5 1.5 0 0 0 6 3.75v7.718L.589 15.675A1.481 1.481 0 0 0 0 16.868v4.102a1.5 1.5 0 0 0 1.5 1.5c.333 0 .657-.113.917-.321l2.082-1.62V42.75A2.252 2.252 0 0 0 6.75 45H33c.289 0 .57-.091.805-.261l7.774-5.608A8.26 8.26 0 0 0 45 32.45V20.675a.752.752 0 0 0-.45-.688zM7.5 3.75H12v3.051l-4.5 3.5V3.75zm-6 17.22v-4.102l4.2-3.266.011-.005L21 1.7l15.29 11.897c.005 0 .012.005.017.009l4.194 3.262v1.35l-7.2-3.15a.736.736 0 0 0-.433-.035L21.46 6.157a.75.75 0 0 0-.921 0L1.5 20.97zM6 42.75V19.362L21 7.7l10.275 7.987-9.825 4.3a.751.751 0 0 0-.45.687V27h-5.25a2.25 2.25 0 0 0-2.25 2.25V43.5H6.75a.75.75 0 0 1-.75-.75zm9 .75V29.25a.75.75 0 0 1 .75-.75H21v3.951a8.259 8.259 0 0 0 3.421 6.681L27 40.992V43.5H15zm15.476 0H28.5v-1.425l1.976 1.425zM43.5 32.45a6.757 6.757 0 0 1-2.797 5.464L33 43.47l-7.703-5.556A6.754 6.754 0 0 1 22.5 32.45V21.165L33 16.569l10.5 4.596V32.45zm0 0"/><path d="M32.7 18.337l-8.25 3.612a.751.751 0 0 0-.45.687v9.814a5.249 5.249 0 0 0 2.175 4.248l6.386 4.607a.75.75 0 0 0 .878 0l6.386-4.607A5.249 5.249 0 0 0 42 32.451v-9.814a.75.75 0 0 0-.45-.687l-8.25-3.612a.75.75 0 0 0-.6-.001zm7.8 4.789v9.324a3.742 3.742 0 0 1-1.553 3.03L33 39.772l-5.948-4.29a3.75 3.75 0 0 1-1.552-3.031v-9.324l7.5-3.283 7.5 3.282zm0 0"/><path d="M29.002 30.492a.752.752 0 0 0-1.248.397.751.751 0 0 0 .244.718l3 2.7a.75.75 0 0 0 1.126-.141l6-9a.752.752 0 0 0-.575-1.165.75.75 0 0 0-.672.332l-5.518 8.279-2.357-2.12zm0 0"/></g></svg>