<svg xmlns="http://www.w3.org/2000/svg" width="45" height="45"><g fill="#161C49"><path d="M31.862 31.42l-1.901-.668c-.416-.138-.701-.282-.854-.431-.154-.149-.23-.391-.23-.728 0-.416.099-.676.297-.78.198-.104.589-.156 1.173-.156 1.257 0 2.317.015 3.178.045l.134-1.544a11.185 11.185 0 0 0-1.916-.342l.148-1.396h-1.648l-.134 1.336c-.861.01-1.532.092-2.012.245-.48.154-.841.436-1.084.846-.243.411-.364.992-.364 1.745 0 .772.161 1.396.483 1.871.322.475.859.852 1.611 1.129l2.02.728c.376.119.634.25.772.394.138.143.208.389.208.735 0 .386-.102.641-.305.765s-.601.186-1.195.186c-.574 0-1.688-.02-3.341-.059l-.148 1.663c.802.169 1.544.277 2.227.327l-.148 1.648h1.648l.149-1.604c1.247-.02 2.121-.243 2.621-.668.5-.425.75-1.183.75-2.272 0-.772-.161-1.398-.483-1.879s-.874-.858-1.656-1.136z"/><path d="M30.325 19.4c-.212 0-.419.022-.629.032V3.36c0-.81-.657-1.467-1.467-1.467H1.467C.657 1.893 0 2.55 0 3.36v40.173C0 44.343.657 45 1.467 45h26.762c.19 0 .371-.038.537-.104.512.062 1.03.104 1.559.104 7.069 0 12.8-5.731 12.8-12.8s-5.731-12.8-12.8-12.8zM1.467 43.533V3.36h26.762v16.226a12.73 12.73 0 0 0-6.164 2.844h-6.239a.734.734 0 0 0 0 1.467h4.768a12.738 12.738 0 0 0-3.069 8.303c0 .343.025.679.051 1.015h-1.75a.734.734 0 0 0 0 1.467h1.944a12.81 12.81 0 0 0 6.616 8.852l-22.919-.001zm28.858.009c-6.264 0-11.342-5.078-11.342-11.342s5.078-11.342 11.342-11.342S41.667 25.936 41.667 32.2s-5.078 11.342-11.342 11.342z"/><path d="M11.901 7.977l-3.567 4.429-2.418-1.815a.75.75 0 0 0-.9 1.2l3 2.25a.75.75 0 0 0 1.036-.131l4.022-4.997a.751.751 0 0 0-1.173-.936zm0 11.501l-3.567 4.429-2.418-1.815a.75.75 0 0 0-.9 1.2l3 2.25a.75.75 0 0 0 1.036-.131l4.022-4.997a.751.751 0 0 0-1.173-.936zm0 11.502l-3.567 4.429-2.418-1.815a.75.75 0 0 0-.9 1.2l3 2.25a.75.75 0 0 0 1.036-.131l4.022-4.997a.751.751 0 0 0-1.173-.936zm3.924-19.301h9.333a.733.733 0 1 0 0-1.467h-9.333a.734.734 0 0 0 0 1.467z"/></g></svg>