<svg xmlns="http://www.w3.org/2000/svg" width="45" height="45"><g fill="#161C49"><path d="M15.175 7.605l-3.567 4.429-2.419-1.814a.75.75 0 0 0-.9 1.2l3 2.25a.75.75 0 0 0 1.036-.131l4.022-4.997a.751.751 0 0 0-1.172-.937zm0 11.502l-3.567 4.429-2.418-1.815a.75.75 0 0 0-.9 1.2l3 2.25a.75.75 0 0 0 1.036-.131l4.022-4.997a.751.751 0 0 0-1.173-.936zm0 11.501l-3.567 4.429-2.418-1.815a.75.75 0 0 0-.9 1.2l3 2.25a.75.75 0 0 0 1.036-.131l4.022-4.997a.751.751 0 0 0-1.173-.936zM19.1 11.307h9.333a.733.733 0 1 0 0-1.467H19.1a.734.734 0 0 0 0 1.467z"/><path d="M32.529 19.416V2.467c0-.81-.657-1.467-1.467-1.467H4.3c-.81 0-1.467.657-1.467 1.467v1.455H1.466C.657 3.922 0 4.579 0 5.389v2.467c0 .81.657 1.466 1.466 1.466h1.367v2.685H1.466c-.809 0-1.466.656-1.466 1.467v2.467c0 .81.657 1.466 1.466 1.466h1.367v2.685H1.466c-.809 0-1.466.656-1.466 1.466v2.467c0 .81.657 1.466 1.466 1.466h1.367v2.685H1.466A1.468 1.468 0 0 0 0 29.643v2.467c0 .81.657 1.466 1.466 1.466h1.367v2.685H1.466c-.809 0-1.466.657-1.466 1.467v2.467c0 .81.657 1.466 1.466 1.466h1.367v1.872c0 .81.657 1.467 1.467 1.467h26.762c.114 0 .224-.015.331-.041.268.017.534.041.807.041C39.269 45 45 39.269 45 32.2c0-6.959-5.555-12.608-12.471-12.784zM1.466 7.856V5.389H5.4v2.467H1.466zm0 8.084v-2.467H5.4v2.467H1.466zm0 8.085v-2.467H5.4v2.467H1.466zm0 8.085v-2.467H5.4v2.467H1.466zm0 8.085v-2.467H5.4v2.467H1.466zM4.3 43.533v-1.872h1.1c.81 0 1.467-.657 1.467-1.466v-2.467c0-.81-.657-1.467-1.467-1.467H4.3v-2.685h1.1c.81 0 1.467-.657 1.467-1.466v-2.467c0-.81-.657-1.467-1.467-1.467H4.3v-2.685h1.1c.81 0 1.467-.657 1.467-1.466v-2.467c0-.81-.657-1.467-1.467-1.467H4.3v-2.685h1.1c.81 0 1.467-.657 1.467-1.466v-2.467c0-.81-.657-1.467-1.467-1.467H4.3V9.322h1.1c.81 0 1.467-.657 1.467-1.466V5.389c0-.81-.657-1.467-1.467-1.467H4.3V2.467h26.762v16.99a12.72 12.72 0 0 0-6.651 2.601H19.1a.734.734 0 0 0 0 1.467h3.707A12.737 12.737 0 0 0 19.4 32.2c0 .72.074 1.422.188 2.11H19.1a.734.734 0 0 0 0 1.467h.816a12.822 12.822 0 0 0 6.345 7.757H4.3zm27.9.009c-6.264 0-11.342-5.078-11.342-11.342S25.936 20.857 32.2 20.857s11.342 5.078 11.342 11.342S38.464 43.542 32.2 43.542z"/><path d="M39.73 32.383h-6.976v-4.84a.733.733 0 1 0-1.467 0v5.574c0 .405.328.733.733.733h7.71a.733.733 0 1 0 0-1.467z"/></g></svg>