<svg xmlns="http://www.w3.org/2000/svg" width="45" height="45"><g fill="#161C49"><path d="M22.5 1a.733.733 0 0 0-.733.733v.753C2.967 2.906.53 19.068.507 19.234a.734.734 0 0 0 1.247.617c.158-.158 3.915-3.845 7.03-.733a.654.654 0 0 0 .089.059c.04.034.084.063.131.087.05.02.102.033.155.041a.7.7 0 0 0 .1.026.716.716 0 0 0 .316-.053c.006 0 .012-.008.018-.012a.718.718 0 0 0 .215-.146l.01-.006a6.987 6.987 0 0 1 2.464-1.469c1.906-.636 3.687-.14 5.299 1.473a.738.738 0 0 0 .207.139c.018.008.035.016.054.023.08.032.165.049.252.051l.007.001h.02a.727.727 0 0 0 .147-.016.626.626 0 0 0 .082-.031c.019-.007.037-.013.055-.021a.747.747 0 0 0 .202-.136c.01-.01.017-.022.028-.033a.733.733 0 0 0 .144-.229c.004-.011.012-.021.017-.033a2.65 2.65 0 0 1 1.506-1.316v4.014a2.2 2.2 0 0 0 4.4 0v-4.018a2.618 2.618 0 0 1 1.504 1.316c.004.012.012.022.016.034.004.012.016.032.024.049a.71.71 0 0 0 .121.18c.009.01.016.021.026.031a.719.719 0 0 0 .203.137l.053.021a.829.829 0 0 0 .083.031c.048.01.097.015.146.015a.085.085 0 0 0 .022.004h.007a.715.715 0 0 0 .25-.051l.055-.023a.72.72 0 0 0 .206-.139c3.818-3.818 7.605-.156 7.763 0l.01.007a.702.702 0 0 0 .197.13c.013.007.024.019.038.024h.013a.714.714 0 0 0 .262.051h.042a.662.662 0 0 0 .097-.026.49.49 0 0 0 .287-.128.782.782 0 0 0 .09-.06c3.1-3.099 6.872.576 7.03.734a.734.734 0 0 0 1.246-.619c-.023-.166-2.46-16.328-21.26-16.748v-.75A.733.733 0 0 0 22.5 1zM2.407 17.507c1.08-3.638 4.572-11.272 15.066-13.149-6.38 3.593-8.213 10.075-8.722 12.865A5.029 5.029 0 0 0 6 16.409a7.11 7.11 0 0 0-3.593 1.098zm7.891-.578c.66-3.121 2.887-9.664 10.242-12.376-2.383 3.912-2.977 9.769-3.123 12.524a6.387 6.387 0 0 0-7.119-.148zm12.935 4.604a.734.734 0 1 1-1.466 0v-4.36a6.894 6.894 0 0 1 1.466 0v4.36zm-.733-5.867a6.38 6.38 0 0 0-3.579.926c.214-3.108.967-9.066 3.579-12.292 2.609 3.223 3.362 9.18 3.578 12.29a6.37 6.37 0 0 0-3.578-.924zm5.084 1.411c-.147-2.756-.741-8.617-3.125-12.529 7.46 2.724 9.641 9.27 10.267 12.393a6.395 6.395 0 0 0-7.142.136zm15.009.43c-1.739-1.045-4.134-1.694-6.346-.285-.504-2.787-2.343-9.274-8.721-12.864 10.495 1.877 13.987 9.51 15.067 13.149zm0 0"/><path d="M8.566 34.733c0 .405.329.734.734.734h2.204a14.758 14.758 0 0 0 2.356 2.468c.26.23.513.453.747.677 1.741 1.653 7.202 6.041 7.434 6.228.269.215.65.215.918 0 .231-.187 5.693-4.575 7.434-6.228.235-.22.487-.447.747-.677a14.758 14.758 0 0 0 2.356-2.468H35.7a.734.734 0 0 0 0-1.467h-1.382a8.368 8.368 0 0 0 .649-3.345c0-4.27-2.612-6.922-6.82-6.922a7.1 7.1 0 0 0-5.647 2.728 7.102 7.102 0 0 0-5.647-2.728c-4.205 0-6.82 2.652-6.82 6.922A8.348 8.348 0 0 0 10.682 34H9.3a.734.734 0 0 0-.734.733zm21.599 2.104c-.271.241-.535.476-.782.71-1.409 1.337-5.504 4.666-6.883 5.777-1.379-1.114-5.474-4.44-6.883-5.777-.247-.234-.513-.469-.782-.71a20.11 20.11 0 0 1-1.435-1.371h5.433a.733.733 0 0 0 .696-.502l.697-2.102 1.563 5.73a.735.735 0 0 0 .674.54h.037c.306 0 .58-.189.687-.476l1.535-4.094.764 1.906a.733.733 0 0 0 1.337.055l.53-1.057H31.6c-.454.49-.944.935-1.435 1.371zM11.5 30.654c0-3.416 2.001-5.455 5.353-5.455a5.702 5.702 0 0 1 5.001 2.908.763.763 0 0 0 1.298 0 5.7 5.7 0 0 1 4.995-2.908c3.35 0 5.353 2.039 5.353 5.455a6.655 6.655 0 0 1-.823 3.345H26.9a.735.735 0 0 0-.66.406v.006l-.86-2.151a.735.735 0 0 0-.68-.461h-.008a.733.733 0 0 0-.679.476l-1.403 3.74-1.602-5.877a.733.733 0 0 0-.687-.539.707.707 0 0 0-.716.501l-1.3 3.9h-5.982a6.661 6.661 0 0 1-.823-3.346zm0 0"/></g></svg>