<svg xmlns="http://www.w3.org/2000/svg" width="45" height="45"><g fill="#161C49"><path d="M4.4 25.934h10.267a.734.734 0 0 0 0-1.467H4.4a.733.733 0 1 0 0 1.467zm0-16.868h4.4a.733.733 0 1 0 0-1.466H4.4a.733.733 0 1 0 0 1.466zm8.067 0h6.6a.734.734 0 1 0 0-1.466h-6.6a.734.734 0 1 0 0 1.466zM4.4 17.133h23.467a.734.734 0 0 0 0-1.467H4.4a.733.733 0 0 0 0 1.467zm0 2.933h10.267a.733.733 0 1 0 0-1.466H4.4a.733.733 0 1 0 0 1.466zm0 11.734h10.267a.734.734 0 0 0 0-1.467H4.4a.733.733 0 0 0 0 1.467zm0 5.867h10.267a.733.733 0 0 0 0-1.467H4.4a.734.734 0 0 0 0 1.467zm0 0"/><path d="M43.56 22.362l-8.36-3.61V3.2A2.2 2.2 0 0 0 33 1H5.133a2.2 2.2 0 0 0-2.2 2.2v.734H2.2a2.2 2.2 0 0 0-2.2 2.2V42.8A2.2 2.2 0 0 0 2.2 45h27.867a2.19 2.19 0 0 0 1.573-.67l.601.428a1.31 1.31 0 0 0 1.518 0l7.095-5.05A7.468 7.468 0 0 0 44 33.64V23.035a.733.733 0 0 0-.44-.673zM4.4 3.2c0-.405.329-.733.734-.733H33c.405 0 .733.328.733.733v14.918l-.44-.191a.733.733 0 0 0-.581 0l-.44.191v-4.651c0-.016-.008-.032-.01-.048a.692.692 0 0 0-.035-.18c-.005-.017-.004-.034-.011-.051-.007-.016-.012-.016-.015-.025a.721.721 0 0 0-.147-.215l-8.8-8.8a.74.74 0 0 0-.215-.147c-.009-.004-.016-.012-.025-.015-.009-.004-.034-.006-.05-.011a.707.707 0 0 0-.183-.036c-.018.002-.033-.006-.049-.006H4.4V3.2zm19.067 3.237l6.296 6.296H24.2a.733.733 0 0 1-.733-.733V6.437zm6.599 37.096H2.2a.733.733 0 0 1-.733-.733V6.133c0-.405.328-.733.733-.733H22V12a2.2 2.2 0 0 0 2.2 2.2h6.6v4.552l-2.361 1.021a.718.718 0 0 0 .161-.44.734.734 0 0 0-.734-.733H17.6a.734.734 0 1 0 0 1.466h10.156l-3.395 1.467H4.4A.734.734 0 0 0 4.4 23h17.605c0 .012-.005.023-.005.035v1.431h-4.4a.734.734 0 1 0 0 1.467H22V27.4H4.4a.734.734 0 0 0 0 1.467H22v1.467h-4.4a.734.734 0 0 0 0 1.467H22v1.467H4.4a.733.733 0 1 0 0 1.466h17.692c.073.501.197.992.371 1.467H17.6a.734.734 0 0 0 0 1.467h5.603a7.46 7.46 0 0 0 1.233 1.467H4.4a.733.733 0 1 0 0 1.467h22l3.995 2.843a.712.712 0 0 1-.329.088zm12.467-9.893a5.999 5.999 0 0 1-2.529 4.872L33 43.498l-7.004-4.987a5.997 5.997 0 0 1-2.529-4.871V23.52l1.327-.574.014-.006L33 19.399l9.533 4.118V33.64zm0 0"/><path d="M32.707 21.122l-7.333 3.168a.733.733 0 0 0-.44.673v8.677a4.53 4.53 0 0 0 1.913 3.677l5.729 4.078a.733.733 0 0 0 .85 0l5.729-4.078a4.53 4.53 0 0 0 1.913-3.677v-8.677a.733.733 0 0 0-.44-.673l-7.333-3.168a.733.733 0 0 0-.588 0zm6.893 4.327v8.191a3.06 3.06 0 0 1-1.298 2.486L33 39.897l-5.303-3.775a3.064 3.064 0 0 1-1.298-2.482v-8.195l6.6-2.85 6.601 2.854zm0 0"/><path d="M29.04 31.946a.733.733 0 0 0-.88 1.173l2.933 2.2a.733.733 0 0 0 1.013-.129l5.867-7.333a.733.733 0 1 0-1.146-.917l-5.423 6.779-2.364-1.773zm0 0"/></g></svg>