<svg xmlns="http://www.w3.org/2000/svg" width="45" height="45"><g fill="#C9801D"><path d="M44.551 4.597L34.051.061a.748.748 0 0 0-.594 0l-10.5 4.536a.75.75 0 0 0-.45.688v6.334a11.741 11.741 0 0 0-3.004 3.046 10.858 10.858 0 0 0-9.032-4.915C4.013 9.75.001 14.078.001 21.045a14.088 14.088 0 0 0 1.561 6.705H.751a.75.75 0 0 0 0 1.5h1.736a25.357 25.357 0 0 0 3.458 3.804c.422.4.833.789 1.216 1.177 2.765 2.803 11.481 10.275 11.85 10.589a.75.75 0 0 0 .975 0c.37-.317 9.086-7.786 11.85-10.589.383-.389.794-.778 1.216-1.177a23.762 23.762 0 0 0 3.706-4.142A13.038 13.038 0 0 0 38.6 24.6l3.183-2.266A7.641 7.641 0 0 0 45 16.131V5.286a.747.747 0 0 0-.449-.689zM1.501 21.045c0-6.134 3.353-9.795 8.97-9.795 5.617 0 8.093 4.676 8.355 5.209a.753.753 0 1 0 1.347.001 10.177 10.177 0 0 1 2.329-2.941v2.612a7.638 7.638 0 0 0 3.217 6.204l.702.5-1.476 4.914h-2.443a.749.749 0 0 0-.671.415l-1.142 2.285-1.193-9.543a.75.75 0 0 0-1.463-.122l-2.089 6.965h-2.442a.75.75 0 0 0-.6.3l-1.18 1.575-1.229-7.987a.752.752 0 0 0-.678-.632.753.753 0 0 0-.775.51l-2.08 6.236H3.286a12.426 12.426 0 0 1-1.785-6.706zm34.009 7.043a22.288 22.288 0 0 1-3.484 3.878c-.436.411-.859.813-1.253 1.213-2.353 2.383-9.357 8.435-11.272 10.083-1.914-1.65-8.919-7.7-11.271-10.083a49.117 49.117 0 0 0-1.253-1.213 29.487 29.487 0 0 1-2.622-2.716h3.146a.75.75 0 0 0 .711-.513l1.27-3.807 1.028 6.684a.75.75 0 0 0 1.341.336l2.025-2.7h2.625a.75.75 0 0 0 .718-.535l1.232-4.094 1.059 8.475a.751.751 0 0 0 .617.647.851.851 0 0 0 .124.007.75.75 0 0 0 .671-.415l2.043-4.085h2.537a.75.75 0 0 0 .718-.534l1.251-4.162 1.037 7.794a.75.75 0 0 0 1.386.287l2.25-3.75a.75.75 0 1 0-1.286-.773l-1.147 1.911L29 24.675l3.975 2.83a1.339 1.339 0 0 0 1.553 0l2.062-1.468a11.803 11.803 0 0 1-1.08 2.051zm7.991-11.956a6.13 6.13 0 0 1-2.587 4.982l-7.163 5.1-7.163-5.1a6.135 6.135 0 0 1-2.587-4.982V5.779l9.75-4.212 9.75 4.212v10.353zm0 0"/><path d="M33.451 3.33l-7.5 3.24a.75.75 0 0 0-.45.688v8.874a4.636 4.636 0 0 0 1.956 3.76l5.859 4.171a.751.751 0 0 0 .87 0l5.859-4.17a4.633 4.633 0 0 0 1.956-3.761V7.258a.749.749 0 0 0-.45-.688l-7.5-3.24a.746.746 0 0 0-.6 0zm7.05 4.424v8.378a3.132 3.132 0 0 1-1.327 2.539l-5.423 3.861-5.423-3.861a3.132 3.132 0 0 1-1.327-2.539V7.751l6.75-2.916 6.75 2.919zm0 0"/><path d="M29.701 14.4a.75.75 0 0 0-.9 1.2l3 2.25a.75.75 0 0 0 1.036-.131l6-7.5a.75.75 0 0 0-1.171-.937l-5.55 6.932-2.415-1.814zm0 0"/></g></svg>