<svg xmlns="http://www.w3.org/2000/svg" width="45" height="45"><g fill="#C9801D"><path d="M33.717 31.129l-1.901-.668c-.416-.138-.701-.282-.854-.43-.154-.149-.23-.391-.23-.728 0-.416.099-.676.297-.78.198-.104.589-.156 1.173-.156 1.257 0 2.317.015 3.178.044l.134-1.544a11.093 11.093 0 0 0-1.916-.341l.148-1.396h-1.648l-.134 1.336c-.861.01-1.532.092-2.012.245-.48.154-.842.436-1.084.846-.243.411-.364.992-.364 1.745 0 .772.161 1.396.483 1.871.322.475.859.852 1.611 1.129l2.02.728c.376.119.634.25.772.394.138.143.208.389.208.735 0 .386-.102.641-.305.765s-.601.186-1.195.186c-.574 0-1.688-.02-3.341-.059l-.148 1.663c.802.169 1.544.277 2.227.327l-.148 1.648h1.648l.149-1.604c1.247-.02 2.121-.243 2.621-.668.5-.425.75-1.183.75-2.272 0-.772-.161-1.398-.483-1.878-.322-.482-.874-.861-1.656-1.138z"/><path d="M44.98 31.909c0-3.703-1.582-7.03-4.096-9.367.8-.032 1.44-.686 1.44-1.494v-4.166a1.473 1.473 0 0 0-.582-1.184L21.785.174a.75.75 0 0 0-.921 0l-7.04 5.476V3.766a1.5 1.5 0 0 0-1.5-1.5h-4.5a1.5 1.5 0 0 0-1.5 1.5v7.718L.913 15.691a1.484 1.484 0 0 0-.589 1.193v4.102a1.5 1.5 0 0 0 1.5 1.5c.333 0 .657-.113.917-.321l2.082-1.62v22.222a2.25 2.25 0 0 0 2.25 2.25h26.213l-.555-.335c6.813-.293 12.249-5.891 12.249-12.773zM7.824 3.766h4.5v3.051l-4.5 3.5V3.766zm-5.999 17.22v-4.102l4.2-3.266.011-.005L21.324 1.716l12.622 9.821h-.081l2.748 2.139.011.005 4.2 3.266v4.102l-7.685-5.979.053-.022-11.407-8.875a.75.75 0 0 0-.921 0L1.825 20.986zm11.999 8.28v14.25h-6.75a.75.75 0 0 1-.75-.75V19.378l15-11.662 9.25 7.191v.063l5.75 4.471v.367a12.748 12.748 0 0 0-4.144-.699c-5.336 0-9.905 3.266-11.827 7.907h-4.279a2.25 2.25 0 0 0-2.25 2.25zm1.5 0a.75.75 0 0 1 .75-.75h3.775a12.786 12.786 0 0 0-.469 3.393c0 5.148 3.046 9.575 7.429 11.607H15.324v-14.25zM32.18 43.251c-6.264 0-11.342-5.078-11.342-11.342s5.078-11.342 11.342-11.342 11.342 5.078 11.342 11.342-5.078 11.342-11.342 11.342z"/></g></svg>