<svg xmlns="http://www.w3.org/2000/svg" width="55" height="44" viewBox="0 0 50 35"><g data-name="Grupo 239" fill="#fff"><path data-name="Caminho 135" d="M4.223 10.657q.836.588 5.033 3.5t6.433 4.481q.246.172 1.044.749t1.326.933c.351.238.776.5 1.277.8a7.4 7.4 0 0 0 1.411.662 3.919 3.919 0 0 0 1.229.221h.048a3.919 3.919 0 0 0 1.229-.221 7.521 7.521 0 0 0 1.411-.662c.5-.3.924-.561 1.277-.8s.794-.548 1.325-.933.881-.634 1.044-.749q2.259-1.572 11.491-7.98a11.65 11.65 0 0 0 2.995-3.02 6.486 6.486 0 0 0 1.2-3.707A3.961 3.961 0 0 0 40.067.003H3.929A3.507 3.507 0 0 0 1.018 1.28 4.958 4.958 0 0 0 0 4.472a5.734 5.734 0 0 0 1.351 3.352 12.194 12.194 0 0 0 2.872 2.836zm0 0"/><path data-name="Caminho 136" d="M41.544 13.283q-8.052 5.45-12.227 8.47-1.4 1.033-2.272 1.608a13.808 13.808 0 0 1-2.319 1.179 7.065 7.065 0 0 1-2.7.6h-.048a7.057 7.057 0 0 1-2.7-.6 13.914 13.914 0 0 1-2.321-1.179q-.869-.574-2.27-1.608-3.316-2.43-12.2-8.47a12.977 12.977 0 0 1-2.479-2.136v19.494a3.937 3.937 0 0 0 3.929 3.929h36.142a3.938 3.938 0 0 0 3.929-3.929V11.147a13.635 13.635 0 0 1-2.456 2.136zm0 0"/></g></svg>