<svg xmlns="http://www.w3.org/2000/svg" width="45" height="45"><g fill="#161C49"><path d="M32.975.098c-6.592 0-11.956 5.363-11.956 11.956 0 .367.018.73.05 1.089-1.86.266-7.126 1.584-8.519 1.942a12.94 12.94 0 0 1-1.758-1.022c-.729-.481-1.358-.897-2.125-.957a8.097 8.097 0 0 0-8.69 8.938c.481 4.378 2.122 13.08 7.704 22.169a1.38 1.38 0 1 0 2.513-.377l.582-2.255a13.858 13.858 0 0 1 3.415-6.122l.194-.202a.604.604 0 0 1 .853-.018l.235.225a13.82 13.82 0 0 1 3.765 6.296l.592 2.133a1.361 1.361 0 0 0 1.337 1.011 1.36 1.36 0 0 0 1.167-.658c5.06-8.228 6.876-16.179 7.526-20.648 1.015.274 2.062.413 3.114.412 6.592 0 11.956-5.364 11.956-11.956C44.931 5.46 39.568.098 32.975.098zM21.18 43.381l-.556-2.006a15.266 15.266 0 0 0-4.157-6.95l-.235-.225a2.045 2.045 0 0 0-2.883.061l-.194.202a15.29 15.29 0 0 0-3.77 6.759l-.548 2.124c-5.379-8.809-6.964-17.22-7.43-21.46a6.662 6.662 0 0 1 7.15-7.348c.397.031.86.337 1.445.724 1.607 1.062 4.035 2.666 9.566 1.975l-.178-1.426c-1.633.204-2.953.195-4.044.056 2.178-.532 4.872-1.157 5.941-1.304a12.002 12.002 0 0 0 7.191 8.568c-.597 4.273-2.322 12.112-7.298 20.25zm11.795-20.809c-5.809 0-10.519-4.709-10.519-10.519 0-5.809 4.71-10.519 10.519-10.519s10.519 4.71 10.518 10.519c-.005 5.807-4.711 10.513-10.518 10.519zm0 0"/><path d="M32.746 17.002l6.478-8.107a.75.75 0 0 0-1.171-.937l-6.023 7.54-4.572-3.432a.75.75 0 0 0-.9 1.2l5.153 3.867a.749.749 0 0 0 1.035-.131z"/></g></svg>