<svg xmlns="http://www.w3.org/2000/svg" width="45" height="45"><g fill="#C9801D"><path d="M33.737 12.021l-1.901-.668c-.416-.138-.701-.282-.854-.431-.154-.149-.23-.391-.23-.728 0-.416.099-.676.297-.78.198-.104.589-.156 1.173-.156 1.257 0 2.317.015 3.178.044l.134-1.544a11.093 11.093 0 0 0-1.916-.341l.148-1.396h-1.648l-.134 1.336c-.861.01-1.532.092-2.012.245-.48.154-.841.436-1.084.846s-.364.992-.364 1.745c0 .772.161 1.396.483 1.871.322.475.859.852 1.611 1.129l2.02.728c.376.119.634.25.772.394.138.143.208.389.208.735 0 .386-.102.641-.305.765-.202.124-.601.185-1.195.185-.574 0-1.688-.02-3.341-.059l-.148 1.663c.802.169 1.544.277 2.227.327l-.148 1.648h1.648l.149-1.604c1.247-.02 2.121-.243 2.621-.668.5-.425.75-1.183.75-2.272 0-.772-.161-1.398-.483-1.879-.322-.48-.874-.858-1.656-1.135z"/><path d="M45 12.8c0-4.515-2.344-8.476-5.875-10.755A2.634 2.634 0 0 0 36.563 0H8.438a2.64 2.64 0 0 0-2.637 2.637v1.532C.068 14.756 0 14.442 0 14.94v1.759c0 1.523.881 2.94 2.285 3.746v23.676a.88.88 0 0 0 .879.879h38.672a.88.88 0 0 0 .879-.879V20.445C44.105 19.64 45 18.207 45 16.699V14.94c0-.13-.013-.219-.124-.452.073-.553.124-1.114.124-1.688zM7.559 2.637a.88.88 0 0 1 .879-.879h17.31a12.879 12.879 0 0 0-2.343 1.758H7.558v-.879zM19.4 12.8c0 .426.023.847.064 1.262h-2.957l1.465-8.789h3.65v.323A12.735 12.735 0 0 0 19.4 12.8zm1.397 5.796a2.605 2.605 0 0 1-1.813.74 2.64 2.64 0 0 1-2.637-2.637v-.879h3.425a12.78 12.78 0 0 0 1.025 2.776zm-11.14-4.533l2.93-8.789h3.602l-1.465 8.789H9.657zm4.933 1.757v.879a2.64 2.64 0 0 1-2.637 2.637 2.64 2.64 0 0 1-2.637-2.637v-.879h5.274zM7.199 5.273h3.534l-2.93 8.789H2.365l4.834-8.789zM1.758 16.699v-.879h5.801v.879c0 1.38-1.382 2.637-2.9 2.637-.383 0-.779-.083-1.148-.241-1.049-.446-1.753-1.409-1.753-2.396zm16.347 26.543H9.316v-7.559h8.789v7.559zm0-9.316H9.316v-7.559h8.789v7.559zm22.852 9.316H19.863V25.488a.88.88 0 0 0-.879-.879H8.438a.88.88 0 0 0-.879.879v17.754H4.043V21.051c.204.028.409.043.615.043 1.157 0 2.326-.458 3.208-1.257.195-.177.371-.366.528-.564a4.39 4.39 0 0 0 7.075.06 4.392 4.392 0 0 0 3.516 1.761 4.368 4.368 0 0 0 2.732-.962 12.853 12.853 0 0 0 5.582 4.477h-1.283a.88.88 0 0 0-.879.879v8.438h-.879a.88.88 0 0 0 0 1.758H38.32a.88.88 0 0 0 0-1.758h-.879v-8.438a.876.876 0 0 0-.518-.797 12.876 12.876 0 0 0 4.034-2.573v21.124zm-5.273-16.875v7.559h-8.789v-7.559h8.789zM32.2 24.143c-6.264 0-11.342-5.078-11.342-11.342S25.936 1.459 32.2 1.459s11.342 5.078 11.342 11.342c0 6.263-5.078 11.342-11.342 11.342z"/></g></svg>