<svg xmlns="http://www.w3.org/2000/svg" width="45" height="45"><g fill="#161C49"><path d="M44.55 4.594L34.05.058a.748.748 0 0 0-.594 0l-10.5 4.536a.75.75 0 0 0-.45.688v5.215H13.5a1.5 1.5 0 0 0-1.5 1.5v7.5H6.586c-1.098 0-2.108.6-2.634 1.563L.366 27.634A3.032 3.032 0 0 0 0 29.071v4.676c.002.555.211 1.09.585 1.5a2.239 2.239 0 0 0 1.665 3.75h2.51a4.5 4.5 0 1 0 8.481 0H27.26a4.5 4.5 0 1 0 8.481 0h2.509a2.25 2.25 0 0 0 2.25-2.25 2.216 2.216 0 0 0-.225-.966.747.747 0 0 0 .225-.535v-12l1.283-.914A7.638 7.638 0 0 0 45 16.128V5.283a.751.751 0 0 0-.45-.689zM12 34.497H2.25a.75.75 0 0 1-.75-.75v-.75H3a1.5 1.5 0 0 0 1.5-1.5v-1.5h2.25A2.25 2.25 0 0 0 9 27.747v-6.75h3v13.5zm-9-4.5v1.5H1.5v-1.5H3zm2.269-8.219a1.5 1.5 0 0 1 1.317-.781H7.5v6.75a.75.75 0 0 1-.75.75H1.627c.016-.049.035-.097.056-.144l3.586-6.575zM12 40.497a3 3 0 1 1-6 0c0-.528.141-1.046.408-1.5h5.184c.267.455.408.972.408 1.5zm22.5 0a3 3 0 1 1-6 0c0-.528.141-1.046.408-1.5h5.184c.267.455.408.972.408 1.5zm3.75-3h-36a.75.75 0 0 1 0-1.5h36a.75.75 0 0 1 0 1.5zm.75-5.713l-1.5-.75v-2.073l1.5-.75v3.573zm0-5.25l-2.585 1.289a.752.752 0 0 0-.415.675v3a.75.75 0 0 0 .415.675L39 33.461v1.036H13.5v-22.5h9v4.132a7.638 7.638 0 0 0 3.217 6.204l7.257 5.167c.465.33 1.088.33 1.553 0L39 24.315v2.219zm4.5-10.405a6.13 6.13 0 0 1-2.587 4.982l-7.163 5.1-7.163-5.1A6.135 6.135 0 0 1 24 16.129V5.776l9.75-4.212 9.75 4.212v10.353zm0 0"/><path d="M33.45 3.327l-7.5 3.24a.75.75 0 0 0-.45.688v8.874a4.632 4.632 0 0 0 1.956 3.76l5.859 4.171a.751.751 0 0 0 .87 0l5.859-4.17A4.633 4.633 0 0 0 42 16.129V7.255a.749.749 0 0 0-.45-.688l-7.5-3.24a.746.746 0 0 0-.6 0zm7.05 4.424v8.377a3.132 3.132 0 0 1-1.327 2.539l-5.423 3.861-5.423-3.861A3.132 3.132 0 0 1 27 16.128v-8.38l6.75-2.916 6.75 2.919zm0 0"/><path d="M29.7 14.397a.75.75 0 0 0-.9 1.2l3 2.25a.75.75 0 0 0 1.036-.131l6-7.5a.75.75 0 0 0-1.171-.937l-5.546 6.932-2.419-1.814zm-19.95 26.1a.75.75 0 1 1-1.5 0 .75.75 0 0 1 1.5 0zm22.5 0a.75.75 0 1 1-1.5 0 .75.75 0 0 1 1.5 0zm0 0"/></g></svg>