<svg xmlns="http://www.w3.org/2000/svg" width="45" height="45"><g data-name="Icone seg auto" fill="#c9801d"><path data-name="Caminho 78" d="M27.456 19.892l5.859 4.171a.748.748 0 0 0 .87 0l5.859-4.171A4.631 4.631 0 0 0 42 16.132V7.258a.748.748 0 0 0-.45-.688l-7.5-3.24a.749.749 0 0 0-.594 0l-7.5 3.24a.749.749 0 0 0-.45.688v8.874a4.636 4.636 0 0 0 1.95 3.76zM27 7.751l6.75-2.915 6.75 2.915v8.381a3.132 3.132 0 0 1-1.327 2.543l-5.423 3.857-5.423-3.861A3.134 3.134 0 0 1 27 16.132zm0 0"/><path data-name="Caminho 79" d="M31.8 17.85a.751.751 0 0 0 1.036-.131l6-7.5a.751.751 0 0 0-1.172-.938l-5.549 6.934L29.7 14.4a.75.75 0 1 0-.9 1.2zm0 0"/><path data-name="Caminho 80" d="M1.5 39.75h.75v3A2.25 2.25 0 0 0 4.5 45H9a2.249 2.249 0 0 0 2.25-2.25v-3h18v3A2.25 2.25 0 0 0 31.5 45H36a2.249 2.249 0 0 0 2.25-2.25v-3H39a1.5 1.5 0 0 0 1.5-1.5V27a3.707 3.707 0 0 0-1.3-2.827l2.58-1.836a7.641 7.641 0 0 0 3.217-6.205V5.286a.748.748 0 0 0-.45-.688L34.047.062a.748.748 0 0 0-.594 0L22.947 4.598a.75.75 0 0 0-.45.688V8.25H11.15a3.75 3.75 0 0 0-3.536 2.5L3.196 23.302a3.745 3.745 0 0 0-3.2 3.694v11.25a1.5 1.5 0 0 0 1.5 1.5zm8.25 3a.75.75 0 0 1-.75.75H4.5a.75.75 0 0 1-.75-.75v-3h6zm-3-4.5h-1.5v-1.5h1.5zm30 4.5a.75.75 0 0 1-.75.75h-4.5a.75.75 0 0 1-.75-.75v-3h6zm-1.5-4.5h-1.5v-1.5h1.5zM24 5.779l9.75-4.212 9.75 4.212v10.35a6.133 6.133 0 0 1-2.587 4.983l-7.163 5.1-7.163-5.1A6.138 6.138 0 0 1 24 16.13zM35.25 27.75a.75.75 0 0 1 .75.75V30a.75.75 0 0 1-.75.75h-4.5A.75.75 0 0 1 30 30a2.251 2.251 0 0 1 2.25-2.25zm-12.75-15v1.5h-5.25v-1.5zm0-1.5H21v-1.5h1.5zm-13.468 0a2.253 2.253 0 0 1 2.121-1.5H19.5v1.5h-2.25a1.5 1.5 0 0 0-1.5 1.5v1.5a1.5 1.5 0 0 0 1.5 1.5h5.25v.382a7.641 7.641 0 0 0 3.217 6.205L27 23.25H4.809zM1.5 27a2.25 2.25 0 0 1 2.25-2.25h25.357l2.267 1.614A3.751 3.751 0 0 0 28.5 30a2.25 2.25 0 0 0 2.25 2.25h4.5A2.249 2.249 0 0 0 37.5 30v-1.5a2.25 2.25 0 0 0-1.436-2.091l1.857-1.323A2.217 2.217 0 0 1 39 27v11.25h-2.25v-1.5a1.5 1.5 0 0 0-1.5-1.5h-1.5a1.5 1.5 0 0 0-1.5 1.5v1.5h-24v-1.5a1.5 1.5 0 0 0-1.5-1.5h-1.5a1.5 1.5 0 0 0-1.5 1.5v1.5H1.5zm0 0"/><path data-name="Caminho 81" d="M13.5 11.25h-1.283a2.257 2.257 0 0 0-2.123 1.5l-2.815 8a.75.75 0 1 0 1.415.5l2.816-8a.749.749 0 0 1 .707-.5H13.5a.75.75 0 0 0 0-1.5zm0 0"/><path data-name="Caminho 82" d="M5.25 32.25h4.5A2.249 2.249 0 0 0 12 30a3.755 3.755 0 0 0-3.75-3.75h-3A2.25 2.25 0 0 0 3 28.5V30a2.25 2.25 0 0 0 2.25 2.25zM4.5 28.5a.75.75 0 0 1 .75-.75h3A2.25 2.25 0 0 1 10.5 30a.75.75 0 0 1-.75.75h-4.5A.75.75 0 0 1 4.5 30zm0 0"/><path data-name="Caminho 83" d="M15 36.751h10.5a1.5 1.5 0 0 0 1.5-1.5v-3a1.5 1.5 0 0 0-1.5-1.5H15a1.5 1.5 0 0 0-1.5 1.5v3a1.5 1.5 0 0 0 1.5 1.5zm0-4.5h10.5v3H15zm0 0"/></g></svg>