<svg xmlns="http://www.w3.org/2000/svg" width="45" height="45"><path fill="#FFF" d="M31.591-.044H13.404C6.013-.044 0 5.969 0 13.36v18.187c0 7.391 6.013 13.404 13.404 13.404h18.187c7.391 0 13.404-6.013 13.404-13.404V13.36c0-7.391-6.014-13.404-13.404-13.404zm8.877 31.591a8.878 8.878 0 0 1-8.878 8.878H13.404a8.878 8.878 0 0 1-8.878-8.878V13.36a8.878 8.878 0 0 1 8.878-8.878h18.187a8.878 8.878 0 0 1 8.878 8.878v18.187zM22.497 10.816c-6.417 0-11.637 5.221-11.637 11.637S16.081 34.09 22.497 34.09s11.637-5.22 11.637-11.637-5.22-11.637-11.637-11.637zm0 18.748a7.11 7.11 0 1 1 0-14.221 7.11 7.11 0 0 1 0 14.221zm14.448-18.66a2.789 2.789 0 1 1-5.578 0 2.789 2.789 0 0 1 5.578 0zm0 0"/></svg>