<svg xmlns="http://www.w3.org/2000/svg" width="45" height="45"><path fill="#C9801D" d="M35.056 0H17.132A4.065 4.065 0 0 0 13.1 3.653L5.15 6.716a4.075 4.075 0 0 0-2.337 5.266L9.496 29.33l.025.064.659 1.712.844 2.191 2.542 6.595-.003.001.641 1.664.326.836a4.074 4.074 0 0 0 5.263 2.336l7.16-2.758 3.544-1.235h4.557a4.08 4.08 0 0 0 4.074-4.074V4.074A4.077 4.077 0 0 0 35.056 0zM13.067 34.065l-.534-1.386.003-.003-.626-1.628-7.575-19.653a2.443 2.443 0 0 1 1.402-3.159l3.574-1.374 1.517-.588 2.23-.857v11.17h.005V29.99l.003.001.001 4.074zm6.14 9.143a2.444 2.444 0 0 1-3.159-1.403l-.53-1.372.002-.001-.015-.04c.015.007.032.011.047.018l.01.004c.497.209 1.031.32 1.57.321h8.494l-6.419 2.473zM37.5 36.662a2.444 2.444 0 0 1-2.444 2.444h-5.178v-.007l-.019.007H17.14v-.002a2.444 2.444 0 0 1-2.444-2.444v-8.711h-.008V4.074a2.444 2.444 0 0 1 2.444-2.444h17.924A2.444 2.444 0 0 1 37.5 4.074v32.588zm-4.888-5.703h2.444v1.629h-2.444v-1.629zm0-3.259h2.444v1.629h-2.444V27.7zm0-3.259h2.444v1.629h-2.444v-1.629zM13.056 12.067v4.52L9.309 6.861l1.517-.588 2.23 5.794z"/></svg>