<svg xmlns="http://www.w3.org/2000/svg" width="45" height="45"><g fill="#C9801D"><path d="M23.783 23.744h-4.176v-4.176a.71.71 0 0 0-.711-.711h-3.91a.71.71 0 0 0-.711.711v4.176H10.01a.71.71 0 0 0-.711.711v3.999a.71.71 0 0 0 .711.711h4.265v4.176a.71.71 0 0 0 .711.711h3.91a.71.71 0 0 0 .711-.711v-4.176h4.176a.71.71 0 0 0 .711-.711v-3.999a.71.71 0 0 0-.711-.711zm-.71 3.998h-4.176a.71.71 0 0 0-.711.711v4.176h-2.488v-4.176a.71.71 0 0 0-.711-.711h-4.265v-2.577h4.265a.711.711 0 0 0 .711-.711v-4.176h2.488v4.176a.71.71 0 0 0 .711.711h4.176v2.577zm0 0"/><path d="M31.468 0c-5.543 0-10.207 3.833-11.482 8.988l-2.677-1.315a.71.71 0 0 0-.626 0L2.341 14.687a.727.727 0 0 0-.415.639v13.421c0 1.651.543 3.556 1.499 5.363.956 1.81 2.244 3.32 3.613 4.253l9.553 6.513a.718.718 0 0 0 .804 0l9.558-6.513c2.851-1.944 5.094-6.168 5.094-9.617V23.64c6.22-.294 11.258-5.48 11.258-11.814C43.304 5.306 37.989 0 31.468 0zm-5.316 37.189L17 43.428l-9.168-6.239c-2.42-1.65-4.484-5.516-4.484-8.442V15.769l13.63-6.666 2.736 1.34c-.05.46-.073.922-.069 1.385 0 6.232 4.849 11.354 10.98 11.795v5.124c0 2.977-2.011 6.764-4.473 8.442zm5.316-14.956c-5.747 0-10.406-4.659-10.406-10.405 0-5.747 4.659-10.406 10.405-10.406 5.747 0 10.406 4.659 10.406 10.405-.006 5.745-4.661 10.4-10.405 10.406zm0 0"/><path d="M32.746 16.519l6.478-8.107a.75.75 0 0 0-1.171-.937l-6.023 7.54-4.572-3.432a.75.75 0 0 0-.9 1.2l5.153 3.867a.75.75 0 0 0 1.035-.131z"/></g></svg>