<svg xmlns="http://www.w3.org/2000/svg" width="45" height="45"><g fill="#161C49"><path d="M7.584 30.241v-2.934c0-.81-.657-1.466-1.467-1.466H4.651c-.81 0-1.466.657-1.466 1.466v2.934c0 .81.657 1.467 1.466 1.467h1.467c.81 0 1.466-.657 1.466-1.467zm-2.933 0v-2.934h1.467v2.934H4.651zm7.333 1.467h1.467c.81 0 1.467-.657 1.467-1.467v-2.934c0-.81-.657-1.466-1.467-1.466h-1.467c-.81 0-1.466.657-1.466 1.466v2.934c0 .81.657 1.467 1.466 1.467zm0-4.401h1.467v2.934h-1.467v-2.934zm7.334 4.401h1.467c.81 0 1.467-.657 1.467-1.467v-2.934c0-.81-.657-1.466-1.467-1.466h-1.467c-.81 0-1.466.657-1.466 1.466v2.934a1.466 1.466 0 0 0 1.466 1.467zm0-4.401h1.467v2.934h-1.467v-2.934zM4.651 24.374h1.467c.81 0 1.467-.657 1.467-1.467v-2.934c0-.81-.657-1.466-1.467-1.466H4.651c-.81 0-1.466.657-1.466 1.466v2.934c0 .811.656 1.467 1.466 1.467zm0-4.4h1.467v2.934H4.651v-2.934zm7.333 4.4h1.467c.81 0 1.467-.657 1.467-1.467v-2.934c0-.81-.657-1.466-1.467-1.466h-1.467c-.81 0-1.466.657-1.466 1.466v2.934c0 .811.657 1.467 1.466 1.467zm0-4.4h1.467v2.934h-1.467v-2.934zm7.334 4.4h1.467c.81 0 1.467-.657 1.467-1.467v-2.934c0-.81-.657-1.466-1.467-1.466h-1.467c-.81 0-1.466.657-1.466 1.466v2.934a1.465 1.465 0 0 0 1.466 1.467zm0-4.4h1.467v2.934h-1.467v-2.934zM4.651 17.041h1.467c.81 0 1.467-.657 1.467-1.467V12.64c0-.81-.657-1.466-1.467-1.466H4.651c-.81 0-1.466.657-1.466 1.466v2.934c0 .81.656 1.467 1.466 1.467zm0-4.4h1.467v2.934H4.651v-2.934zm7.333 4.4h1.467c.81 0 1.467-.657 1.467-1.467V12.64c0-.81-.657-1.466-1.467-1.466h-1.467c-.81 0-1.466.657-1.466 1.466v2.934c0 .81.657 1.467 1.466 1.467zm0-4.4h1.467v2.934h-1.467v-2.934zm7.334 4.4h1.467c.81 0 1.467-.657 1.467-1.467V12.64c0-.81-.657-1.466-1.467-1.466h-1.467c-.81 0-1.466.657-1.466 1.466v2.934a1.466 1.466 0 0 0 1.466 1.467zm0-4.4h1.467v2.934h-1.467v-2.934zM4.651 9.708h1.467c.81 0 1.467-.657 1.467-1.467V5.307c0-.81-.657-1.466-1.467-1.466H4.651c-.81 0-1.466.657-1.466 1.466v2.934c0 .81.656 1.467 1.466 1.467zm0-4.401h1.467v2.934H4.651V5.307zm7.333 4.401h1.467c.81 0 1.467-.657 1.467-1.467V5.307c0-.81-.657-1.466-1.467-1.466h-1.467c-.81 0-1.466.657-1.466 1.466v2.934c0 .81.657 1.467 1.466 1.467zm0-4.401h1.467v2.934h-1.467V5.307zm7.334 4.401h1.467c.81 0 1.467-.657 1.467-1.467V5.307c0-.81-.657-1.466-1.467-1.466h-1.467c-.81 0-1.466.657-1.466 1.466v2.934a1.466 1.466 0 0 0 1.466 1.467zm0-4.401h1.467v2.934h-1.467V5.307zm8.8 22a.734.734 0 0 0 .734-.733V23.64a.734.734 0 0 0-1.467 0v2.934c0 .405.328.733.733.733zm3.666-5.866a.734.734 0 0 0 .734-.733v-2.934a.734.734 0 0 0-1.467 0v2.934c0 .405.328.733.733.733zm-3.666 0a.734.734 0 0 0 .734-.733v-2.934a.734.734 0 0 0-1.467 0v2.934c0 .405.328.733.733.733zm7.333 0a.734.734 0 0 0 .734-.733v-2.934a.734.734 0 0 0-1.467 0v2.934c0 .405.328.733.733.733zm0 0"/><path d="M43.811 27.667l-3.96-1.709V15.574c0-.81-.657-1.467-1.467-1.467h-13.2V2.374c0-.81-.657-1.467-1.467-1.467h-22C.907.907.25 1.564.25 2.374V43.44c0 .81.657 1.467 1.467 1.467h34.467a.743.743 0 0 0 .256-.051.945.945 0 0 0 .078-.039.636.636 0 0 0 .09-.046l5.729-4.077a4.538 4.538 0 0 0 1.913-3.677V28.34a.73.73 0 0 0-.439-.673zM1.718 2.374h22V43.44h-5.867v-6.6a3.672 3.672 0 0 0-3.667-3.667H11.25a3.672 3.672 0 0 0-3.667 3.667v6.6H1.718V2.374zm7.333 34.467a2.2 2.2 0 0 1 2.2-2.2h.733v8.8H9.051v-6.6zm4.4 6.6v-8.8h.734a2.2 2.2 0 0 1 2.2 2.2v6.6h-2.934zm11.734-27.867h13.2v9.753l-1.907-.829a.739.739 0 0 0-.293-.06v-.798a.734.734 0 0 0-1.467 0v1.367l-2.2.953v-2.32a.734.734 0 0 0-1.467 0v2.949l-2.494 1.077a.733.733 0 0 0-.44.673V43.44h-2.933V15.574zm4.399 24.755a4.6 4.6 0 0 0 .446.367l3.86 2.745h-4.305v-3.112zm13.2-3.312a3.061 3.061 0 0 1-1.297 2.482l-5.303 3.774-5.303-3.774a3.065 3.065 0 0 1-1.297-2.482v-8.195l6.151-2.658.449-.193 2.632 1.137.031.013 3.937 1.701v8.195zm0 0"/><path d="M34.589 37.097l-2.364-1.773a.734.734 0 0 0-.88 1.173l2.934 2.2a.732.732 0 0 0 1.012-.128l5.867-7.333a.732.732 0 1 0-1.145-.916l-5.424 6.777zm0 0"/></g></svg>