<svg xmlns="http://www.w3.org/2000/svg" width="40" height="40.001"><path d="M31.784 0H8.217A8.218 8.218 0 0 0 0 8.217v23.568a8.216 8.216 0 0 0 8.217 8.216h23.567A8.215 8.215 0 0 0 40 31.785V8.217A8.217 8.217 0 0 0 31.784 0zM11.997 34.458h-6V15.144h6zm-3-21.954a3.48 3.48 0 1 1 3.478-3.478 3.477 3.477 0 0 1-3.479 3.478zm25.488 21.954h-6v-9.393c0-2.239-.039-5.122-3.12-5.122-3.123 0-3.6 2.443-3.6 4.962v9.553h-6V15.144h5.759v2.642h.082a6.3 6.3 0 0 1 5.679-3.119c6.079 0 7.2 4 7.2 9.2z" fill="#fff"/></svg>