<svg xmlns="http://www.w3.org/2000/svg" width="45" height="45"><g fill="#161C49"><path d="M.45 4.594a.751.751 0 0 0-.45.689v10.846a7.638 7.638 0 0 0 3.217 6.204l1.283.914v12c0 .201.081.394.225.535a2.216 2.216 0 0 0-.225.966 2.25 2.25 0 0 0 2.25 2.25h2.51a4.5 4.5 0 1 0 8.481 0H31.76a4.5 4.5 0 1 0 8.481 0h2.509a2.241 2.241 0 0 0 1.665-3.75c.374-.41.583-.945.585-1.5v-4.676a3 3 0 0 0-.366-1.436l-3.586-6.574a3 3 0 0 0-2.634-1.563H33v-7.5a1.5 1.5 0 0 0-1.5-1.5h-9.006V5.283a.749.749 0 0 0-.45-.688L11.544.059a.748.748 0 0 0-.594 0L.45 4.594zM33 20.997h3v6.75a2.25 2.25 0 0 0 2.25 2.25h2.25v1.5a1.5 1.5 0 0 0 1.5 1.5h1.5v.75a.75.75 0 0 1-.75.75H33v-13.5zm10.5 9v1.5H42v-1.5h1.5zm-.183-1.644c.021.047.04.095.056.144H38.25a.75.75 0 0 1-.75-.75v-6.75h.914c.549 0 1.054.3 1.317.781l3.586 6.575zM33 40.497c0-.528.141-1.046.408-1.5h5.184c.267.455.408.972.408 1.5a3 3 0 1 1-6 0zm-22.5 0c0-.528.141-1.046.408-1.5h5.184c.267.455.408.972.408 1.5a3 3 0 1 1-6 0zm-3.75-3a.75.75 0 0 1 0-1.5h36a.75.75 0 0 1 0 1.5h-36zM6 28.21l1.5.75v2.073l-1.5.751V28.21zm0-3.895l4.474 3.185c.465.33 1.088.33 1.553 0l7.257-5.167a7.638 7.638 0 0 0 3.217-6.204v-4.132h9v22.5H6v-1.036l2.585-1.289A.75.75 0 0 0 9 31.497v-3a.75.75 0 0 0-.415-.675L6 26.534v-2.219zM1.5 5.776l9.75-4.212L21 5.776v10.353a6.135 6.135 0 0 1-2.587 4.982l-7.163 5.1-7.163-5.1A6.135 6.135 0 0 1 1.5 16.129V5.776zm0 10.353"/><path d="M11.55 3.327a.746.746 0 0 0-.6 0l-7.5 3.24a.749.749 0 0 0-.45.688v8.874a4.635 4.635 0 0 0 1.956 3.761l5.859 4.17a.751.751 0 0 0 .87 0l5.859-4.171a4.633 4.633 0 0 0 1.956-3.76V7.255a.749.749 0 0 0-.45-.688l-7.5-3.24zm-.3 1.505L18 7.748v8.381a3.132 3.132 0 0 1-1.327 2.539l-5.423 3.861-5.423-3.861A3.132 3.132 0 0 1 4.5 16.129V7.751l6.75-2.919zM4.5 7.751"/><path d="M7.975 14.397a.75.75 0 0 0-.9 1.2l3 2.25a.75.75 0 0 0 1.036-.131l6-7.5a.75.75 0 0 0-1.171-.937l-5.546 6.932-2.419-1.814zm27.275 26.1a.75.75 0 1 1 1.5 0 .75.75 0 0 1-1.5 0zm-22.5 0a.75.75 0 1 1 1.5 0 .75.75 0 0 1-1.5 0zm0 0"/></g></svg>