<svg xmlns="http://www.w3.org/2000/svg" width="45" height="45"><g fill="#C9801D"><path d="M41.55 23.819l-7.5-3.24a.748.748 0 0 0-.594 0l-7.5 3.24a.75.75 0 0 0-.45.688v8.874a4.632 4.632 0 0 0 1.956 3.76l5.859 4.171c.26.185.61.185.87 0l5.859-4.171a4.635 4.635 0 0 0 1.95-3.76v-8.874a.75.75 0 0 0-.45-.688zm-1.05 9.563a3.136 3.136 0 0 1-1.327 2.543l-5.423 3.857-5.423-3.861A3.134 3.134 0 0 1 27 33.382V25l6.75-2.915L40.5 25v8.382zm0 0"/><path d="M29.7 31.65a.75.75 0 1 0-.9 1.201l3 2.25a.75.75 0 0 0 1.036-.131l6-7.5a.75.75 0 0 0-1.171-.937l-5.546 6.933L29.7 31.65zm0 0"/><path d="M41.25 6h-9.044A6.758 6.758 0 0 0 25.5 0h-6a6.759 6.759 0 0 0-6.706 6H3.75A3.755 3.755 0 0 0 0 9.75v28.5a3.755 3.755 0 0 0 3 3.675v.825A2.25 2.25 0 0 0 5.25 45h4.5A2.25 2.25 0 0 0 12 42.75V42h17.107l3.862 2.748a1.343 1.343 0 0 0 1.562 0l7.251-5.159a7.663 7.663 0 0 0 2.768-3.653.75.75 0 0 0 .45-.685V9.75A3.755 3.755 0 0 0 41.25 6zm-1.998 13.562l-2.202-.952-1.05-.45v-5.41a2.25 2.25 0 0 0-2.25-2.25h-3a2.25 2.25 0 0 0-2.25 2.25v6.701l-.112.049H18v-.75a2.25 2.25 0 0 0-1.5-2.112V12.75a2.25 2.25 0 0 0-2.25-2.25h-3A2.25 2.25 0 0 0 9 12.75v3.888a2.25 2.25 0 0 0-1.5 2.112v.75h-6v-6H3A1.5 1.5 0 0 0 4.5 12v-1.5H6A1.5 1.5 0 0 0 7.5 9V7.5h30V9a1.5 1.5 0 0 0 1.5 1.5h1.5V12a1.5 1.5 0 0 0 1.5 1.5h1.5v7.897l-4.248-1.835zm-5.204-2.25a.742.742 0 0 0-.595 0L30 18.803V12.75a.75.75 0 0 1 .75-.75h3a.75.75 0 0 1 .75.75v4.757l-.452-.195zM10.5 24H15v4.939l-2.25 2.25-2.25-2.25V24zm5.25-1.5h-6a.75.75 0 0 1-.75-.75v-3a.75.75 0 0 1 .75-.75h6a.75.75 0 0 1 .75.75v3a.75.75 0 0 1-.75.75zm-.75-6h-4.5v-3.75a.75.75 0 0 1 .75-.75h3a.75.75 0 0 1 .75.75v3.75zM17.388 6A2.25 2.25 0 0 1 19.5 4.5h6A2.25 2.25 0 0 1 27.612 6H17.388zM43.5 9.75V12H42v-1.5A1.5 1.5 0 0 0 40.5 9H39V7.5h2.25a2.25 2.25 0 0 1 2.25 2.25zm-24-8.25h6A5.257 5.257 0 0 1 30.696 6h-1.522a3.757 3.757 0 0 0-3.675-3h-6a3.757 3.757 0 0 0-3.675 3h-1.522A5.26 5.26 0 0 1 19.5 1.5zm-15.75 6H6V9H4.5A1.5 1.5 0 0 0 3 10.5V12H1.5V9.75A2.25 2.25 0 0 1 3.75 7.5zM1.5 38.25V36H3v1.5A1.5 1.5 0 0 0 4.5 39H6v1.5H3.75a2.25 2.25 0 0 1-2.25-2.25zm9 4.5a.75.75 0 0 1-.75.75h-4.5a.75.75 0 0 1-.75-.75V42h6v.75zm.75-2.25H7.5V39A1.5 1.5 0 0 0 6 37.5H4.5V36A1.5 1.5 0 0 0 3 34.5H1.5V21h6v.75A2.25 2.25 0 0 0 9 23.862v5.388c0 .199.079.39.22.53l3 3a.752.752 0 0 0 1.061 0l3-3a.749.749 0 0 0 .22-.53v-5.388a2.25 2.25 0 0 0 1.5-2.112V21h6.917l-1.967.849a.75.75 0 0 0-.45.688v10.845a7.638 7.638 0 0 0 3.218 6.206L27 40.5H11.25zm29.663-2.133l-7.163 5.095-7.163-5.095A6.14 6.14 0 0 1 24 33.382v-10.35l5.518-2.385.047-.02 4.185-1.811 1.192.516.034.014 1.477.639 2.204.953L43.5 23.03v10.35c0 .563-.078 1.123-.234 1.663a6.15 6.15 0 0 1-2.353 3.324zm0 0"/><path d="M13.5 27a.75.75 0 1 1-1.5 0 .75.75 0 0 1 1.5 0zm0 0"/></g></svg>