<svg xmlns="http://www.w3.org/2000/svg" width="45" height="45"><g fill="#161C49"><path d="M43.959 33.595l-2.742-2.852V15.667c0-.81-.657-1.467-1.467-1.467H36.3a12.794 12.794 0 0 0-9.75-10.811v-.922c0-.81-.657-1.467-1.467-1.467h-22c-.81 0-1.467.657-1.467 1.467v41.066c0 .81.657 1.467 1.467 1.467H39.75c.81 0 1.467-.657 1.467-1.467v-8.075l.431.448c.749.749 1.796.927 2.46.263l.114-.114c.664-.664.486-1.711-.263-2.46zM39.75 15.667v13.551l-2.244-2.333c.022-.07.044-.14.044-.217v-2.934a.734.734 0 0 0-1.467 0v1.671l-1.958-2.036a.28.28 0 0 1-.076-.13 12.717 12.717 0 0 0 2.034-4.534V20.8a.733.733 0 1 0 1.467 0v-2.934a.73.73 0 1 0-1.228-.535c.057-.491.094-.987.094-1.494 0-.058-.008-.114-.009-.171h3.343zm-4.791.171c0 6.264-5.078 11.342-11.342 11.342s-11.342-5.078-11.342-11.342S17.353 4.496 23.617 4.496s11.342 5.078 11.342 11.342zM20.683 28.287c.48.113.968.204 1.467.261v1.785h-1.467v-2.046zM14.816 6.559a12.915 12.915 0 0 0-1.467 1.658V5.4h1.467v1.159zM13.35 43.533h-2.933v-6.6a2.2 2.2 0 0 1 2.2-2.2h.733v8.8zm4.4 0h-2.934v-8.8h.734a2.2 2.2 0 0 1 2.2 2.2v6.6zm1.467 0v-6.6a3.672 3.672 0 0 0-3.667-3.667h-2.934a3.672 3.672 0 0 0-3.667 3.667v6.6H3.083V2.467h22v.661a12.91 12.91 0 0 0-1.467-.09 12.73 12.73 0 0 0-7.337 2.321 1.464 1.464 0 0 0-1.463-1.425H13.35c-.81 0-1.466.657-1.466 1.466v2.934c0 .489.245.915.614 1.18a12.73 12.73 0 0 0-1.681 6.325c0 1.818.384 3.544 1.067 5.109V23c0 .81.657 1.467 1.466 1.467h.832a12.792 12.792 0 0 0 5.035 3.379v2.488c0 .81.657 1.467 1.466 1.467h1.467c.81 0 1.467-.657 1.467-1.467v-1.695c.497 0 .985-.035 1.467-.09v14.985h-5.867zm16.315 0H30.95V40.64l-.005-.002v-6.709h4.587v9.604zm4.218 0h-2.752v-9.604c0-.81-.657-1.467-1.467-1.467h-4.587c-.81 0-1.467.657-1.467 1.467v9.604H26.55V28.287a12.743 12.743 0 0 0 5.252-2.612c.006.006.013.005.019.012l.595.619v.361c0 .405.328.733.733.733a.719.719 0 0 0 .267-.054l6.334 6.587v9.6z"/><path d="M7.483 25.934H6.016c-.81 0-1.466.657-1.466 1.466v2.934c0 .81.657 1.467 1.466 1.467h1.467c.81 0 1.467-.657 1.467-1.467V27.4c0-.81-.657-1.466-1.467-1.466zm0 4.399H6.016V27.4h1.467v2.933zm7.333-4.399H13.35c-.81 0-1.466.657-1.466 1.466v2.934c0 .81.657 1.467 1.466 1.467h1.467c.81 0 1.467-.657 1.467-1.467V27.4a1.467 1.467 0 0 0-1.468-1.466zm0 4.399H13.35V27.4h1.467v2.933zM7.483 18.6H6.016c-.81 0-1.466.657-1.466 1.466V23c0 .81.657 1.467 1.466 1.467h1.467c.81 0 1.467-.657 1.467-1.467v-2.934c0-.809-.657-1.466-1.467-1.466zm0 4.4H6.016v-2.934h1.467V23zm0-11.733H6.016c-.81 0-1.466.657-1.466 1.466v2.934c0 .81.657 1.467 1.466 1.467h1.467c.81 0 1.467-.657 1.467-1.467v-2.934c0-.81-.657-1.466-1.467-1.466zm0 4.4H6.016v-2.934h1.467v2.934zm0-11.733H6.016c-.809 0-1.466.656-1.466 1.466v2.934c0 .81.657 1.467 1.466 1.467h1.467c.81 0 1.467-.657 1.467-1.467V5.4c0-.81-.657-1.466-1.467-1.466zm0 4.399H6.016V5.4h1.467v2.933zm11.719.226c-.037.014-.067.036-.101.055-.023.014-.048.024-.071.039l.004.006a.82.82 0 0 0-.37.675c0 .461.374.836.836.836a.814.814 0 0 0 .496-.181 6.839 6.839 0 0 1 3.621-1.041c2.489 0 4.659 1.327 5.869 3.305a.834.834 0 0 0 1.608-.313.834.834 0 0 0-.246-.592c-1.505-2.419-4.172-4.041-7.231-4.041a8.48 8.48 0 0 0-4.415 1.252z"/></g></svg>