<svg xmlns="http://www.w3.org/2000/svg" width="160.518" height="101.641"><path d="M132.243 29.843A59.665 59.665 0 1 0 28.901 89.508c.334.577.679 1.144 1.029 1.707.168.336.344.671.535 1a18.845 18.845 0 1 0 32.64-18.845l-1.561-2.71a21.972 21.972 0 0 1 38.057-21.972l25.748 43.131a18.845 18.845 0 1 0 32.64-18.845L132.24 29.843z" data-name="Caminho 93" fill="#fff"/><path d="M111.345 29.843A59.665 59.665 0 1 0 8.003 89.508c.334.577.679 1.144 1.029 1.707.168.336.344.671.535 1a18.845 18.845 0 1 0 32.64-18.845l-1.561-2.71a21.972 21.972 0 0 1 38.057-21.972l25.748 43.131a18.845 18.845 0 1 0 32.64-18.845l-25.749-43.131z" data-name="Caminho 94" fill="#cf801d"/></svg>