<svg xmlns="http://www.w3.org/2000/svg" width="120" height="75.985"><path d="M98.862 22.309a44.603 44.603 0 1 0-77.256 44.6c.249.432.507.856.769 1.276.126.252.258.5.4.749a14.088 14.088 0 1 0 24.4-14.088l-1.167-2.026a16.426 16.426 0 0 1 28.45-16.426l19.25 32.248a14.088 14.088 0 1 0 24.4-14.088L98.862 22.309z" data-name="Caminho 197" fill="#050a26"/><path d="M83.239 22.309a44.603 44.603 0 0 0-77.256 44.6c.25.432.507.856.769 1.276.126.252.258.5.4.749a14.088 14.088 0 1 0 24.4-14.088l-1.167-2.026a16.426 16.426 0 0 1 28.451-16.426l19.25 32.248a14.088 14.088 0 1 0 24.4-14.088L83.239 22.309z" data-name="Caminho 198" fill="#c9801d"/></svg>