<svg xmlns="http://www.w3.org/2000/svg" width="99.359" height="127.618"><defs><style>.cls-2,.cls-3{fill-rule:evenodd}.cls-2{fill:#211915}.cls-3{fill:#fff}</style></defs><g id="PortoSeguro" transform="translate(-754.462 -3144.362)"><path id="Caminho_162" d="M768.2 3144.362h69.377a2.866 2.866 0 0 1 2.858 2.858v67.824a2.866 2.866 0 0 1-2.858 2.857H768.2a2.865 2.865 0 0 1-2.857-2.857v-67.824a2.865 2.865 0 0 1 2.857-2.858z" data-name="Caminho 162" fill-rule="evenodd" fill="#678dbe"/><path id="Caminho_163" d="M755.277 3228.257l10.563.1a5.848 5.848 0 0 1 5.9 5.865c.169 3.586-1.724 7.508-7.648 7.708h-3.544l-.049 7.086h-5.145l-.078-20.762zm5.272 3.988l.024 5.765c.85.063 3.088-.031 3.774-.04 3.442-.039 3.518-5.64.135-5.725z" class="cls-2" data-name="Caminho 163"/><path id="Caminho_164" d="M783.634 3228.111a11.02 11.02 0 1 1-11.386 11.015 11.206 11.206 0 0 1 11.386-11.015zm.024 4.134c3.967 0 6.068 3.082 6.068 6.881s-2 6.782-6.068 6.88-6.116-3.081-6.116-6.88 2.149-6.881 6.116-6.881z" class="cls-2" data-name="Caminho 164"/><path id="Caminho_165" d="M842.436 3227.626a11.02 11.02 0 1 1-11.386 11.013 11.205 11.205 0 0 1 11.386-11.013zm.024 4.132c3.968 0 6.069 3.082 6.069 6.881s-2 6.783-6.069 6.88-6.117-3.081-6.117-6.88 2.151-6.881 6.117-6.881z" class="cls-2" data-name="Caminho 165"/><path id="Caminho_166" d="M796.348 3228.209l10.563.1a5.856 5.856 0 0 1 5.9 5.88 6.223 6.223 0 0 1-3.4 6.268l.024.015 6.846 8.6-6.8-.05-5.544-7.608-2.323.016-.048 7.592h-5.147l-.075-20.81zm5.294 3.94v5.8c.85.063 3.089.039 3.774.032 3.444-.04 3.542-5.747.16-5.835z" class="cls-2" data-name="Caminho 166"/><path id="Caminho_167" d="M813.709 3228.233h18.205v4.473h-6.457v16.338h-5.243v-16.338h-6.505v-4.473z" class="cls-2" data-name="Caminho 167"/><path id="Caminho_168" d="M843.189 3253.381a9.279 9.279 0 1 1-9.585 9.274 9.438 9.438 0 0 1 9.585-9.274zm.021 3.48c3.341 0 5.111 2.594 5.111 5.794s-1.687 5.713-5.111 5.793-5.151-2.594-5.151-5.793 1.813-5.794 5.151-5.794z" class="cls-2" data-name="Caminho 168"/><path id="Caminho_169" d="M818.287 3253.494l9.276.087a5.142 5.142 0 0 1 5.182 5.164 5.464 5.464 0 0 1-2.984 5.507l.023.014 6.013 7.549-5.97-.043-4.874-6.683-2.037.015-.043 6.668h-4.52l-.066-18.278zm4.648 3.461v5.095c.749.057 2.715.037 3.315.031 3.026-.036 3.113-5.049.142-5.126z" class="cls-2" data-name="Caminho 169"/><path id="Caminho_170" d="M766.261 3258.4l1.7-3.525s-4.175-2.36-8.3-1.242-5.705 6.565-2.21 8.972 6.292 1.885 6.068 3.987c-.318 3.007-5.443 1.046-7.721.025l-1.333 3.647a14.484 14.484 0 0 0 5.9 1.677c3.812.366 7.488-1.726 7.622-5.446.226-6.255-9.49-4.9-7.73-8.541.769-1.588 3.726-.659 6.009.446z" class="cls-2" data-name="Caminho 170"/><path id="Caminho_171" d="M781.43 3253.926v3.841h-7.136v2.791h6.506v3.842h-6.505v3.128h7.671v3.841l-12.233.015v-17.458z" class="cls-2" data-name="Caminho 171"/><path id="Caminho_172" d="M796.918 3258.287c-5.984-2.483-9.8.748-10.176 4.13-.353 3.18 2.367 6.49 8.064 5.327l-.026-6.15h4.466l-.022 8.29c-7.354 4.62-17.044.5-16.806-7.063.328-10.231 11.684-10.564 16.15-7.986l-1.65 3.452z" class="cls-2" data-name="Caminho 172"/><path id="Caminho_173" d="M805.122 3253.545l-4.466-.049v10.795c-.091 5.078 4.039 7.533 8.179 7.521 4.157-.008 8.322-2.505 8.233-7.521V3253.5l-4.467.049-.025 10.527c.069 2.575-1.275 3.769-3.715 3.769s-3.784-1.194-3.715-3.769l-.024-10.527z" class="cls-2" data-name="Caminho 173"/><path id="Caminho_174" d="M769.5 3149.124c2.624-.125 34.488-1.255 52.777 16.761 0 0-14.52-10.9-47.263-6.067a50.81 50.81 0 0 0-5.514-10.694z" class="cls-3" data-name="Caminho 174"/><path id="Caminho_175" d="M830.774 3177.859c-9.895-11.193-41.934-5.71-51.812-2.969a80.233 80.233 0 0 0-2.431-10.648c7.143-1.091 47.931-6.4 54.243 13.617z" class="cls-3" data-name="Caminho 175"/><path id="Caminho_176" d="M779.629 3179.938c7.779-2.145 51.678-13.265 56.073 7.688-13.842-9.284-46.886 1.12-55.578 4.34a83.6 83.6 0 0 0-.181-8.482 105.358 105.358 0 0 0-.314-3.546z" class="cls-3" data-name="Caminho 176"/><path id="Caminho_177" d="M779.694 3197.794c18.726-7.763 77.029-22.385 51.5 10 5.507-10.218 2.341-11.546-5.141-11.139-14.295.778-43.775 13.317-51.023 16.872a43.507 43.507 0 0 0 4.664-15.73z" class="cls-3" data-name="Caminho 177"/></g></svg>