<svg xmlns="http://www.w3.org/2000/svg" xmlns:xlink="http://www.w3.org/1999/xlink" width="142.947" height="129.617"><defs><radialGradient id="b" cx="1156.025" cy="3808.963" r="21.223" gradientUnits="userSpaceOnUse"><stop offset="0" stop-color="#ffddd7"/><stop offset=".285" stop-color="#bfa971"/><stop offset=".602" stop-color="#9d8017"/><stop offset=".805" stop-color="#807119"/><stop offset="1" stop-color="#655212"/></radialGradient><radialGradient id="c" cx="1151.615" cy="3799.512" r="32.26" gradientUnits="userSpaceOnUse"><stop offset="0" stop-color="#ffddd7"/><stop offset=".35" stop-color="#bfa971"/><stop offset=".602" stop-color="#9d8017"/><stop offset=".805" stop-color="#807119"/><stop offset="1" stop-color="#655212"/></radialGradient><radialGradient id="a" cx="1829.812" cy="6275.162" r="37.717" gradientTransform="translate(-469.783 -1601.739) scale(1.648)" gradientUnits="userSpaceOnUse"><stop offset="0" stop-color="#cfd4d2"/><stop offset=".179" stop-color="#84a197"/><stop offset=".419" stop-color="#6b8080"/><stop offset=".602" stop-color="#41785d"/><stop offset=".805" stop-color="#2a5741"/><stop offset="1" stop-color="#194430"/></radialGradient><radialGradient id="d" cx="1735.474" cy="5907.319" r="40.001" gradientTransform="translate(-342.995 -1175.648) scale(1.554)" xlink:href="#a"/><radialGradient id="e" cx="1809.307" cy="6100.481" r="38.722" gradientTransform="translate(-400.312 -1402.368) scale(1.605)" xlink:href="#a"/></defs><path d="M33.821 32.526s3.443-3.679 12.943 5.739 17.353 19.04 17.353 19.04-11.561-44.153-4.644-41.1 12.484 9.833 12.484 9.833l5.2-13.382S65.178-2.081 57.701 2.056c0 0-12.922 9.147-10.889 19.383 0 0-9.074-8.857-11.9-.721-2.587 7.487-1.091 11.808-1.091 11.808z" data-name="Caminho 155" fill="#00422f"/><g data-name="Agrupar 127"><path d="M1156.025 3787.741a21.223 21.223 0 1 0 21.222 21.222 21.222 21.222 0 0 0-21.222-21.222z" data-name="Caminho 156" fill="url(#b)" transform="translate(-1063.8 -3782.922)"/><path d="M1156.025 3787.741a21.223 21.223 0 1 0 21.222 21.222 21.222 21.222 0 0 0-21.222-21.222z" data-name="Caminho 157" fill="url(#c)" transform="translate(-1063.8 -3782.922)"/></g><g data-name="Agrupar 128"><path d="M1114.193 3844.746c-5.967-10.565-11.474-22.278-13.766-31.427a42.062 42.062 0 0 1-1.238-10.473 41.052 41.052 0 0 0-5.859 21.2c0 .154 0 .307.005.46 2.4 9.042 7.687 23.306 18.737 34.11a41.124 41.124 0 0 0 8.237 4.142l6.005 1.707a41.309 41.309 0 0 0 4.823.684c-3.493-2.28-9.809-7.768-16.944-20.403z" data-name="Caminho 158" fill="url(#a)" transform="translate(-1063.8 -3782.922)"/><path d="M1151.38 3851.708c-4.188-4.754-11.955-14.412-16.8-24.316-4.584-9.364-16.141-32.346-11.744-42.9a41.124 41.124 0 0 0-13.813 7.172 16.983 16.983 0 0 0-.1 8.879c1.672 7.642 9.616 32.193 20.922 46.854 4.513 5.852 9.321 12.175 13.43 14.919a12.477 12.477 0 0 0 2.7 1.375 41.114 41.114 0 0 0 13.39-6.682 20.1 20.1 0 0 1-2.337-.937 18.737 18.737 0 0 1-5.648-4.364z" data-name="Caminho 159" fill="url(#d)" transform="translate(-1063.8 -3782.922)"/><path d="M1170.99 3830.186c-3.6-3.294-12.874-15.9-15.584-23.352-1.922-5.286-4.451-11.848-4.264-16.09.036-.822.189-1.938.779-2.277a3.866 3.866 0 0 1 1.55-.59 1.529 1.529 0 0 1 .438-.032 43.579 43.579 0 0 0-16.106-4.923c-1.078 1.564-1.811 4.595-.207 10.458 3.1 11.324 9.827 32.852 25.047 47.932 0 0 3.214 3.936 7.524 3.587a40.977 40.977 0 0 0 5.123-14.22 3.843 3.843 0 0 1-4.3-.493z" data-name="Caminho 160" fill="url(#e)" transform="translate(-1063.8 -3782.922)"/></g><path d="M10.433 95.448h-.082l-.024.011a2.1 2.1 0 0 1-.858.128H1.646l-.2-.027a1.934 1.934 0 0 1-.5-.1l-.02-.009H.762l-.754 2.575h.253l.031-.028a3.288 3.288 0 0 1 2.264-.761h1.617v9.263c0 .807-.072 1.759-.8 2.037l-.072.026v.248h4.117v-.235l-.055-.032c-.952-.557-.967-1.25-.967-2.289v-9.019h1.657c.616 0 1.35.081 1.585.717l.028.072h.222l.69-2.575zm-5.717 23.865c0 2.33 2.039 3.245 3.836 4.054 1.5.675 2.922 1.312 2.922 2.656 0 1.262-1.563 1.934-2.69 1.934a6.64 6.64 0 0 1-4.224-1.611l-.277-.239.667 2.887.06.023a10.245 10.245 0 0 0 3.558.6c2.969 0 5.383-1.887 5.383-4.206 0-2.04-2.033-2.973-3.827-3.8-1.507-.691-2.93-1.344-2.93-2.517 0-1.238 1.3-1.677 2.414-1.677a4.353 4.353 0 0 1 3 1.207l.205.21v-2.612l-.084-.026a9.9 9.9 0 0 0-2.962-.439c-2.329 0-5.05.93-5.05 3.553zm95.618 3.157a4.759 4.759 0 0 1 4.87-5.07c3.125 0 4.813 2.857 4.813 5.545a4.685 4.685 0 0 1-4.774 5.012c-3.031 0-4.909-2.848-4.909-5.487zm-.424-4.631a6.7 6.7 0 0 0-2.053 4.809 6.978 6.978 0 0 0 7.29 6.969 7.135 7.135 0 0 0 7.347-7.068 6.676 6.676 0 0 0-1.982-4.747 7.181 7.181 0 0 0-5.17-2.062 7.417 7.417 0 0 0-5.432 2.1zm-11.541-.1c3.328 0 5.086 1.754 5.086 5.071 0 3.565-2.8 4.834-5.42 4.834a6.925 6.925 0 0 1-1.315-.121v-9.586a7.551 7.551 0 0 1 1.649-.2zm-4.637-1.66h-.118v.269l.086.026c.809.239.794 1.343.781 2.23v8.079c.009.993.017 1.775-.814 2.345l-.053.035v.242h4.833c4.409 0 7.485-2.767 7.485-6.731 0-4.006-2.829-6.494-7.386-6.494zm48.426 2.127c.188.489 1.64 4.237 1.751 4.524h-3.521l1.77-4.524zm1.3-2.127h-3.222v.267l.083.027a.711.711 0 0 1 .467.342c.15.316-.042.807-.21 1.237l-.038.1-3.278 8.228-.108.282a4.519 4.519 0 0 1-1.365 2.227 13.314 13.314 0 0 1-2.706-2.441s-2.206-2.786-2.718-3.435a3.9 3.9 0 0 0 3.04-3.536c0-2-1.644-3.3-4.185-3.3h-4.8v.262l.078.03c.819.306.8 1.418.791 2.312l-.005.3v7.439l.005.294c.01.846.028 2.008-.788 2.3l-.081.029v.264h3.99v-.264l-.079-.029c-.738-.259-.808-1.218-.808-2.029v-9.3a9.918 9.918 0 0 1 1.223-.142 2.46 2.46 0 0 1 1.815.633 1.942 1.942 0 0 1 .595 1.438c0 1.92-2.066 2.518-3.3 2.7l-.181.027 1.906 2.939 2.4 2.99a2.679 2.679 0 0 0 2.371 1.031h4.833v-.262l-.077-.028c-.451-.172-.63-.385-.63-.728a3.767 3.767 0 0 1 .306-1.15s.854-2.322.994-2.707h4.784c.057.146 1.031 2.707 1.031 2.707l.094.24a3.7 3.7 0 0 1 .324 1.053c0 .268-.186.387-.63.587l-.07.033v.255h4.266v-.253l-.066-.033a4.089 4.089 0 0 1-1.756-2.454l-.113-.286-4.115-10.2zm-58.36 2.127c.19.489 1.641 4.237 1.75 4.524h-3.519l1.769-4.524zm1.3-2.127h-3.224v.267l.086.027a.7.7 0 0 1 .464.342c.151.316-.04.807-.208 1.237l-.037.1-3.281 8.228-.1.282a4.538 4.538 0 0 1-1.367 2.227 13.3 13.3 0 0 1-2.7-2.441s-2.209-2.786-2.721-3.435a3.9 3.9 0 0 0 3.04-3.536c0-2-1.641-3.3-4.185-3.3h-4.793v.262l.077.03c.821.306.8 1.418.79 2.312v8.033c.013.846.031 2.008-.788 2.3l-.079.029v.264h3.99v-.264l-.079-.029c-.738-.259-.81-1.218-.81-2.029v-9.307a9.909 9.909 0 0 1 1.221-.142 2.46 2.46 0 0 1 1.815.633 1.941 1.941 0 0 1 .595 1.438c0 1.92-2.066 2.518-3.3 2.7l-.184.027 1.908 2.939 2.4 2.99a2.684 2.684 0 0 0 2.372 1.031h4.833v-.262l-.077-.028c-.453-.172-.63-.385-.63-.728a3.707 3.707 0 0 1 .306-1.15l.994-2.707h4.785c.054.146 1.031 2.707 1.031 2.707l.094.24a3.7 3.7 0 0 1 .324 1.053c0 .268-.186.387-.631.587l-.07.033v.255h4.266v-.253l-.066-.033a4.088 4.088 0 0 1-1.755-2.454l-.114-.286-4.114-10.2zm-22.047 0h-3.852v.262l.077.029c.814.311.8 1.477.79 2.33v6.292a2.374 2.374 0 0 1-.39 1.636 3.337 3.337 0 0 1-2.771 1.333c-2.022 0-3.005-1.221-3.005-3.73V118.7c-.008-.853-.021-2.019.791-2.33l.077-.029v-.263h-3.971v.262l.079.03c.819.306.8 1.457.788 2.3v5.71c0 1.379 0 2.681 1.034 3.82a4.9 4.9 0 0 0 3.644 1.421 5.2 5.2 0 0 0 3.73-1.43v1.113h3.125v-.262l-.076-.028c-.832-.312-.819-1.482-.808-2.335v-7.965c-.011-.86-.024-2.036.808-2.347l.107-.041-.083-.251zm-27.531 6.692c0 4.16 3.185 6.85 8.113 6.85a24.524 24.524 0 0 0 4.609-.575l.254-.048-.058-.136a1.854 1.854 0 0 1-.089-.73v-4.654a2.243 2.243 0 0 1 .09-.8l.009-.021v-.2H36.5v.259l.075.031c.768.309.828 1.106.828 2.118v2.746a9.819 9.819 0 0 1-2.611.353 5.425 5.425 0 0 1-5.5-5.467 4.956 4.956 0 0 1 5.283-5.07 4.821 4.821 0 0 1 3.408 1.144l.035.04h.232v-2.487l-.094-.02a14.9 14.9 0 0 0-3.109-.337c-4.924 0-8.232 2.815-8.232 7.007zm-3.238-6.791h-.089l-.026.016a1.421 1.421 0 0 1-.681.085h-6.592v.262l.078.03c.831.311.818 1.487.809 2.347v7.963c.01.86.022 2.038-.806 2.33l-.081.029v.264h8.4l.965-2.823h-.271l-.034.028a4.769 4.769 0 0 1-3.544 1.135s-2.189-.207-2.386-.227v-4.448h1.393c.586 0 1.314 0 1.585.491l.034.062h.248v-2.333h-.206l-.025.014a1.949 1.949 0 0 1-.811.1h-2.218v-3.443a11.265 11.265 0 0 1 1.884-.126 2.651 2.651 0 0 1 2.228.748l.036.042h.231v-2.548zm117.405-20.486h-.085l-.027.013a1.45 1.45 0 0 1-.685.088h-6.593v.251l.078.026c.835.312.822 1.5.814 2.357l-.005.264v7.449l.005.259c.008.864.021 2.045-.814 2.342l-.078.026v.251h8.394l.963-2.813h-.258l-.03.027a4.81 4.81 0 0 1-3.557 1.141s-2.209-.213-2.4-.229v-4.466h1.4c.588 0 1.319 0 1.591.495l.032.057h.239v-2.32h-.2l-.022.011a1.9 1.9 0 0 1-.817.11h-2.228v-3.466a11.6 11.6 0 0 1 1.894-.123 2.665 2.665 0 0 1 2.234.748l.036.042h.223v-2.536zm-9.99.1h-3.572v.237l.057.033c.948.539.965 1.23.965 2.27v7.286l-7-8.874-.271-.392a1.084 1.084 0 0 1-.28-.465l-.027-.075-.081-.02H117.8v.237l.055.031c.97.561.97 1.291.97 2.393v7.883c0 1.1 0 1.831-.99 2.411l-.054.032v.235h3.7v-.235l-.057-.032c-.948-.557-.966-1.25-.966-2.292v-7.44l6.545 8.337a5.521 5.521 0 0 0 2.922 2.291l.151.051V98.248c0-1.1 0-1.832.965-2.393l.055-.031v-.237zm-16.247 0h-3.85v.249l.072.028c.825.308.81 1.425.8 2.32l-.005.3v7.446l.005.263c.008.863.022 2.045-.8 2.341l-.074.026v.248h3.959v-.248l-.07-.026c-.818-.312-.806-1.485-.8-2.341v-7.971c-.01-.864-.022-2.047.8-2.359l.07-.028v-.249zm-16.64 0h-.115v.249l.073.028c.825.308.807 1.425.794 2.32v8.041c.013.851.031 2.013-.792 2.309l-.075.024v.25h3.98v-.25l-.072-.024c-.745-.264-.815-1.227-.815-2.041v-9.322a10 10 0 0 1 1.231-.143 2.46 2.46 0 0 1 1.822.636 1.946 1.946 0 0 1 .6 1.444c0 1.927-2.073 2.529-3.309 2.714l-.171.026 1.9 2.932c.007.011 2.406 2.992 2.406 2.992a2.671 2.671 0 0 0 2.368 1.029h2.2l-.329-.207a13.575 13.575 0 0 1-3.16-2.741s-2.228-2.817-2.728-3.446a3.9 3.9 0 0 0 3.049-3.534c0-2-1.641-3.294-4.182-3.294zm-8.543 2.1c.177.466 1.656 4.286 1.764 4.557h-3.546c.1-.271 1.6-4.093 1.782-4.557zm1.3-2.1H87.65v.253l.077.028a.711.711 0 0 1 .47.344c.153.321-.041.811-.21 1.246l-.035.1-3.285 8.238-.108.279a3.942 3.942 0 0 1-1.746 2.467l-.062.029v.241h3.844v-.248l-.074-.026a.941.941 0 0 1-.58-.444.651.651 0 0 1-.057-.286 3.873 3.873 0 0 1 .308-1.161s.841-2.287 1-2.714h4.8l1.032 2.714.092.239a3.631 3.631 0 0 1 .324 1.054c0 .272-.183.4-.632.6l-.066.031v.241h4.255v-.237l-.061-.033a4.1 4.1 0 0 1-1.762-2.461l-.112-.285-4.119-10.206zm-10.514 0h-3.515v.132a3.374 3.374 0 0 1-.289 1.185l-3.165 8.119c-.2-.477-3.59-8.458-3.59-8.458l-.057-.133a1.824 1.824 0 0 1-.207-.713v-.112l-.112-.02h-3.552v.239l.056.031c.758.414.662 1.029.576 1.575l-.024.147-1.118 8.279-.018.1a3.839 3.839 0 0 1-1.048 2.595l-.037.034v.22h3.429v-.241l-.068-.031a1.129 1.129 0 0 1-.676-1.19 8.565 8.565 0 0 1 .1-1.1s.978-7.426 1.077-8.169c.3.7 3.574 8.527 3.574 8.527a4.925 4.925 0 0 0 1.769 2.437l.118.09 4.3-11.041c.094.811 1.069 9.076 1.069 9.076 0 .674-.127 1.171-.729 1.363l-.079.024v.252h4.016v-.228l-.046-.035a2.252 2.252 0 0 1-.956-1.937l-1.3-9.7c0-.2.039-.9.529-1.043l.083-.026v-.255zm-31.954 6.4a4.772 4.772 0 0 1 4.884-5.084c3.134 0 4.824 2.865 4.824 5.558a4.7 4.7 0 0 1-4.785 5.023c-3.041 0-4.923-2.854-4.923-5.5zm-.413-4.634a6.718 6.718 0 0 0-2.051 4.81 6.979 6.979 0 0 0 7.291 6.971 7.136 7.136 0 0 0 7.345-7.068 6.672 6.672 0 0 0-1.981-4.748 7.2 7.2 0 0 0-5.17-2.065 7.452 7.452 0 0 0-5.434 2.1zm-4.137-1.761h-3.848v.249l.073.028c.827.308.812 1.425.794 2.32v8.009c.011.863.024 2.045-.792 2.341l-.075.026v.248h3.96v-.248l-.073-.026c-.816-.312-.8-1.485-.794-2.341v-7.971c-.009-.864-.022-2.047.794-2.359l.073-.028v-.249zm-12.486 0h-3.886v.249l.073.028c.836.312.823 1.484.814 2.344v7.965c.009.864.022 2.047-.814 2.362l-.073.026v.248h4v-.248l-.073-.026c-.836-.315-.824-1.5-.814-2.358V98.22c-.01-.864-.022-2.047.811-2.344l.076-.026v-.251zm2.46 0h-.111v.244l.065.029a.82.82 0 0 1 .512.5c.12.468-.364 1.121-.789 1.693l-.28.388v-.005l-2.627 3.505 4.417 5.973a3 3 0 0 0 2.3.894h1.961v-.241l-.066-.031a6.109 6.109 0 0 1-2.318-1.823l-3.913-5.165 4.6-5.942-.23-.02zm-20.484 6.4a4.772 4.772 0 0 1 4.883-5.084c3.132 0 4.826 2.865 4.826 5.558a4.7 4.7 0 0 1-4.786 5.023c-3.041 0-4.923-2.854-4.923-5.5zm-.412-4.634a6.713 6.713 0 0 0-2.054 4.81 6.98 6.98 0 0 0 7.29 6.971 7.137 7.137 0 0 0 7.35-7.068 6.674 6.674 0 0 0-1.983-4.748 7.2 7.2 0 0 0-5.169-2.065 7.447 7.447 0 0 0-5.434 2.1z" data-name="Caminho 161" fill="#211915" fill-rule="evenodd"/></svg>