<svg xmlns="http://www.w3.org/2000/svg" width="45" height="45" viewBox="0 0 45 45"><g transform="translate(-252.247 -1037.788)"><rect width="44" height="44" rx="1.385" transform="translate(252.747 1038.288)" fill="none" stroke="#050a26" stroke-miterlimit="10" stroke-width="1"/><path d="M273.581,1070.319a.745.745,0,0,1-.308-.682v-7.875h-5.94a.776.776,0,0,1-.638-.242,1.489,1.489,0,0,1-.2-.9v-.309c0-1,.278-1.5.836-1.5h5.94v-7.875a.745.745,0,0,1,.308-.681,1.933,1.933,0,0,1,1.012-.2h.308a1.933,1.933,0,0,1,1.012.2.745.745,0,0,1,.308.681v7.875H282.2a.652.652,0,0,1,.616.309,2.155,2.155,0,0,1,.176,1.011v.309a2.156,2.156,0,0,1-.176,1.012.651.651,0,0,1-.616.308h-5.984v7.875a.759.759,0,0,1-.308.661,1.79,1.79,0,0,1-1.012.22h-.308A1.933,1.933,0,0,1,273.581,1070.319Z"/></g></svg>