<?xml version="1.0" encoding="utf-8"?>
<!-- Generator: Adobe Illustrator 17.0.0, SVG Export Plug-In . SVG Version: 6.00 Build 0)  -->
<!DOCTYPE svg PUBLIC "-//W3C//DTD SVG 1.1//EN" "http://www.w3.org/Graphics/SVG/1.1/DTD/svg11.dtd">
<svg version="1.1" id="Camada_1" xmlns="http://www.w3.org/2000/svg" xmlns:xlink="http://www.w3.org/1999/xlink" x="0px" y="0px"
	 width="45px" height="45px" viewBox="0 0 45 45" enable-background="new 0 0 45 45" xml:space="preserve">
<g>
	<path fill="#C9801D" d="M44.55,19.987L42,18.871v-2.003c0.003-0.465-0.212-0.903-0.582-1.184L21.46,0.158
		c-0.271-0.211-0.65-0.211-0.921,0L13.5,5.634V3.75c0-0.829-0.671-1.5-1.5-1.5H7.5C6.672,2.25,6,2.921,6,3.75v7.718l-5.411,4.207
		C0.215,15.957-0.003,16.399,0,16.868v4.102c0,0.828,0.671,1.5,1.5,1.5c0.333,0,0.657-0.113,0.917-0.321l2.082-1.62V42.75
		C4.5,43.992,5.507,45,6.75,45H33c0.289,0,0.57-0.091,0.805-0.261l7.774-5.608c2.145-1.551,3.417-4.035,3.421-6.681V20.675
		C45,20.377,44.823,20.107,44.55,19.987L44.55,19.987z M7.5,3.75H12v3.051l-4.5,3.5V3.75z M1.5,20.97v-4.102l4.2-3.266l0.011-0.005
		L21,1.7l15.29,11.897c0.005,0,0.012,0.005,0.017,0.009l4.194,3.262v1.35l-7.2-3.15c-0.137-0.055-0.288-0.067-0.433-0.035
		L21.46,6.157c-0.271-0.211-0.65-0.211-0.921,0L1.5,20.97z M6,42.75V19.362L21,7.7l10.275,7.987l-9.825,4.3
		C21.177,20.107,21,20.376,21,20.674V27h-5.25c-1.242,0-2.25,1.008-2.25,2.25V43.5H6.75C6.336,43.5,6,43.164,6,42.75L6,42.75z
		 M15,43.5V29.25c0-0.414,0.336-0.75,0.75-0.75H21v3.951c0.004,2.646,1.276,5.131,3.421,6.681L27,40.992V43.5H15z M30.476,43.5H28.5
		v-1.425L30.476,43.5z M43.5,32.45c-0.003,2.164-1.044,4.196-2.797,5.464L33,43.47l-7.703-5.556c-1.754-1.268-2.794-3.3-2.797-5.464
		V21.165L33,16.569l10.5,4.596V32.45z M43.5,32.45"/>
	<path fill="#C9801D" d="M32.7,18.337l-8.25,3.612C24.177,22.069,24,22.338,24,22.636v9.814c0.002,1.683,0.811,3.262,2.175,4.248
		l6.386,4.607c0.262,0.189,0.616,0.189,0.878,0l6.386-4.607c1.364-0.986,2.173-2.565,2.175-4.247v-9.814
		c0-0.298-0.177-0.568-0.45-0.687l-8.25-3.612C33.109,18.254,32.891,18.254,32.7,18.337L32.7,18.337z M40.5,23.126v9.324
		c-0.002,1.201-0.579,2.328-1.553,3.03L33,39.772l-5.948-4.29c-0.973-0.704-1.55-1.831-1.552-3.031v-9.324l7.5-3.283L40.5,23.126z
		 M40.5,23.126"/>
	<path fill="#C9801D" d="M29.002,30.492c-0.198-0.185-0.481-0.249-0.74-0.167c-0.259,0.082-0.453,0.298-0.508,0.564
		c-0.054,0.266,0.039,0.541,0.244,0.718l3,2.7c0.138,0.124,0.316,0.193,0.502,0.193c0.031,0,0.063-0.002,0.094-0.006
		c0.216-0.027,0.409-0.146,0.53-0.328l6-9c0.149-0.223,0.167-0.509,0.049-0.749c-0.118-0.24-0.357-0.399-0.624-0.416
		c-0.267-0.017-0.524,0.109-0.672,0.332l-5.518,8.279L29.002,30.492z M29.002,30.492"/>
</g>
</svg>
