<?xml version="1.0" encoding="utf-8"?>
<!-- Generator: Adobe Illustrator 17.0.0, SVG Export Plug-In . SVG Version: 6.00 Build 0)  -->
<!DOCTYPE svg PUBLIC "-//W3C//DTD SVG 1.1//EN" "http://www.w3.org/Graphics/SVG/1.1/DTD/svg11.dtd">
<svg version="1.1" id="Camada_1" xmlns="http://www.w3.org/2000/svg" xmlns:xlink="http://www.w3.org/1999/xlink" x="0px" y="0px"
	 width="45px" height="45px" viewBox="0 0 45 45" enable-background="new 0 0 45 45" xml:space="preserve">
<g>
	<path fill="#C9801D" d="M44.551,4.597l-10.5-4.536c-0.189-0.082-0.404-0.082-0.594,0l-10.5,4.536
		c-0.274,0.119-0.45,0.39-0.45,0.688v6.334c-1.179,0.823-2.198,1.855-3.004,3.046c-1.995-3.051-5.387-4.896-9.032-4.915
		c-6.458,0-10.47,4.328-10.47,11.295c-0.042,2.33,0.494,4.633,1.561,6.705H0.751c-0.414,0-0.75,0.336-0.75,0.75
		s0.336,0.75,0.75,0.75h1.736c1.021,1.382,2.179,2.656,3.458,3.804c0.422,0.4,0.833,0.789,1.216,1.177
		c2.765,2.803,11.481,10.275,11.85,10.589c0.281,0.24,0.694,0.24,0.975,0c0.37-0.317,9.086-7.786,11.85-10.589
		c0.383-0.389,0.794-0.778,1.216-1.177c1.393-1.231,2.637-2.621,3.706-4.142c0.869-1.314,1.494-2.775,1.842-4.312l3.183-2.266
		c2.01-1.427,3.208-3.737,3.217-6.203V5.286C45.002,4.987,44.825,4.717,44.551,4.597L44.551,4.597z M1.501,21.045
		c0-6.134,3.353-9.795,8.97-9.795c5.617,0,8.093,4.676,8.355,5.209c0.127,0.256,0.389,0.418,0.675,0.416
		c0.284,0,0.544-0.161,0.672-0.415c0.587-1.116,1.377-2.113,2.329-2.941v2.612c0.008,2.466,1.206,4.777,3.217,6.204l0.702,0.5
		l-1.476,4.914h-2.443c-0.284,0-0.544,0.16-0.671,0.415l-1.142,2.285l-1.193-9.543c-0.044-0.352-0.328-0.624-0.682-0.654
		c-0.353-0.029-0.679,0.192-0.781,0.532l-2.089,6.965h-2.442c-0.236,0-0.458,0.111-0.6,0.3l-1.18,1.575l-1.229-7.987
		c-0.054-0.341-0.333-0.602-0.678-0.632C9.47,20.977,9.15,21.187,9.04,21.515l-2.08,6.236H3.286
		C2.066,25.73,1.447,23.404,1.501,21.045L1.501,21.045z M35.51,28.088c-1.006,1.425-2.175,2.726-3.484,3.878
		c-0.436,0.411-0.859,0.813-1.253,1.213c-2.353,2.383-9.357,8.435-11.272,10.083c-1.914-1.65-8.919-7.7-11.271-10.083
		c-0.395-0.401-0.818-0.802-1.253-1.213C6.045,31.117,5.17,30.21,4.355,29.25h3.146c0.323,0,0.609-0.207,0.711-0.513l1.27-3.807
		l1.028,6.684c0.046,0.298,0.266,0.54,0.559,0.613c0.293,0.074,0.601-0.036,0.782-0.277l2.025-2.7h2.625
		c0.331,0,0.623-0.217,0.718-0.535l1.232-4.094l1.059,8.475c0.041,0.328,0.292,0.591,0.617,0.647
		c0.041,0.005,0.082,0.008,0.124,0.007c0.284,0,0.544-0.161,0.671-0.415l2.043-4.085h2.537c0.331,0,0.623-0.217,0.718-0.534
		l1.251-4.162l1.037,7.794c0.042,0.316,0.279,0.57,0.591,0.635c0.312,0.065,0.631-0.075,0.795-0.348l2.25-3.75
		c0.144-0.23,0.152-0.52,0.022-0.758c-0.13-0.238-0.379-0.387-0.65-0.39c-0.271-0.003-0.523,0.14-0.658,0.375l-1.147,1.911
		L29,24.675l3.975,2.83c0.465,0.331,1.088,0.331,1.553,0l2.062-1.468C36.298,26.755,35.936,27.442,35.51,28.088L35.51,28.088z
		 M43.501,16.132c-0.007,1.981-0.97,3.837-2.587,4.982l-7.163,5.1l-7.163-5.1c-1.616-1.146-2.58-3.001-2.587-4.982V5.779l9.75-4.212
		l9.75,4.212V16.132z M43.501,16.132"/>
	<path fill="#C9801D" d="M33.451,3.33l-7.5,3.24c-0.274,0.119-0.45,0.39-0.45,0.688v8.874c0.007,1.496,0.736,2.895,1.956,3.76
		l5.859,4.171c0.261,0.185,0.609,0.185,0.87,0l5.859-4.17c1.221-0.864,1.949-2.265,1.956-3.761V7.258
		c0-0.299-0.176-0.569-0.45-0.688l-7.5-3.24C33.86,3.246,33.643,3.246,33.451,3.33L33.451,3.33z M40.501,7.754v8.378
		c-0.007,1.011-0.501,1.957-1.327,2.539l-5.423,3.861l-5.423-3.861c-0.826-0.582-1.32-1.528-1.327-2.539V7.751l6.75-2.916
		L40.501,7.754z M40.501,7.754"/>
	<path fill="#C9801D" d="M29.701,14.4c-0.215-0.161-0.498-0.195-0.745-0.09c-0.246,0.105-0.418,0.334-0.45,0.6
		c-0.032,0.266,0.08,0.529,0.295,0.69l3,2.25c0.324,0.243,0.783,0.185,1.036-0.131l6-7.5c0.255-0.324,0.202-0.793-0.12-1.051
		c-0.322-0.257-0.791-0.206-1.051,0.114l-5.55,6.932L29.701,14.4z M29.701,14.4"/>
</g>
</svg>
