<?xml version="1.0" encoding="utf-8"?>
<!-- Generator: Adobe Illustrator 17.0.0, SVG Export Plug-In . SVG Version: 6.00 Build 0)  -->
<!DOCTYPE svg PUBLIC "-//W3C//DTD SVG 1.1//EN" "http://www.w3.org/Graphics/SVG/1.1/DTD/svg11.dtd">
<svg version="1.1" id="Camada_1" xmlns="http://www.w3.org/2000/svg" xmlns:xlink="http://www.w3.org/1999/xlink" x="0px" y="0px"
	 width="45px" height="45px" viewBox="0 0 45 45" enable-background="new 0 0 45 45" xml:space="preserve">
<g>
	<path fill="#161C49" d="M0.45,4.594C0.176,4.714,0,4.984,0,5.283l0,10.846c0.008,2.466,1.206,4.777,3.217,6.204L4.5,23.247v12
		c0,0.201,0.081,0.394,0.225,0.535c-0.147,0.301-0.224,0.631-0.225,0.966c0,1.242,1.008,2.25,2.25,2.25H9.26
		c-0.663,1.865-0.028,3.945,1.562,5.122c1.591,1.178,3.765,1.178,5.356,0c1.591-1.178,2.225-3.257,1.563-5.122H31.76
		c-0.663,1.865-0.028,3.945,1.562,5.122c1.591,1.178,3.765,1.178,5.356,0c1.591-1.178,2.225-3.257,1.563-5.122h2.509
		c0.889,0.004,1.696-0.519,2.057-1.331c0.361-0.813,0.207-1.762-0.392-2.419c0.374-0.41,0.583-0.945,0.585-1.5v-4.676
		c0-0.502-0.126-0.996-0.366-1.436l-3.586-6.574c-0.526-0.964-1.536-1.563-2.634-1.563H33v-7.5c0-0.828-0.672-1.5-1.5-1.5h-9.006
		V5.283c0-0.299-0.176-0.569-0.45-0.688l-10.5-4.536c-0.189-0.082-0.405-0.082-0.594,0L0.45,4.594L0.45,4.594z M33,20.997h3v6.75
		c0,1.242,1.008,2.25,2.25,2.25h2.25v1.5c0,0.829,0.671,1.5,1.5,1.5h1.5v0.75c0,0.414-0.336,0.75-0.75,0.75H33V20.997z M43.5,29.997
		v1.5H42v-1.5H43.5z M43.317,28.353c0.021,0.047,0.04,0.095,0.056,0.144H38.25c-0.414,0-0.75-0.336-0.75-0.75v-6.75h0.914
		c0.549,0,1.054,0.3,1.317,0.781L43.317,28.353z M33,40.497c0-0.528,0.141-1.046,0.408-1.5h5.184c0.267,0.455,0.408,0.972,0.408,1.5
		c0,1.657-1.343,3-3,3C34.343,43.497,33,42.154,33,40.497L33,40.497z M10.5,40.497c0-0.528,0.141-1.046,0.408-1.5h5.184
		c0.267,0.455,0.408,0.972,0.408,1.5c0,1.657-1.343,3-3,3C11.843,43.497,10.5,42.154,10.5,40.497L10.5,40.497z M6.75,37.497
		c-0.414,0-0.75-0.336-0.75-0.75c0-0.414,0.336-0.75,0.75-0.75h36c0.414,0,0.75,0.336,0.75,0.75c0,0.414-0.336,0.75-0.75,0.75H6.75
		L6.75,37.497z M6,28.21l1.5,0.75v2.073L6,31.784V28.21z M6,24.315l4.474,3.185c0.465,0.33,1.088,0.33,1.553,0l7.257-5.167
		c2.011-1.427,3.209-3.738,3.217-6.204v-4.132h9v22.5H6v-1.036l2.585-1.289C8.841,32.044,9.001,31.783,9,31.497v-3
		c0.001-0.286-0.159-0.547-0.415-0.675L6,26.534V24.315z M1.5,5.776l9.75-4.212L21,5.776v10.353
		c-0.007,1.981-0.971,3.836-2.587,4.982l-7.163,5.1l-7.163-5.1c-1.616-1.146-2.58-3.001-2.587-4.982V5.776z M1.5,16.129"/>
	<path fill="#161C49" d="M11.55,3.327c-0.191-0.084-0.408-0.084-0.6,0l-7.5,3.24C3.176,6.686,3,6.956,3,7.255v8.874
		c0.007,1.496,0.735,2.896,1.956,3.761l5.859,4.17c0.261,0.185,0.609,0.185,0.87,0l5.859-4.171c1.221-0.864,1.949-2.265,1.956-3.76
		V7.255c0-0.299-0.176-0.569-0.45-0.688L11.55,3.327L11.55,3.327z M11.25,4.832L18,7.748v8.381
		c-0.007,1.011-0.501,1.957-1.327,2.539l-5.423,3.861l-5.423-3.861c-0.826-0.582-1.32-1.528-1.327-2.539V7.751L11.25,4.832z
		 M4.5,7.751"/>
	<path fill="#161C49" d="M7.975,14.397c-0.215-0.161-0.498-0.195-0.745-0.09c-0.246,0.105-0.418,0.334-0.45,0.6
		c-0.032,0.266,0.08,0.529,0.295,0.69l3,2.25c0.324,0.243,0.783,0.185,1.036-0.131l6-7.5c0.255-0.324,0.202-0.793-0.12-1.051
		c-0.322-0.257-0.791-0.206-1.051,0.114l-5.546,6.932L7.975,14.397z M7.975,14.397"/>
	<path fill="#161C49" d="M35.25,40.497c0-0.414,0.336-0.75,0.75-0.75c0.414,0,0.75,0.336,0.75,0.75c0,0.414-0.336,0.75-0.75,0.75
		C35.585,41.247,35.25,40.911,35.25,40.497L35.25,40.497z M35.25,40.497"/>
	<path fill="#161C49" d="M12.75,40.497c0-0.414,0.336-0.75,0.75-0.75s0.75,0.336,0.75,0.75c0,0.414-0.336,0.75-0.75,0.75
		S12.75,40.911,12.75,40.497L12.75,40.497z M12.75,40.497"/>
</g>
</svg>
