<?xml version="1.0" encoding="utf-8"?>
<!-- Generator: Adobe Illustrator 17.0.0, SVG Export Plug-In . SVG Version: 6.00 Build 0)  -->
<!DOCTYPE svg PUBLIC "-//W3C//DTD SVG 1.1//EN" "http://www.w3.org/Graphics/SVG/1.1/DTD/svg11.dtd">
<svg version="1.1" id="Camada_1" xmlns="http://www.w3.org/2000/svg" xmlns:xlink="http://www.w3.org/1999/xlink" x="0px" y="0px"
	 width="45px" height="45px" viewBox="0 0 45 45" enable-background="new 0 0 45 45" xml:space="preserve">
<g>
	<path fill="#C9801D" d="M33.717,31.129l-1.901-0.668c-0.416-0.138-0.701-0.282-0.854-0.43c-0.154-0.149-0.23-0.391-0.23-0.728
		c0-0.416,0.099-0.676,0.297-0.78c0.198-0.104,0.589-0.156,1.173-0.156c1.257,0,2.317,0.015,3.178,0.044l0.134-1.544
		c-0.564-0.158-1.203-0.272-1.916-0.341l0.148-1.396h-1.648l-0.134,1.336c-0.861,0.01-1.532,0.092-2.012,0.245
		c-0.48,0.154-0.842,0.436-1.084,0.846c-0.243,0.411-0.364,0.992-0.364,1.745c0,0.772,0.161,1.396,0.483,1.871
		c0.322,0.475,0.859,0.852,1.611,1.129l2.02,0.728c0.376,0.119,0.634,0.25,0.772,0.394c0.138,0.143,0.208,0.389,0.208,0.735
		c0,0.386-0.102,0.641-0.305,0.765c-0.203,0.124-0.601,0.186-1.195,0.186c-0.574,0-1.688-0.02-3.341-0.059l-0.148,1.663
		c0.802,0.169,1.544,0.277,2.227,0.327l-0.148,1.648h1.648l0.149-1.604c1.247-0.02,2.121-0.243,2.621-0.668
		c0.5-0.425,0.75-1.183,0.75-2.272c0-0.772-0.161-1.398-0.483-1.878C35.051,31.785,34.499,31.406,33.717,31.129z"/>
	<path fill="#C9801D" d="M44.98,31.909c0-3.703-1.582-7.03-4.096-9.367c0.8-0.032,1.44-0.686,1.44-1.494v-2.162v-1.941v-0.063
		c0.003-0.465-0.212-0.903-0.582-1.184L21.785,0.174c-0.271-0.211-0.65-0.211-0.921,0l-7.04,5.476V3.766c0-0.828-0.672-1.5-1.5-1.5
		h-4.5c-0.828,0-1.5,0.672-1.5,1.5v7.718l-5.411,4.207c-0.373,0.282-0.592,0.724-0.589,1.193v4.102c0,0.828,0.672,1.5,1.5,1.5
		c0.333,0,0.657-0.113,0.917-0.321l2.082-1.62v22.222c0,1.242,1.008,2.25,2.25,2.25h26.213l-0.555-0.335
		C39.544,44.389,44.98,38.791,44.98,31.909z M7.824,3.766h4.5v3.051l-4.5,3.5V3.766z M1.825,20.986v-4.102l4.2-3.266l0.011-0.005
		L21.324,1.716l12.622,9.821h-0.081l2.748,2.139l0.011,0.005l4.2,3.266v4.102l-7.685-5.979l0.053-0.022L21.785,6.173
		c-0.271-0.211-0.65-0.211-0.921,0L1.825,20.986z M13.824,29.266v14.25h-6.75c-0.414,0-0.75-0.336-0.75-0.75V19.378l15-11.662
		l9.25,7.191v0.063l5.75,4.471v0.367c-1.301-0.446-2.692-0.699-4.144-0.699c-5.336,0-9.905,3.266-11.827,7.907h-4.279
		C14.832,27.015,13.824,28.023,13.824,29.266z M15.324,29.266c0-0.414,0.336-0.75,0.75-0.75h3.775
		c-0.297,1.082-0.469,2.216-0.469,3.393c0,5.148,3.046,9.575,7.429,11.607H15.324V29.266z M32.18,43.251
		c-6.264,0-11.342-5.078-11.342-11.342c0-6.264,5.078-11.342,11.342-11.342c6.264,0,11.342,5.078,11.342,11.342
		C43.522,38.173,38.444,43.251,32.18,43.251z"/>
</g>
</svg>
