<?xml version="1.0" encoding="utf-8"?>
<!-- Generator: Adobe Illustrator 17.0.0, SVG Export Plug-In . SVG Version: 6.00 Build 0)  -->
<!DOCTYPE svg PUBLIC "-//W3C//DTD SVG 1.1//EN" "http://www.w3.org/Graphics/SVG/1.1/DTD/svg11.dtd">
<svg version="1.1" id="Camada_1" xmlns="http://www.w3.org/2000/svg" xmlns:xlink="http://www.w3.org/1999/xlink" x="0px" y="0px"
	 width="45px" height="45px" viewBox="0 0 45 45" enable-background="new 0 0 45 45" xml:space="preserve">
<path fill="#FFFFFF" d="M31.591-0.044H13.404C6.013-0.044,0,5.969,0,13.36v18.187c0,7.391,6.013,13.404,13.404,13.404h18.187
	c7.391,0,13.404-6.013,13.404-13.404V13.36C44.995,5.969,38.981-0.044,31.591-0.044L31.591-0.044z M40.468,31.547
	c0,4.903-3.975,8.878-8.878,8.878H13.404c-4.903,0-8.878-3.975-8.878-8.878V13.36c0-4.903,3.975-8.878,8.878-8.878h18.187
	c4.903,0,8.878,3.975,8.878,8.878V31.547z M40.468,31.547 M22.497,10.816c-6.417,0-11.637,5.221-11.637,11.637
	c0,6.416,5.221,11.637,11.637,11.637s11.637-5.22,11.637-11.637S28.914,10.816,22.497,10.816L22.497,10.816z M22.497,29.564
	c-3.927,0-7.111-3.183-7.111-7.111c0-3.927,3.184-7.111,7.111-7.111c3.927,0,7.111,3.184,7.111,7.111
	C29.608,26.381,26.425,29.564,22.497,29.564L22.497,29.564z M22.497,29.564 M36.945,10.904c0,1.54-1.248,2.789-2.789,2.789
	c-1.54,0-2.789-1.249-2.789-2.789c0-1.54,1.249-2.789,2.789-2.789C35.697,8.115,36.945,9.364,36.945,10.904L36.945,10.904z
	 M36.945,10.904"/>
</svg>
