<svg xmlns="http://www.w3.org/2000/svg" width="30" height="30" viewBox="0 0 30 30">
  <path id="ir_ao_inicio_da_pagina" data-name="ir ao inicio da pagina" d="M2983.87,3150.743a15,15,0,1,0-15,15A15,15,0,0,0,2983.87,3150.743Zm-5-3.7a1.6,1.6,0,0,1-.488,1.168l-8.345,8.357a1.639,1.639,0,0,1-1.167.475,1.574,1.574,0,0,1-1.156-.475l-8.357-8.357a1.6,1.6,0,0,1-.487-1.168,1.526,1.526,0,0,1,.487-1.155l.963-.963a1.612,1.612,0,0,1,2.311,0l6.239,6.226,6.239-6.226a1.527,1.527,0,0,1,1.156-.488,1.593,1.593,0,0,1,1.167.488l.963.963A1.574,1.574,0,0,1,2978.87,3147.046Z" transform="translate(-2953.87 -3135.743)" fill="#FFF"/>
</svg>
