<?xml version="1.0" encoding="utf-8"?>
<!-- Generator: Adobe Illustrator 17.0.0, SVG Export Plug-In . SVG Version: 6.00 Build 0)  -->
<!DOCTYPE svg PUBLIC "-//W3C//DTD SVG 1.1//EN" "http://www.w3.org/Graphics/SVG/1.1/DTD/svg11.dtd">
<svg version="1.1" id="Camada_1" xmlns="http://www.w3.org/2000/svg" xmlns:xlink="http://www.w3.org/1999/xlink" x="0px" y="0px"
	 width="45px" height="45px" viewBox="0 0 45 45" enable-background="new 0 0 45 45" xml:space="preserve">
<g>
	<path fill="#161C49" d="M4.4,25.934h10.267c0.405,0,0.733-0.329,0.733-0.734c0-0.405-0.328-0.733-0.733-0.733H4.4
		c-0.405,0-0.733,0.328-0.733,0.733C3.667,25.605,3.995,25.934,4.4,25.934L4.4,25.934z M4.4,25.934"/>
	<g>
		<path fill="#161C49" d="M4.4,9.066h4.4c0.405,0,0.733-0.328,0.733-0.733C9.533,7.928,9.205,7.6,8.8,7.6H4.4
			c-0.405,0-0.733,0.328-0.733,0.733C3.667,8.738,3.995,9.066,4.4,9.066L4.4,9.066z M4.4,9.066"/>
		<path fill="#161C49" d="M12.467,9.066h6.6c0.405,0,0.734-0.328,0.734-0.733c0-0.405-0.329-0.733-0.734-0.733h-6.6
			c-0.405,0-0.734,0.328-0.734,0.733C11.733,8.738,12.062,9.066,12.467,9.066L12.467,9.066z M12.467,9.066"/>
		<path fill="#161C49" d="M4.4,17.133h23.467c0.405,0,0.734-0.329,0.734-0.734c0-0.405-0.329-0.733-0.734-0.733H4.4
			c-0.405,0-0.733,0.329-0.733,0.733C3.667,16.805,3.995,17.133,4.4,17.133L4.4,17.133z M4.4,17.133"/>
		<path fill="#161C49" d="M4.4,20.066h10.267c0.405,0,0.733-0.328,0.733-0.733S15.072,18.6,14.667,18.6H4.4
			c-0.405,0-0.733,0.328-0.733,0.733S3.995,20.066,4.4,20.066L4.4,20.066z M4.4,20.066"/>
		<path fill="#161C49" d="M4.4,31.8h10.267c0.405,0,0.733-0.329,0.733-0.734c0-0.405-0.328-0.733-0.733-0.733H4.4
			c-0.405,0-0.733,0.329-0.733,0.733C3.667,31.472,3.995,31.8,4.4,31.8L4.4,31.8z M4.4,31.8"/>
		<path fill="#161C49" d="M4.4,37.667h10.267c0.405,0,0.733-0.329,0.733-0.733c0-0.405-0.328-0.734-0.733-0.734H4.4
			c-0.405,0-0.733,0.329-0.733,0.734C3.667,37.338,3.995,37.667,4.4,37.667L4.4,37.667z M4.4,37.667"/>
		<path fill="#161C49" d="M43.56,22.362l-8.36-3.61V3.2C35.2,1.985,34.215,1,33,1H5.133c-1.215,0-2.2,0.985-2.2,2.2v0.734H2.2
			c-1.215,0-2.2,0.985-2.2,2.2V42.8C0,44.015,0.985,45,2.2,45h27.867c0.594-0.001,1.161-0.243,1.573-0.67l0.601,0.428
			c0.455,0.323,1.063,0.323,1.518,0l7.095-5.05c1.967-1.396,3.139-3.656,3.146-6.068V23.035C44,22.743,43.828,22.479,43.56,22.362
			L43.56,22.362z M4.4,3.2c0-0.405,0.329-0.733,0.734-0.733H33c0.405,0,0.733,0.328,0.733,0.733v14.918l-0.44-0.191
			c-0.185-0.08-0.395-0.08-0.581,0l-0.44,0.191v-4.651c0-0.016-0.008-0.032-0.01-0.048c-0.004-0.061-0.015-0.122-0.035-0.18
			c-0.005-0.017-0.004-0.034-0.011-0.051c-0.007-0.016-0.012-0.016-0.015-0.025c-0.036-0.08-0.085-0.153-0.147-0.215l-8.8-8.8
			c-0.062-0.061-0.135-0.111-0.215-0.147c-0.009-0.004-0.016-0.012-0.025-0.015c-0.009-0.004-0.034-0.006-0.05-0.011
			c-0.059-0.02-0.12-0.032-0.183-0.036c-0.018,0.002-0.033-0.006-0.049-0.006H4.4V3.2z M23.467,6.437l6.296,6.296H24.2
			c-0.405,0-0.733-0.328-0.733-0.733V6.437z M30.066,43.533H2.2c-0.405,0-0.733-0.328-0.733-0.733V6.133
			C1.467,5.728,1.795,5.4,2.2,5.4H22V12c0,1.215,0.985,2.2,2.2,2.2h6.6v4.552l-2.361,1.021c0.101-0.124,0.158-0.279,0.161-0.44
			c0-0.405-0.329-0.733-0.734-0.733H17.6c-0.405,0-0.734,0.328-0.734,0.733s0.329,0.733,0.734,0.733h10.156l-3.395,1.467H4.4
			c-0.405,0-0.733,0.329-0.733,0.734C3.667,22.671,3.995,23,4.4,23h17.605c0,0.012-0.005,0.023-0.005,0.035v1.431h-4.4
			c-0.405,0-0.734,0.328-0.734,0.733c0,0.405,0.329,0.734,0.734,0.734H22V27.4H4.4c-0.405,0-0.733,0.329-0.733,0.734
			c0,0.405,0.329,0.733,0.733,0.733H22v1.467h-4.4c-0.405,0-0.734,0.329-0.734,0.733c0,0.405,0.329,0.734,0.734,0.734H22v1.467H4.4
			c-0.405,0-0.733,0.328-0.733,0.733c0,0.405,0.329,0.733,0.733,0.733h17.692c0.073,0.501,0.197,0.992,0.371,1.467H17.6
			c-0.405,0-0.734,0.329-0.734,0.734c0,0.405,0.329,0.733,0.734,0.733h5.603c0.346,0.539,0.76,1.033,1.233,1.467H4.4
			c-0.405,0-0.733,0.328-0.733,0.733c0,0.405,0.329,0.734,0.733,0.734h22l3.995,2.843C30.294,43.5,30.182,43.531,30.066,43.533
			L30.066,43.533z M42.533,33.64c-0.007,1.937-0.949,3.752-2.529,4.872L33,43.498l-7.004-4.987c-1.58-1.12-2.522-2.934-2.529-4.871
			V23.52l1.327-0.574l0.014-0.006L33,19.399l9.533,4.118V33.64z M42.533,33.64"/>
		<path fill="#161C49" d="M32.707,21.122l-7.333,3.168c-0.268,0.117-0.44,0.381-0.44,0.673v8.677
			c0.006,1.462,0.719,2.831,1.913,3.677l5.729,4.078c0.255,0.181,0.596,0.181,0.85,0l5.729-4.078
			c1.194-0.845,1.906-2.214,1.913-3.677v-8.677c0-0.292-0.172-0.556-0.44-0.673l-7.333-3.168
			C33.106,21.04,32.894,21.04,32.707,21.122L32.707,21.122z M39.6,25.449v8.191c-0.005,0.99-0.489,1.916-1.298,2.486L33,39.897
			l-5.303-3.775c-0.808-0.57-1.291-1.494-1.298-2.482v-8.195l6.6-2.85L39.6,25.449z M39.6,25.449"/>
		<path fill="#161C49" d="M29.04,31.946c-0.21-0.157-0.487-0.19-0.728-0.087c-0.241,0.103-0.409,0.326-0.44,0.586
			c-0.031,0.26,0.078,0.517,0.288,0.674l2.933,2.2c0.317,0.238,0.765,0.181,1.013-0.129l5.867-7.333
			c0.253-0.316,0.202-0.778-0.115-1.031c-0.316-0.253-0.778-0.202-1.031,0.114l-5.423,6.779L29.04,31.946z M29.04,31.946"/>
	</g>
</g>
</svg>
