<?xml version="1.0" encoding="utf-8"?>
<!-- Generator: Adobe Illustrator 17.0.0, SVG Export Plug-In . SVG Version: 6.00 Build 0)  -->
<!DOCTYPE svg PUBLIC "-//W3C//DTD SVG 1.1//EN" "http://www.w3.org/Graphics/SVG/1.1/DTD/svg11.dtd">
<svg version="1.1" id="Camada_1" xmlns="http://www.w3.org/2000/svg" xmlns:xlink="http://www.w3.org/1999/xlink" x="0px" y="0px"
	 width="45px" height="45px" viewBox="0 0 45 45" enable-background="new 0 0 45 45" xml:space="preserve">
<g>
	<path fill="#161C49" d="M7.584,30.241v-2.934c0-0.81-0.657-1.466-1.467-1.466H4.651c-0.81,0-1.466,0.657-1.466,1.466v2.934
		c0,0.81,0.657,1.467,1.466,1.467h1.467C6.928,31.708,7.584,31.051,7.584,30.241L7.584,30.241z M4.651,30.241v-2.934h1.467v2.934
		H4.651z M4.651,30.241"/>
	<path fill="#161C49" d="M11.984,31.708h1.467c0.81,0,1.467-0.657,1.467-1.467v-2.934c0-0.81-0.657-1.466-1.467-1.466h-1.467
		c-0.81,0-1.466,0.657-1.466,1.466v2.934C10.518,31.051,11.175,31.708,11.984,31.708L11.984,31.708z M11.984,27.307h1.467v2.934
		h-1.467V27.307z M11.984,27.307"/>
	<path fill="#161C49" d="M19.318,31.708h1.467c0.81,0,1.467-0.657,1.467-1.467v-2.934c0-0.81-0.657-1.466-1.467-1.466h-1.467
		c-0.81,0-1.466,0.657-1.466,1.466v2.934C17.851,31.051,18.508,31.708,19.318,31.708L19.318,31.708z M19.318,27.307h1.467v2.934
		h-1.467V27.307z M19.318,27.307"/>
	<path fill="#161C49" d="M4.651,24.374h1.467c0.81,0,1.467-0.657,1.467-1.467v-2.934c0-0.81-0.657-1.466-1.467-1.466H4.651
		c-0.81,0-1.466,0.657-1.466,1.466v2.934C3.185,23.718,3.841,24.374,4.651,24.374L4.651,24.374z M4.651,19.974h1.467v2.934H4.651
		V19.974z M4.651,19.974"/>
	<path fill="#161C49" d="M11.984,24.374h1.467c0.81,0,1.467-0.657,1.467-1.467v-2.934c0-0.81-0.657-1.466-1.467-1.466h-1.467
		c-0.81,0-1.466,0.657-1.466,1.466v2.934C10.518,23.718,11.175,24.374,11.984,24.374L11.984,24.374z M11.984,19.974h1.467v2.934
		h-1.467V19.974z M11.984,19.974"/>
	<path fill="#161C49" d="M19.318,24.374h1.467c0.81,0,1.467-0.657,1.467-1.467v-2.934c0-0.81-0.657-1.466-1.467-1.466h-1.467
		c-0.81,0-1.466,0.657-1.466,1.466v2.934C17.851,23.718,18.508,24.374,19.318,24.374L19.318,24.374z M19.318,19.974h1.467v2.934
		h-1.467V19.974z M19.318,19.974"/>
	<path fill="#161C49" d="M4.651,17.041h1.467c0.81,0,1.467-0.657,1.467-1.467v-2.934c0-0.81-0.657-1.466-1.467-1.466H4.651
		c-0.81,0-1.466,0.657-1.466,1.466v2.934C3.185,16.384,3.841,17.041,4.651,17.041L4.651,17.041z M4.651,12.641h1.467v2.934H4.651
		V12.641z M4.651,12.641"/>
	<path fill="#161C49" d="M11.984,17.041h1.467c0.81,0,1.467-0.657,1.467-1.467v-2.934c0-0.81-0.657-1.466-1.467-1.466h-1.467
		c-0.81,0-1.466,0.657-1.466,1.466v2.934C10.518,16.384,11.175,17.041,11.984,17.041L11.984,17.041z M11.984,12.641h1.467v2.934
		h-1.467V12.641z M11.984,12.641"/>
	<path fill="#161C49" d="M19.318,17.041h1.467c0.81,0,1.467-0.657,1.467-1.467v-2.934c0-0.81-0.657-1.466-1.467-1.466h-1.467
		c-0.81,0-1.466,0.657-1.466,1.466v2.934C17.851,16.384,18.508,17.041,19.318,17.041L19.318,17.041z M19.318,12.641h1.467v2.934
		h-1.467V12.641z M19.318,12.641"/>
	<path fill="#161C49" d="M4.651,9.708h1.467c0.81,0,1.467-0.657,1.467-1.467V5.307c0-0.81-0.657-1.466-1.467-1.466H4.651
		c-0.81,0-1.466,0.657-1.466,1.466v2.934C3.185,9.051,3.841,9.708,4.651,9.708L4.651,9.708z M4.651,5.307h1.467v2.934H4.651V5.307z
		 M4.651,5.307"/>
	<path fill="#161C49" d="M11.984,9.708h1.467c0.81,0,1.467-0.657,1.467-1.467V5.307c0-0.81-0.657-1.466-1.467-1.466h-1.467
		c-0.81,0-1.466,0.657-1.466,1.466v2.934C10.518,9.051,11.175,9.708,11.984,9.708L11.984,9.708z M11.984,5.307h1.467v2.934h-1.467
		V5.307z M11.984,5.307"/>
	<path fill="#161C49" d="M19.318,9.708h1.467c0.81,0,1.467-0.657,1.467-1.467V5.307c0-0.81-0.657-1.466-1.467-1.466h-1.467
		c-0.81,0-1.466,0.657-1.466,1.466v2.934C17.851,9.051,18.508,9.708,19.318,9.708L19.318,9.708z M19.318,5.307h1.467v2.934h-1.467
		V5.307z M19.318,5.307"/>
	<path fill="#161C49" d="M28.118,27.307c0.405,0,0.734-0.328,0.734-0.733v-2.934c0-0.405-0.329-0.733-0.734-0.733
		c-0.405,0-0.733,0.329-0.733,0.733v2.934C27.385,26.979,27.713,27.307,28.118,27.307L28.118,27.307z M28.118,27.307"/>
	<path fill="#161C49" d="M31.784,21.441c0.405,0,0.734-0.328,0.734-0.733v-2.934c0-0.405-0.329-0.733-0.734-0.733
		c-0.405,0-0.733,0.328-0.733,0.733v2.934C31.051,21.113,31.379,21.441,31.784,21.441L31.784,21.441z M31.784,21.441"/>
	<path fill="#161C49" d="M28.118,21.441c0.405,0,0.734-0.328,0.734-0.733v-2.934c0-0.405-0.329-0.733-0.734-0.733
		c-0.405,0-0.733,0.328-0.733,0.733v2.934C27.385,21.113,27.713,21.441,28.118,21.441L28.118,21.441z M28.118,21.441"/>
	<path fill="#161C49" d="M35.451,21.441c0.405,0,0.734-0.328,0.734-0.733v-2.934c0-0.405-0.329-0.733-0.734-0.733
		c-0.405,0-0.733,0.328-0.733,0.733v2.934C34.718,21.113,35.046,21.441,35.451,21.441L35.451,21.441z M35.451,21.441"/>
	<path fill="#161C49" d="M43.811,27.667l-3.96-1.709V15.574c0-0.81-0.657-1.467-1.467-1.467h-13.2V2.374
		c0-0.81-0.657-1.467-1.467-1.467h-22c-0.81,0-1.467,0.657-1.467,1.467v41.066c0,0.81,0.657,1.467,1.467,1.467h34.467
		c0.088-0.002,0.175-0.019,0.256-0.051c0.027-0.012,0.053-0.025,0.078-0.039c0.031-0.013,0.061-0.028,0.09-0.046l5.729-4.077
		c1.193-0.846,1.905-2.215,1.913-3.677V28.34C44.252,28.048,44.079,27.784,43.811,27.667L43.811,27.667z M1.718,2.374h22v41.066
		h-5.867v-6.6c-0.003-2.024-1.643-3.664-3.667-3.667h-2.934c-2.024,0.002-3.664,1.643-3.667,3.667v6.6H1.718V2.374z M9.051,36.841
		c0-1.215,0.985-2.2,2.2-2.2h0.733v8.8H9.051V36.841z M13.451,43.441v-8.8h0.734c1.215,0,2.2,0.985,2.2,2.2v6.6H13.451z
		 M25.185,15.574h13.2v9.753l-1.907-0.829c-0.093-0.04-0.192-0.06-0.293-0.06v-0.798c0-0.405-0.329-0.733-0.734-0.733
		c-0.405,0-0.733,0.329-0.733,0.733v1.367l-2.2,0.953v-2.32c0-0.405-0.329-0.733-0.734-0.733c-0.405,0-0.733,0.329-0.733,0.733
		v2.934v0.015l-2.494,1.077c-0.268,0.117-0.44,0.381-0.44,0.673v15.101h-2.933V15.574z M29.584,40.329
		c0.141,0.132,0.29,0.254,0.446,0.367l3.86,2.745h-4.305V40.329z M42.784,37.017c-0.006,0.988-0.49,1.913-1.297,2.482l-5.303,3.774
		l-5.303-3.774c-0.807-0.57-1.29-1.494-1.297-2.482v-8.195l6.151-2.658l0.449-0.193l2.632,1.137l0.031,0.013l3.937,1.701V37.017z
		 M42.784,37.017"/>
	<path fill="#161C49" d="M34.589,37.097l-2.364-1.773c-0.324-0.243-0.784-0.177-1.027,0.146c-0.243,0.324-0.177,0.784,0.147,1.027
		l2.934,2.2c0.317,0.238,0.765,0.181,1.012-0.128l5.867-7.333c0.163-0.205,0.206-0.481,0.111-0.725
		c-0.095-0.244-0.314-0.419-0.573-0.458c-0.259-0.04-0.52,0.062-0.683,0.267L34.589,37.097z M34.589,37.097"/>
</g>
</svg>
