<?xml version="1.0" encoding="utf-8"?>
<!-- Generator: Adobe Illustrator 17.0.0, SVG Export Plug-In . SVG Version: 6.00 Build 0)  -->
<!DOCTYPE svg PUBLIC "-//W3C//DTD SVG 1.1//EN" "http://www.w3.org/Graphics/SVG/1.1/DTD/svg11.dtd">
<svg version="1.1" id="Camada_1" xmlns="http://www.w3.org/2000/svg" xmlns:xlink="http://www.w3.org/1999/xlink" x="0px" y="0px"
	 width="45px" height="45px" viewBox="0 0 45 45" enable-background="new 0 0 45 45" xml:space="preserve">
<g>
	<path fill="#C9801D" d="M41.55,23.819l-7.5-3.24c-0.19-0.082-0.404-0.082-0.594,0l-7.5,3.24c-0.274,0.119-0.45,0.39-0.45,0.688
		v8.874c0.007,1.496,0.735,2.896,1.956,3.76l5.859,4.171c0.26,0.185,0.61,0.185,0.87,0l5.859-4.171
		c1.218-0.866,1.944-2.265,1.95-3.76v-8.874C42,24.209,41.824,23.939,41.55,23.819L41.55,23.819z M40.5,33.382
		c-0.006,1.012-0.5,1.959-1.327,2.543l-5.423,3.857l-5.423-3.861c-0.826-0.583-1.32-1.528-1.327-2.539V25l6.75-2.915L40.5,25V33.382
		z M40.5,33.382"/>
	<path fill="#C9801D" d="M29.7,31.65c-0.215-0.161-0.498-0.195-0.745-0.089c-0.246,0.105-0.418,0.334-0.45,0.6
		c-0.032,0.266,0.08,0.529,0.295,0.69l3,2.25c0.324,0.243,0.783,0.185,1.036-0.131l6-7.5c0.259-0.323,0.206-0.796-0.117-1.054
		c-0.323-0.259-0.796-0.206-1.054,0.117l-5.546,6.933L29.7,31.65z M29.7,31.65"/>
	<path fill="#C9801D" d="M41.25,6h-9.044c-0.385-3.414-3.271-5.995-6.706-6h-6c-3.435,0.005-6.32,2.586-6.706,6H3.75
		C1.68,6.003,0.002,7.68,0,9.75v28.5c0.002,1.782,1.255,3.317,3,3.675v0.825C3,43.992,4.007,45,5.25,45h4.5
		c1.243,0,2.25-1.008,2.25-2.25V42h17.107l3.862,2.748c0.467,0.334,1.095,0.334,1.562,0l7.251-5.159
		c1.274-0.907,2.24-2.182,2.768-3.653c0.273-0.119,0.449-0.388,0.45-0.685V9.75C44.998,7.68,43.32,6.003,41.25,6L41.25,6z
		 M39.252,19.562L37.05,18.61L36,18.16v-5.41c0-1.243-1.007-2.25-2.25-2.25h-3c-1.242,0-2.25,1.007-2.25,2.25v6.701L28.388,19.5H18
		v-0.75c-0.004-0.95-0.604-1.795-1.5-2.112V12.75c0-1.243-1.008-2.25-2.25-2.25h-3C10.007,10.5,9,11.507,9,12.75v3.888
		C8.104,16.955,7.504,17.8,7.5,18.75v0.75h-6v-6H3c0.828,0,1.5-0.671,1.5-1.5v-1.5H6c0.829,0,1.5-0.672,1.5-1.5V7.5h30V9
		c0,0.829,0.671,1.5,1.5,1.5h1.5V12c0,0.829,0.671,1.5,1.5,1.5h1.5v7.897L39.252,19.562z M34.048,17.312
		c-0.19-0.083-0.405-0.083-0.595,0L30,18.803V12.75c0-0.414,0.336-0.75,0.75-0.75h3c0.414,0,0.75,0.336,0.75,0.75v4.757
		L34.048,17.312z M10.5,24H15v4.939l-2.25,2.25l-2.25-2.25V24z M15.75,22.5h-6C9.336,22.5,9,22.164,9,21.75v-3
		C9,18.336,9.336,18,9.75,18h6c0.414,0,0.75,0.336,0.75,0.75v3C16.5,22.164,16.164,22.5,15.75,22.5L15.75,22.5z M15,16.5h-4.5v-3.75
		c0-0.414,0.336-0.75,0.75-0.75h3c0.414,0,0.75,0.336,0.75,0.75V16.5z M17.388,6c0.316-0.896,1.162-1.496,2.112-1.5h6
		c0.95,0.004,1.795,0.604,2.112,1.5H17.388z M43.5,9.75V12H42v-1.5C42,9.672,41.328,9,40.5,9H39V7.5h2.25
		C42.493,7.5,43.5,8.508,43.5,9.75L43.5,9.75z M19.5,1.5h6c2.608,0.003,4.82,1.918,5.196,4.5h-1.522
		c-0.359-1.745-1.894-2.998-3.675-3h-6c-1.781,0.002-3.316,1.255-3.675,3h-1.522C14.679,3.418,16.891,1.503,19.5,1.5L19.5,1.5z
		 M3.75,7.5H6V9H4.5C3.672,9,3,9.672,3,10.5V12H1.5V9.75C1.5,8.508,2.507,7.5,3.75,7.5L3.75,7.5z M1.5,38.25V36H3v1.5
		C3,38.329,3.672,39,4.5,39H6v1.5H3.75C2.507,40.5,1.5,39.493,1.5,38.25L1.5,38.25z M10.5,42.75c0,0.414-0.336,0.75-0.75,0.75h-4.5
		c-0.414,0-0.75-0.336-0.75-0.75V42h6V42.75z M11.25,40.5H7.5V39c0-0.829-0.671-1.5-1.5-1.5H4.5V36c0-0.829-0.671-1.5-1.5-1.5H1.5
		V21h6v0.75c0.004,0.95,0.604,1.795,1.5,2.112v5.388c0,0.199,0.079,0.39,0.22,0.53l3,3c0.293,0.292,0.768,0.292,1.061,0l3-3
		c0.141-0.141,0.22-0.331,0.22-0.53v-5.388c0.896-0.316,1.496-1.162,1.5-2.112V21h6.917l-1.967,0.849
		c-0.274,0.12-0.45,0.39-0.45,0.688v10.845c0.008,2.467,1.206,4.779,3.218,6.206L27,40.5H11.25z M40.913,38.367l-7.163,5.095
		l-7.163-5.095c-1.616-1.147-2.58-3.003-2.587-4.985v-10.35l5.518-2.385c0.016-0.006,0.031-0.013,0.047-0.02l4.185-1.811
		l1.192,0.516l0.034,0.014l1.477,0.639l2.204,0.953L43.5,23.03v10.35c0,0.563-0.078,1.123-0.234,1.663
		C42.881,36.387,42.052,37.559,40.913,38.367L40.913,38.367z M40.913,38.367"/>
	<path fill="#C9801D" d="M13.5,27c0,0.414-0.336,0.75-0.75,0.75C12.336,27.75,12,27.414,12,27c0-0.414,0.336-0.75,0.75-0.75
		C13.164,26.25,13.5,26.586,13.5,27L13.5,27z M13.5,27"/>
</g>
</svg>
