<?xml version="1.0" encoding="utf-8"?>
<!-- Generator: Adobe Illustrator 17.0.0, SVG Export Plug-In . SVG Version: 6.00 Build 0)  -->
<!DOCTYPE svg PUBLIC "-//W3C//DTD SVG 1.1//EN" "http://www.w3.org/Graphics/SVG/1.1/DTD/svg11.dtd">
<svg version="1.1" id="Camada_1" xmlns="http://www.w3.org/2000/svg" xmlns:xlink="http://www.w3.org/1999/xlink" x="0px" y="0px"
	 width="45px" height="45px" viewBox="0 0 45 45" enable-background="new 0 0 45 45" xml:space="preserve">
<g>
	<path fill="#161C49" d="M22.5,1c-0.405,0-0.733,0.329-0.733,0.733v0.753c-18.8,0.42-21.237,16.582-21.26,16.748
		c-0.043,0.312,0.118,0.618,0.401,0.758c0.283,0.14,0.623,0.083,0.846-0.141c0.158-0.158,3.915-3.845,7.03-0.733
		c0.028,0.022,0.058,0.042,0.089,0.059c0.04,0.034,0.084,0.063,0.131,0.087c0.05,0.02,0.102,0.033,0.155,0.041
		c0.033,0.011,0.066,0.02,0.1,0.026c0.014,0.001,0.028,0.001,0.042,0.001c0.094,0,0.187-0.018,0.274-0.054
		c0.006,0,0.012-0.008,0.018-0.012c0.08-0.035,0.153-0.085,0.215-0.146l0.01-0.006c0.711-0.655,1.55-1.155,2.464-1.469
		c1.906-0.636,3.687-0.14,5.299,1.473c0.061,0.058,0.131,0.105,0.207,0.139c0.018,0.008,0.035,0.016,0.054,0.023
		c0.08,0.032,0.165,0.049,0.252,0.051l0.007,0.001c0.007,0,0.012,0,0.02,0c0.049,0,0.099-0.006,0.147-0.016
		c0.028-0.008,0.055-0.019,0.082-0.031c0.019-0.007,0.037-0.013,0.055-0.021c0.074-0.034,0.143-0.08,0.202-0.136
		c0.01-0.01,0.017-0.022,0.028-0.033c0.048-0.053,0.088-0.112,0.119-0.177c0.009-0.017,0.017-0.034,0.025-0.052
		c0.004-0.011,0.012-0.021,0.017-0.033c0.311-0.619,0.852-1.091,1.506-1.316v4.014c0,1.215,0.985,2.2,2.2,2.2
		c1.215,0,2.2-0.985,2.2-2.2v-4.018c0.656,0.223,1.197,0.696,1.504,1.316c0.004,0.012,0.012,0.022,0.016,0.034
		c0.004,0.012,0.016,0.032,0.024,0.049c0.031,0.066,0.072,0.127,0.121,0.18c0.009,0.01,0.016,0.021,0.026,0.031
		c0.059,0.057,0.128,0.103,0.203,0.137c0.018,0.008,0.035,0.014,0.053,0.021c0.027,0.012,0.055,0.022,0.083,0.031
		c0.048,0.01,0.097,0.015,0.146,0.015c0.007,0.002,0.015,0.004,0.022,0.004h0.007c0.086-0.002,0.17-0.019,0.25-0.051
		c0.019-0.007,0.037-0.015,0.055-0.023c0.076-0.034,0.146-0.081,0.206-0.139c3.818-3.818,7.605-0.156,7.763,0l0.01,0.007
		c0.058,0.054,0.124,0.098,0.197,0.13c0.013,0.007,0.024,0.019,0.038,0.024h0.013c0.084,0.033,0.172,0.051,0.262,0.051h0.042
		c0.033-0.006,0.065-0.015,0.097-0.026c0.107-0.01,0.208-0.055,0.287-0.128c0.031-0.018,0.062-0.038,0.09-0.06
		c3.1-3.099,6.872,0.576,7.03,0.734c0.223,0.224,0.564,0.28,0.846,0.14c0.282-0.14,0.444-0.446,0.4-0.759
		c-0.023-0.166-2.46-16.328-21.26-16.748V1.733C23.233,1.328,22.905,1,22.5,1L22.5,1z M2.407,17.507
		c1.08-3.638,4.572-11.272,15.066-13.149c-6.38,3.593-8.213,10.075-8.722,12.865C7.933,16.69,6.977,16.408,6,16.409
		C4.725,16.446,3.484,16.826,2.407,17.507L2.407,17.507z M10.298,16.929c0.66-3.121,2.887-9.664,10.242-12.376
		c-2.383,3.912-2.977,9.769-3.123,12.524C15.293,15.587,12.48,15.528,10.298,16.929L10.298,16.929z M23.233,21.533
		c0,0.405-0.328,0.734-0.733,0.734s-0.733-0.329-0.733-0.734v-4.36c0.243-0.026,0.488-0.039,0.733-0.039
		c0.245,0,0.49,0.013,0.733,0.039V21.533z M22.5,15.666c-1.259-0.051-2.504,0.271-3.579,0.926C19.135,13.484,19.888,7.526,22.5,4.3
		c2.609,3.223,3.362,9.18,3.578,12.29C25.003,15.935,23.758,15.614,22.5,15.666L22.5,15.666z M27.584,17.077
		c-0.147-2.756-0.741-8.617-3.125-12.529c7.46,2.724,9.641,9.27,10.267,12.393C32.539,15.529,29.715,15.582,27.584,17.077
		L27.584,17.077z M42.593,17.507c-1.739-1.045-4.134-1.694-6.346-0.285c-0.504-2.787-2.343-9.274-8.721-12.864
		C38.021,6.235,41.513,13.868,42.593,17.507L42.593,17.507z M42.593,17.507"/>
	<path fill="#161C49" d="M8.566,34.733c0,0.405,0.329,0.734,0.734,0.734h2.204c0.687,0.911,1.478,1.739,2.356,2.468
		c0.26,0.23,0.513,0.453,0.747,0.677c1.741,1.653,7.202,6.041,7.434,6.228c0.269,0.215,0.65,0.215,0.918,0
		c0.231-0.187,5.693-4.575,7.434-6.228c0.235-0.22,0.487-0.447,0.747-0.677c0.878-0.729,1.669-1.557,2.356-2.468H35.7
		c0.405,0,0.734-0.329,0.734-0.734c0-0.405-0.329-0.733-0.734-0.733h-1.382c0.444-1.059,0.664-2.198,0.649-3.345
		c0-4.27-2.612-6.922-6.82-6.922c-2.203-0.016-4.29,0.991-5.647,2.728c-1.357-1.736-3.443-2.744-5.647-2.728
		c-4.205,0-6.82,2.652-6.82,6.922c-0.016,1.148,0.205,2.286,0.649,3.345H9.3C8.895,34,8.566,34.328,8.566,34.733L8.566,34.733z
		 M30.165,36.837c-0.271,0.241-0.535,0.476-0.782,0.71c-1.409,1.337-5.504,4.666-6.883,5.777c-1.379-1.114-5.474-4.44-6.883-5.777
		c-0.247-0.234-0.513-0.469-0.782-0.71c-0.491-0.436-0.981-0.88-1.435-1.371h5.433c0.316,0,0.596-0.202,0.696-0.502l0.697-2.102
		l1.563,5.73c0.084,0.307,0.356,0.525,0.674,0.54H22.5c0.306,0,0.58-0.189,0.687-0.476l1.535-4.094l0.764,1.906
		c0.107,0.268,0.362,0.448,0.65,0.46c0.288,0.009,0.556-0.148,0.687-0.405l0.53-1.057H31.6
		C31.146,35.956,30.656,36.401,30.165,36.837L30.165,36.837z M11.5,30.654c0-3.416,2.001-5.455,5.353-5.455
		c2.071-0.011,3.986,1.102,5.001,2.908c0.139,0.225,0.385,0.362,0.649,0.362c0.264,0,0.51-0.137,0.649-0.362
		c1.013-1.804,2.925-2.917,4.995-2.908c3.35,0,5.353,2.039,5.353,5.455c0.024,1.168-0.26,2.322-0.823,3.345H26.9
		c-0.279-0.001-0.535,0.156-0.66,0.406v0.006l-0.86-2.151c-0.111-0.278-0.381-0.46-0.68-0.461h-0.008
		c-0.303,0.003-0.572,0.192-0.679,0.476l-1.403,3.74l-1.602-5.877c-0.086-0.312-0.364-0.53-0.687-0.539
		c-0.326-0.018-0.622,0.189-0.716,0.501L18.305,34h-5.982C11.76,32.976,11.476,31.822,11.5,30.654L11.5,30.654z M11.5,30.654"/>
</g>
</svg>
