<?xml version="1.0" encoding="utf-8"?>
<!-- Generator: Adobe Illustrator 17.0.0, SVG Export Plug-In . SVG Version: 6.00 Build 0)  -->
<!DOCTYPE svg PUBLIC "-//W3C//DTD SVG 1.1//EN" "http://www.w3.org/Graphics/SVG/1.1/DTD/svg11.dtd">
<svg version="1.1" id="Camada_1" xmlns="http://www.w3.org/2000/svg" xmlns:xlink="http://www.w3.org/1999/xlink" x="0px" y="0px"
	 width="45px" height="45px" viewBox="0 0 45 45" enable-background="new 0 0 45 45" xml:space="preserve">
<g>
	<path fill="#161C49" d="M44.55,4.594l-10.5-4.536c-0.189-0.082-0.404-0.082-0.594,0l-10.5,4.536c-0.274,0.119-0.45,0.39-0.45,0.688
		v5.215H13.5c-0.829,0-1.5,0.671-1.5,1.5v7.5H6.586c-1.098,0-2.108,0.6-2.634,1.563l-3.586,6.574
		C0.127,28.076,0.001,28.569,0,29.071v4.676c0.002,0.555,0.211,1.09,0.585,1.5c-0.599,0.657-0.754,1.606-0.392,2.419
		c0.361,0.813,1.168,1.335,2.057,1.331H4.76c-0.662,1.865-0.028,3.945,1.563,5.122c1.591,1.178,3.765,1.178,5.356,0
		c1.591-1.178,2.225-3.257,1.562-5.122h14.019c-0.662,1.865-0.028,3.945,1.563,5.122c1.591,1.178,3.765,1.178,5.356,0
		c1.591-1.178,2.225-3.257,1.562-5.122h2.509c1.243,0,2.25-1.008,2.25-2.25c-0.001-0.335-0.078-0.665-0.225-0.966
		c0.144-0.141,0.225-0.333,0.225-0.535v-12l1.283-0.914c2.011-1.427,3.209-3.738,3.217-6.204V5.283
		C45,4.984,44.824,4.714,44.55,4.594L44.55,4.594z M12,34.497H2.25c-0.414,0-0.75-0.336-0.75-0.75v-0.75H3
		c0.828,0,1.5-0.672,1.5-1.5v-1.5h2.25c1.242,0,2.25-1.008,2.25-2.25v-6.75h3V34.497z M3,29.997v1.5H1.5v-1.5H3z M5.269,21.778
		c0.263-0.482,0.768-0.781,1.317-0.781H7.5v6.75c0,0.414-0.336,0.75-0.75,0.75H1.627c0.016-0.049,0.035-0.097,0.056-0.144
		L5.269,21.778z M12,40.497c0,1.657-1.343,3-3,3c-1.657,0-3-1.343-3-3c0-0.528,0.141-1.046,0.408-1.5h5.184
		C11.859,39.452,12,39.969,12,40.497L12,40.497z M34.5,40.497c0,1.657-1.343,3-3,3c-1.657,0-3-1.343-3-3
		c0-0.528,0.141-1.046,0.408-1.5h5.184C34.359,39.452,34.5,39.969,34.5,40.497L34.5,40.497z M38.25,37.497h-36
		c-0.414,0-0.75-0.336-0.75-0.75c0-0.414,0.336-0.75,0.75-0.75h36c0.414,0,0.75,0.336,0.75,0.75
		C39,37.161,38.664,37.497,38.25,37.497L38.25,37.497z M39,31.784l-1.5-0.75v-2.073l1.5-0.75V31.784z M39,26.534l-2.585,1.289
		c-0.255,0.128-0.416,0.389-0.415,0.675v3c-0.001,0.286,0.159,0.547,0.415,0.675L39,33.461v1.036H13.5v-22.5h9v4.132
		c0.008,2.466,1.206,4.777,3.217,6.204l7.257,5.167c0.465,0.33,1.088,0.33,1.553,0L39,24.315V26.534z M43.5,16.129
		c-0.007,1.981-0.97,3.837-2.587,4.982l-7.163,5.1l-7.163-5.1c-1.616-1.146-2.58-3.001-2.587-4.982V5.776l9.75-4.212l9.75,4.212
		V16.129z M43.5,16.129"/>
	<path fill="#161C49" d="M33.45,3.327l-7.5,3.24c-0.274,0.119-0.45,0.39-0.45,0.688v8.874c0.007,1.496,0.735,2.896,1.956,3.76
		l5.859,4.171c0.261,0.185,0.609,0.185,0.87,0l5.859-4.17c1.221-0.864,1.949-2.265,1.956-3.761V7.255
		c0-0.299-0.176-0.569-0.45-0.688l-7.5-3.24C33.859,3.243,33.642,3.243,33.45,3.327L33.45,3.327z M40.5,7.751v8.377
		c-0.007,1.011-0.501,1.957-1.327,2.539l-5.423,3.861l-5.423-3.861c-0.826-0.582-1.32-1.528-1.327-2.539V7.748l6.75-2.916
		L40.5,7.751z M40.5,7.751"/>
	<path fill="#161C49" d="M29.7,14.397c-0.215-0.161-0.498-0.195-0.745-0.09c-0.246,0.105-0.418,0.334-0.45,0.6
		c-0.032,0.266,0.08,0.529,0.295,0.69l3,2.25c0.324,0.243,0.783,0.185,1.036-0.131l6-7.5c0.255-0.324,0.202-0.793-0.12-1.051
		c-0.322-0.257-0.791-0.206-1.051,0.114l-5.546,6.932L29.7,14.397z M29.7,14.397"/>
	<path fill="#161C49" d="M9.75,40.497c0,0.414-0.336,0.75-0.75,0.75c-0.414,0-0.75-0.336-0.75-0.75c0-0.414,0.336-0.75,0.75-0.75
		C9.415,39.747,9.75,40.083,9.75,40.497L9.75,40.497z M9.75,40.497"/>
	<path fill="#161C49" d="M32.25,40.497c0,0.414-0.336,0.75-0.75,0.75c-0.414,0-0.75-0.336-0.75-0.75c0-0.414,0.336-0.75,0.75-0.75
		C31.914,39.747,32.25,40.083,32.25,40.497L32.25,40.497z M32.25,40.497"/>
</g>
</svg>
