<?xml version="1.0" encoding="utf-8"?>
<!-- Generator: Adobe Illustrator 17.0.0, SVG Export Plug-In . SVG Version: 6.00 Build 0)  -->
<!DOCTYPE svg PUBLIC "-//W3C//DTD SVG 1.1//EN" "http://www.w3.org/Graphics/SVG/1.1/DTD/svg11.dtd">
<svg version="1.1" id="Camada_1" xmlns="http://www.w3.org/2000/svg" xmlns:xlink="http://www.w3.org/1999/xlink" x="0px" y="0px"
	 width="45px" height="45px" viewBox="0 0 45 45" enable-background="new 0 0 45 45" xml:space="preserve">
<g>
	<path fill="#161C49" d="M23.783,23.744h-4.176v-4.176c0-0.393-0.318-0.711-0.711-0.711h-3.91c-0.393,0-0.711,0.318-0.711,0.711
		v4.176h-4.265c-0.393,0-0.711,0.318-0.711,0.711v3.999c0,0.393,0.318,0.711,0.711,0.711h4.265v4.176
		c0,0.393,0.318,0.711,0.711,0.711h3.91c0.393,0,0.711-0.318,0.711-0.711v-4.176h4.176c0.393,0,0.711-0.318,0.711-0.711v-3.999
		C24.494,24.062,24.176,23.744,23.783,23.744L23.783,23.744z M23.073,27.742h-4.176c-0.393,0-0.711,0.318-0.711,0.711v4.176h-2.488
		v-4.176c0-0.393-0.318-0.711-0.711-0.711h-4.265v-2.577h4.265c0.393,0,0.711-0.319,0.711-0.711v-4.176h2.488v4.176
		c0,0.393,0.318,0.711,0.711,0.711h4.176V27.742z M23.073,27.742"/>
	<path fill="#161C49" d="M31.468,0c-5.543,0-10.207,3.833-11.482,8.988l-2.677-1.315c-0.197-0.097-0.428-0.097-0.626,0L2.341,14.687
		c-0.248,0.118-0.408,0.364-0.415,0.639v13.421c0,1.651,0.543,3.556,1.499,5.363c0.956,1.81,2.244,3.32,3.613,4.253l9.553,6.513
		c0.242,0.164,0.561,0.164,0.804,0l9.558-6.513c2.851-1.944,5.094-6.168,5.094-9.617v-5.106c6.22-0.294,11.258-5.48,11.258-11.814
		C43.304,5.306,37.989,0,31.468,0L31.468,0z M26.152,37.189L17,43.428l-9.168-6.239c-2.42-1.65-4.484-5.516-4.484-8.442V15.769
		l13.63-6.666l2.736,1.34c-0.05,0.46-0.073,0.922-0.069,1.385c0,6.232,4.849,11.354,10.98,11.795v5.124
		C30.625,31.724,28.614,35.511,26.152,37.189L26.152,37.189z M31.468,22.233c-5.747,0-10.406-4.659-10.406-10.405
		c0-5.747,4.659-10.406,10.405-10.406c5.747,0,10.406,4.659,10.406,10.405C41.867,17.572,37.212,22.227,31.468,22.233L31.468,22.233
		z M31.468,22.233"/>
	<path fill="#161C49" d="M32.746,16.519l6.478-8.107c0.255-0.324,0.202-0.793-0.12-1.051c-0.322-0.257-0.792-0.206-1.051,0.114
		l-6.023,7.54l-4.572-3.432c-0.215-0.161-0.498-0.195-0.745-0.09c-0.246,0.105-0.418,0.334-0.45,0.6
		c-0.032,0.266,0.08,0.529,0.295,0.69l5.153,3.867C32.034,16.893,32.493,16.835,32.746,16.519z"/>
</g>
</svg>
