<?xml version="1.0" encoding="utf-8"?>
<!-- Generator: Adobe Illustrator 17.0.0, SVG Export Plug-In . SVG Version: 6.00 Build 0)  -->
<!DOCTYPE svg PUBLIC "-//W3C//DTD SVG 1.1//EN" "http://www.w3.org/Graphics/SVG/1.1/DTD/svg11.dtd">
<svg version="1.1" id="Camada_1" xmlns="http://www.w3.org/2000/svg" xmlns:xlink="http://www.w3.org/1999/xlink" x="0px" y="0px"
	 width="45px" height="45px" viewBox="0 0 45 45" enable-background="new 0 0 45 45" xml:space="preserve">
<g>
	<path fill="#161C49" d="M44.063,18.75c-6.689,0-10.66,1.552-11.46,1.895C34.29,18.479,35.3,15.76,35.3,12.8
		C35.3,5.731,29.569,0,22.5,0C15.431,0,9.7,5.731,9.7,12.8c0,2.954,1.015,5.66,2.697,7.825h-1.249
		c0.04-0.298,0.075-0.588,0.098-0.857c0.024-0.285-0.081-0.566-0.289-0.761c-1.607-1.523-8.033-2.016-9.964-2.13
		c-0.266-0.013-0.512,0.075-0.699,0.253C0.107,17.306,0,17.554,0,17.813v16.875c0,0.518,0.42,0.938,0.938,0.938h5.625
		c0.405,0,0.765-0.261,0.891-0.647c0.019-0.058,0.1-0.307,0.219-0.684c0.215,0.222,0.447,0.464,0.694,0.721
		c0.836,0.874,1.701,1.778,2.282,2.265c3.491,2.923,7.688,6.079,8.524,6.628C19.862,44.362,21.349,45,22.5,45
		c0.924,0,1.635-0.212,2.128-0.626c0.66,0.257,1.41,0.259,2.132-0.023c0.853-0.33,1.554-0.996,1.952-1.802
		c0.739,0.158,1.584,0.047,2.353-0.339c0.752-0.379,1.296-0.958,1.566-1.635c0.746,0.039,1.515-0.225,2.151-0.771
		c0.856-0.732,1.209-1.787,1.008-2.839l1.491-1.002c0.102,0.329,0.192,0.627,0.253,0.848c0.112,0.407,0.482,0.688,0.904,0.688h5.625
		C44.58,37.5,45,37.08,45,36.563V19.688C45,19.168,44.58,18.75,44.063,18.75z M32.021,21.977c-0.137-0.052-0.302-0.116-0.449-0.173
		c0.124-0.125,0.246-0.252,0.365-0.382C31.911,21.612,31.934,21.803,32.021,21.977z M11.158,12.8
		c0-6.264,5.078-11.342,11.342-11.342c6.264,0,11.342,5.078,11.342,11.342c0,3.349-1.467,6.339-3.776,8.414
		c-1.068-0.427-2.242-0.913-3.434-1.446c-3.379-1.51-5.56-1.045-7.975,0.857h-4.344C12.365,18.59,11.158,15.841,11.158,12.8z
		 M5.878,33.75H1.875V18.818c3.013,0.238,6.264,0.756,7.446,1.329C8.824,24.253,6.576,31.549,5.878,33.75z M33.563,38.378
		c-0.364,0.313-0.857,0.412-1.136,0.234c-0.722-0.587-3.666-3.6-5.497-5.51c-0.358-0.375-0.953-0.388-1.326-0.028
		c-0.375,0.358-0.386,0.953-0.028,1.326c0.435,0.454,3.938,4.104,5.341,5.382c-0.107,0.408-0.499,0.655-0.691,0.751
		c-0.6,0.304-1.226,0.251-1.461,0.034c-0.01-0.009-0.022-0.014-0.032-0.022c-0.008-0.007-0.012-0.018-0.021-0.025
		c-1.123-0.898-3.945-3.896-4.583-4.59c-0.353-0.383-0.943-0.405-1.326-0.056c-0.381,0.351-0.407,0.945-0.056,1.326
		c0.031,0.032,2.78,3,4.337,4.393c-0.176,0.446-0.546,0.832-0.999,1.008c-0.287,0.109-0.703,0.174-1.076-0.167
		c-0.005-0.005-0.011-0.007-0.016-0.012c-0.005-0.004-0.007-0.01-0.012-0.015c-1.337-1.127-4.073-4.039-4.607-4.611
		c-0.354-0.379-0.949-0.399-1.326-0.045c-0.379,0.354-0.398,0.947-0.045,1.326c0.635,0.68,2.526,2.683,3.946,4.02
		c-0.121,0.017-0.264,0.028-0.449,0.028c-0.624,0-1.747-0.422-2.297-0.786c-0.658-0.433-4.785-3.512-8.349-6.497
		c-0.501-0.422-1.367-1.326-2.132-2.124c-0.565-0.59-1.079-1.121-1.423-1.443c0.784-2.587,1.912-6.547,2.536-9.775h5.755
		c-1.281,1.288-3.007,3.868-2.559,5.764c0.193,0.81,0.763,1.41,1.611,1.689c2.124,0.701,4.063,0.03,5.507-1.886
		c0.596-0.092,0.921-0.227,1.408-0.446c0.176-0.079,0.383-0.171,0.656-0.281c1.073,1.007,2.52,2.179,4.044,3.411
		c2.756,2.229,5.882,4.757,6.585,6.219C34.189,37.691,33.816,38.162,33.563,38.378z M34.961,35.264
		c-1.29-1.729-3.938-3.878-6.524-5.971c-1.703-1.376-3.311-2.677-4.337-3.703c-0.257-0.259-0.641-0.341-0.981-0.219
		c-0.632,0.229-1.022,0.405-1.329,0.542c-0.469,0.21-0.626,0.281-1.258,0.345c-0.279,0.028-0.531,0.178-0.686,0.411
		c-1.326,1.982-2.698,1.813-3.615,1.506c-0.293-0.098-0.345-0.223-0.373-0.343c-0.197-0.823,0.791-2.739,2.072-4.02
		c3.047-3.049,4.618-3.812,7.937-2.329c3.147,1.408,6.291,2.556,7.263,2.904c1.103,2.678,2.588,6.83,3.552,9.722L34.961,35.264z
		 M43.125,35.625h-3.986c-0.889-2.895-3.514-10.444-4.978-13.564c1.431-0.486,4.504-1.32,8.964-1.425V35.625z"/>
	<path fill="#161C49" d="M22.731,15.795l6.478-8.107c0.255-0.324,0.202-0.793-0.12-1.051c-0.322-0.257-0.792-0.206-1.051,0.114
		l-6.023,7.54l-4.572-3.432c-0.215-0.161-0.498-0.195-0.745-0.09c-0.246,0.105-0.418,0.334-0.45,0.6
		c-0.032,0.266,0.08,0.529,0.295,0.69l5.153,3.867C22.019,16.17,22.478,16.112,22.731,15.795z"/>
</g>
</svg>
