<svg xmlns="http://www.w3.org/2000/svg" width="45" height="45" viewBox="0 0 45 45">
  <g id="Icone_seg_auto" data-name="Icone seg auto" transform="translate(-2334.775 -1308.479)">
    <path id="Caminho_78" data-name="Caminho 78" d="M2362.231,1328.371l5.859,4.171a.748.748,0,0,0,.87,0l5.859-4.171a4.631,4.631,0,0,0,1.956-3.76v-8.874a.748.748,0,0,0-.45-.688l-7.5-3.24a.749.749,0,0,0-.594,0l-7.5,3.24a.749.749,0,0,0-.45.688v8.874a4.636,4.636,0,0,0,1.95,3.76Zm-.456-12.141,6.75-2.915,6.75,2.915v8.381a3.132,3.132,0,0,1-1.327,2.543l-5.423,3.857-5.423-3.861a3.134,3.134,0,0,1-1.327-2.539Zm0,0" fill="#c9801d"/>
    <path id="Caminho_79" data-name="Caminho 79" d="M2366.575,1326.329a.751.751,0,0,0,1.036-.131l6-7.5a.751.751,0,0,0-1.172-.938l-5.549,6.934-2.415-1.815a.75.75,0,1,0-.9,1.2Zm0,0" fill="#c9801d"/>
    <path id="Caminho_80" data-name="Caminho 80" d="M2336.275,1348.229h.75v3a2.25,2.25,0,0,0,2.25,2.25h4.5a2.249,2.249,0,0,0,2.25-2.25v-3h18v3a2.25,2.25,0,0,0,2.25,2.25h4.5a2.249,2.249,0,0,0,2.25-2.25v-3h.75a1.5,1.5,0,0,0,1.5-1.5v-11.25a3.707,3.707,0,0,0-1.3-2.827l2.58-1.836a7.641,7.641,0,0,0,3.217-6.205v-10.846a.748.748,0,0,0-.45-.688l-10.5-4.536a.748.748,0,0,0-.594,0l-10.506,4.536a.75.75,0,0,0-.45.688v2.964h-11.347a3.75,3.75,0,0,0-3.536,2.5l-4.418,12.552a3.745,3.745,0,0,0-3.2,3.694v11.25a1.5,1.5,0,0,0,1.5,1.5Zm8.25,3a.75.75,0,0,1-.75.75h-4.5a.75.75,0,0,1-.75-.75v-3h6Zm-3-4.5h-1.5v-1.5h1.5Zm30,4.5a.75.75,0,0,1-.75.75h-4.5a.75.75,0,0,1-.75-.75v-3h6Zm-1.5-4.5h-1.5v-1.5h1.5Zm-11.25-32.471,9.75-4.212,9.75,4.212v10.35a6.133,6.133,0,0,1-2.587,4.983l-7.163,5.1-7.163-5.1a6.138,6.138,0,0,1-2.587-4.982Zm11.25,21.971a.75.75,0,0,1,.75.75v1.5a.75.75,0,0,1-.75.75h-4.5a.75.75,0,0,1-.75-.75,2.251,2.251,0,0,1,2.25-2.25Zm-12.75-15v1.5h-5.25v-1.5Zm0-1.5h-1.5v-1.5h1.5Zm-13.468,0a2.253,2.253,0,0,1,2.121-1.5h8.347v1.5h-2.25a1.5,1.5,0,0,0-1.5,1.5v1.5a1.5,1.5,0,0,0,1.5,1.5h5.25v.382a7.641,7.641,0,0,0,3.217,6.205l1.283.913h-22.191Zm-7.532,15.75a2.25,2.25,0,0,1,2.25-2.25h25.357l2.267,1.614a3.751,3.751,0,0,0-2.874,3.636,2.25,2.25,0,0,0,2.25,2.25h4.5a2.249,2.249,0,0,0,2.25-2.25v-1.5a2.25,2.25,0,0,0-1.436-2.091l1.857-1.323a2.217,2.217,0,0,1,1.079,1.914v11.25h-2.25v-1.5a1.5,1.5,0,0,0-1.5-1.5h-1.5a1.5,1.5,0,0,0-1.5,1.5v1.5h-24v-1.5a1.5,1.5,0,0,0-1.5-1.5h-1.5a1.5,1.5,0,0,0-1.5,1.5v1.5h-2.25Zm0,0" fill="#c9801d"/>
    <path id="Caminho_81" data-name="Caminho 81" d="M2348.275,1319.729h-1.283a2.257,2.257,0,0,0-2.123,1.5l-2.815,8a.75.75,0,1,0,1.415.5l2.816-8a.749.749,0,0,1,.707-.5h1.283a.75.75,0,0,0,0-1.5Zm0,0" fill="#c9801d"/>
    <path id="Caminho_82" data-name="Caminho 82" d="M2340.025,1340.729h4.5a2.249,2.249,0,0,0,2.25-2.25,3.755,3.755,0,0,0-3.75-3.75h-3a2.25,2.25,0,0,0-2.25,2.25v1.5a2.25,2.25,0,0,0,2.25,2.25Zm-.75-3.75a.75.75,0,0,1,.75-.75h3a2.25,2.25,0,0,1,2.25,2.25.75.75,0,0,1-.75.75h-4.5a.75.75,0,0,1-.75-.75Zm0,0" fill="#c9801d"/>
    <path id="Caminho_83" data-name="Caminho 83" d="M2349.775,1345.23h10.5a1.5,1.5,0,0,0,1.5-1.5v-3a1.5,1.5,0,0,0-1.5-1.5h-10.5a1.5,1.5,0,0,0-1.5,1.5v3a1.5,1.5,0,0,0,1.5,1.5Zm0-4.5h10.5v3h-10.5Zm0,0" fill="#c9801d"/>
  </g>
</svg>
