<svg xmlns="http://www.w3.org/2000/svg" viewBox="0 0 40 40">
    <g style="fill:#fff" transform="translate(-1405.931 -4348.467)">
        <path id="Caminho_95" d="M1421.931 4348.467a16 16 0 0 0-16 16c0 2.976.062 4.335 1.478 6.722l-1.478 9.278 8.721-1.749a13.55 13.55 0 0 0 7.279 1.749 16 16 0 0 0 0-32zm0 28.666a12.61 12.61 0 0 1-6.233-1.637l-5.629.822.96-5.4a12.668 12.668 0 1 1 10.9 6.215z" class="cls-1" data-name="Caminho 95"/>
        <path id="Caminho_96" d="M1414.835 4370.23a3.793 3.793 0 0 1-.319-1.462.683.683 0 0 1 .028-.231c.029-.078.216-.219.558-.427s.77-.447 1.282-.718l.767-.419c.048-.029.14-.092.275-.188a2.28 2.28 0 0 1 .362-.218.757.757 0 0 1 .3-.072q.262 0 .681.47t.825.949c.271.319.484.478.637.478a.7.7 0 0 0 .24-.051 2.282 2.282 0 0 0 .225-.094c.057-.029.139-.074.245-.137s.175-.1.2-.123a10.487 10.487 0 0 0 4.3-4.3l.123-.2c.062-.1.109-.189.137-.247a1.939 1.939 0 0 0 .1-.224.709.709 0 0 0 .05-.24.816.816 0 0 0-.3-.485 5.683 5.683 0 0 0-.652-.557 4.88 4.88 0 0 1-.652-.572.859.859 0 0 1-.3-.528.727.727 0 0 1 .073-.3 2.256 2.256 0 0 1 .217-.362c.1-.135.16-.227.188-.275s.1-.195.217-.412.237-.438.362-.659.254-.451.385-.688a5.766 5.766 0 0 1 .362-.587.863.863 0 0 1 .238-.261.684.684 0 0 1 .232-.029 3.826 3.826 0 0 1 1.463.319 2.614 2.614 0 0 1 1.158 1.368 4.609 4.609 0 0 1 .493 1.891 3.618 3.618 0 0 1-.036.492c-.025.173-.049.321-.072.442s-.068.279-.131.478-.112.34-.144.427-.095.245-.182.477-.14.377-.159.435a14.733 14.733 0 0 1-7.777 7.777c-.058.019-.2.072-.434.159s-.392.147-.479.181-.229.081-.427.145a4.791 4.791 0 0 1-.478.13q-.18.036-.441.072a3.611 3.611 0 0 1-.493.036 4.6 4.6 0 0 1-1.889-.492 2.62 2.62 0 0 1-1.369-1.159z" class="cls-1" data-name="Caminho 96"/>
    </g>
</svg>
