<?xml version="1.0" encoding="utf-8"?>
<!-- Generator: Adobe Illustrator 17.0.0, SVG Export Plug-In . SVG Version: 6.00 Build 0)  -->
<!DOCTYPE svg PUBLIC "-//W3C//DTD SVG 1.1//EN" "http://www.w3.org/Graphics/SVG/1.1/DTD/svg11.dtd">
<svg version="1.1" id="Camada_1" xmlns="http://www.w3.org/2000/svg" xmlns:xlink="http://www.w3.org/1999/xlink" x="0px" y="0px"
	 width="45px" height="45px" viewBox="0 0 45 45" enable-background="new 0 0 45 45" xml:space="preserve">
<g id="Icone_seg_auto_1_">
	<path fill="#C9801D" d="M27.456,19.892l5.859,4.171c0.261,0.185,0.609,0.185,0.87,0l5.859-4.171
		c1.221-0.864,1.949-2.265,1.956-3.761V7.258c0-0.299-0.176-0.569-0.45-0.688l-7.5-3.24c-0.19-0.082-0.404-0.082-0.594,0l-7.5,3.24
		c-0.274,0.119-0.45,0.39-0.45,0.688v8.874C25.512,17.626,26.238,19.026,27.456,19.892L27.456,19.892z M27,7.75l6.75-2.915
		L40.5,7.75v8.381c-0.006,1.013-0.5,1.96-1.327,2.543l-5.423,3.857l-5.423-3.861c-0.826-0.582-1.32-1.528-1.327-2.539V7.75z
		 M27,7.75"/>
	<path fill="#C9801D" d="M31.8,17.85c0.324,0.243,0.783,0.185,1.036-0.131l6-7.5c0.259-0.323,0.206-0.796-0.117-1.054
		c-0.323-0.259-0.796-0.206-1.054,0.117l-5.55,6.933L29.7,14.4c-0.215-0.161-0.498-0.195-0.745-0.09
		c-0.246,0.105-0.418,0.334-0.45,0.6c-0.032,0.266,0.08,0.529,0.295,0.69L31.8,17.85z M31.8,17.85"/>
	<path fill="#C9801D" d="M1.5,39.75h0.75v3C2.25,43.992,3.257,45,4.5,45H9c1.242,0,2.25-1.008,2.25-2.25v-3h18v3
		c0,1.242,1.007,2.25,2.25,2.25H36c1.243,0,2.25-1.008,2.25-2.25v-3H39c0.829,0,1.5-0.671,1.5-1.5V27
		c0.003-1.087-0.472-2.12-1.297-2.827l2.58-1.836c2.01-1.428,3.208-3.739,3.217-6.205V5.286c0-0.298-0.176-0.569-0.45-0.688
		l-10.5-4.536c-0.19-0.081-0.404-0.081-0.594,0L22.95,4.597c-0.274,0.12-0.45,0.39-0.45,0.688V8.25H11.152
		c-1.59,0.001-3.007,1.004-3.535,2.504L3.199,23.306C1.365,23.575,0.005,25.146,0,27v11.25C0,39.078,0.671,39.75,1.5,39.75
		L1.5,39.75z M9.75,42.75c0,0.414-0.336,0.75-0.75,0.75H4.5c-0.414,0-0.75-0.336-0.75-0.75v-3h6V42.75z M6.75,38.25h-1.5v-1.5h1.5
		V38.25z M36.75,42.75c0,0.414-0.336,0.75-0.75,0.75h-4.5c-0.414,0-0.75-0.336-0.75-0.75v-3h6V42.75z M35.25,38.25h-1.5v-1.5h1.5
		V38.25z M24,5.779l9.75-4.212l9.75,4.212v10.35c-0.007,1.981-0.97,3.837-2.587,4.983l-7.163,5.102l-7.163-5.1
		c-1.616-1.146-2.579-3.001-2.587-4.982V5.779z M35.25,27.75c0.414,0,0.75,0.336,0.75,0.75V30c0,0.414-0.336,0.75-0.75,0.75h-4.5
		C30.336,30.75,30,30.414,30,30c0-1.243,1.008-2.25,2.25-2.25H35.25z M22.5,12.75v1.5h-5.25v-1.5H22.5z M22.5,11.25H21v-1.5h1.5
		V11.25z M9.032,11.25c0.318-0.899,1.167-1.5,2.12-1.5H19.5v1.5h-2.25c-0.829,0-1.5,0.671-1.5,1.5v1.5c0,0.828,0.672,1.5,1.5,1.5
		h5.25v0.382c0.008,2.466,1.206,4.777,3.217,6.205L27,23.25H4.809L9.032,11.25z M1.5,27c0-1.242,1.007-2.25,2.25-2.25h25.357
		l2.267,1.614C29.692,26.768,28.505,28.27,28.5,30c0,1.243,1.008,2.25,2.25,2.25h4.5c1.242,0,2.25-1.007,2.25-2.25v-1.5
		c-0.002-0.926-0.573-1.756-1.436-2.091l1.857-1.323C38.594,25.489,39.004,26.216,39,27v11.25h-2.25v-1.5c0-0.829-0.672-1.5-1.5-1.5
		h-1.5c-0.829,0-1.5,0.671-1.5,1.5v1.5h-24v-1.5c0-0.829-0.671-1.5-1.5-1.5h-1.5c-0.829,0-1.5,0.671-1.5,1.5v1.5H1.5V27z M1.5,27"/>
	<path fill="#C9801D" d="M13.5,11.25h-1.283c-0.954,0.001-1.803,0.602-2.123,1.5l-2.815,8.001c-0.138,0.391,0.068,0.819,0.459,0.957
		c0.39,0.137,0.819-0.068,0.956-0.459l2.816-7.998c0.106-0.3,0.389-0.501,0.707-0.501H13.5c0.414,0,0.75-0.336,0.75-0.75
		C14.25,11.586,13.914,11.25,13.5,11.25L13.5,11.25z M13.5,11.25"/>
	<path fill="#C9801D" d="M5.25,32.25h4.5c1.243,0,2.25-1.007,2.25-2.25c-0.002-2.07-1.68-3.748-3.75-3.75h-3
		C4.007,26.25,3,27.257,3,28.5V30C3,31.243,4.007,32.25,5.25,32.25L5.25,32.25z M4.5,28.5c0-0.414,0.336-0.75,0.75-0.75h3
		c1.243,0,2.25,1.007,2.25,2.25c0,0.414-0.336,0.75-0.75,0.75h-4.5c-0.414,0-0.75-0.336-0.75-0.75V28.5z M4.5,28.5"/>
	<path fill="#C9801D" d="M15,36.75h10.5c0.828,0,1.5-0.672,1.5-1.5v-3c0-0.829-0.671-1.5-1.5-1.5H15c-0.829,0-1.5,0.672-1.5,1.5v3
		C13.5,36.079,14.171,36.75,15,36.75L15,36.75z M15,32.25h10.5v3H15V32.25z M15,32.25"/>
</g>
</svg>
