<?xml version="1.0" encoding="utf-8"?>
<!-- Generator: Adobe Illustrator 17.0.0, SVG Export Plug-In . SVG Version: 6.00 Build 0)  -->
<!DOCTYPE svg PUBLIC "-//W3C//DTD SVG 1.1//EN" "http://www.w3.org/Graphics/SVG/1.1/DTD/svg11.dtd">
<svg version="1.1" id="Camada_1" xmlns="http://www.w3.org/2000/svg" xmlns:xlink="http://www.w3.org/1999/xlink" x="0px" y="0px"
	 width="45px" height="45px" viewBox="0 0 45 45" enable-background="new 0 0 45 45" xml:space="preserve">
<g>
	<path fill="#161C49" d="M15.175,7.605l-3.567,4.429L9.189,10.22c-0.215-0.161-0.498-0.195-0.745-0.09
		c-0.246,0.105-0.418,0.334-0.45,0.6c-0.032,0.266,0.08,0.529,0.295,0.69l3,2.25c0.324,0.243,0.783,0.185,1.036-0.131l4.022-4.997
		c0.255-0.324,0.202-0.793-0.12-1.051C15.904,7.234,15.434,7.285,15.175,7.605z"/>
	<path fill="#161C49" d="M15.175,19.107l-3.567,4.429l-2.418-1.815c-0.215-0.161-0.498-0.195-0.745-0.09
		c-0.246,0.105-0.418,0.334-0.45,0.6c-0.032,0.266,0.08,0.529,0.295,0.69l3,2.25c0.324,0.243,0.783,0.185,1.036-0.131l4.022-4.997
		c0.255-0.324,0.202-0.793-0.12-1.051C15.904,18.735,15.434,18.786,15.175,19.107z"/>
	<path fill="#161C49" d="M15.175,30.608l-3.567,4.429l-2.418-1.815c-0.215-0.161-0.498-0.195-0.745-0.09
		c-0.246,0.105-0.418,0.334-0.45,0.6c-0.032,0.266,0.08,0.529,0.295,0.69l3,2.25c0.324,0.243,0.783,0.185,1.036-0.131l4.022-4.997
		c0.255-0.324,0.202-0.793-0.12-1.051C15.904,30.237,15.434,30.288,15.175,30.608z"/>
	<path fill="#161C49" d="M19.1,11.307h9.333c0.405,0,0.733-0.328,0.733-0.733c0-0.405-0.328-0.734-0.733-0.734H19.1
		c-0.405,0-0.733,0.329-0.733,0.734C18.367,10.979,18.695,11.307,19.1,11.307z"/>
	<path fill="#161C49" d="M32.529,19.416V2.467c0-0.81-0.657-1.467-1.467-1.467H4.3C3.49,1,2.833,1.657,2.833,2.467v1.455H1.466
		C0.657,3.922,0,4.579,0,5.389v2.467c0,0.81,0.657,1.466,1.466,1.466h1.367v2.685H1.466C0.657,12.007,0,12.663,0,13.474v2.467
		c0,0.81,0.657,1.466,1.466,1.466h1.367v2.685H1.466C0.657,20.092,0,20.748,0,21.558v2.467c0,0.81,0.657,1.466,1.466,1.466h1.367
		v2.685H1.466C0.657,28.177,0,28.833,0,29.643v2.467c0,0.81,0.657,1.466,1.466,1.466h1.367v2.685H1.466
		C0.657,36.261,0,36.918,0,37.728v2.467c0,0.81,0.657,1.466,1.466,1.466h1.367v1.872C2.833,44.343,3.49,45,4.3,45h26.762
		c0.114,0,0.224-0.015,0.331-0.041C31.661,44.976,31.927,45,32.2,45C39.269,45,45,39.269,45,32.2
		C45,25.241,39.445,19.592,32.529,19.416z M1.466,7.856V5.389H5.4v2.467H1.466z M1.466,15.94v-2.467H5.4v2.467H1.466z M1.466,24.025
		v-2.467H5.4v2.467H1.466z M1.466,32.11v-2.467H5.4v2.467H1.466z M1.466,40.195v-2.467H5.4v2.467H1.466z M4.3,43.533v-1.872h1.1
		c0.81,0,1.467-0.657,1.467-1.466v-2.467c0-0.81-0.657-1.467-1.467-1.467H4.3v-2.685h1.1c0.81,0,1.467-0.657,1.467-1.466v-2.467
		c0-0.81-0.657-1.467-1.467-1.467H4.3v-2.685h1.1c0.81,0,1.467-0.657,1.467-1.466v-2.467c0-0.81-0.657-1.467-1.467-1.467H4.3v-2.685
		h1.1c0.81,0,1.467-0.657,1.467-1.466v-2.467c0-0.81-0.657-1.467-1.467-1.467H4.3V9.322h1.1c0.81,0,1.467-0.657,1.467-1.466V5.389
		c0-0.81-0.657-1.467-1.467-1.467H4.3V2.467h26.762v16.99c-2.493,0.22-4.775,1.158-6.651,2.601H19.1
		c-0.405,0-0.733,0.329-0.733,0.734c0,0.405,0.328,0.733,0.733,0.733h3.707C20.698,25.807,19.4,28.848,19.4,32.2
		c0,0.72,0.074,1.422,0.188,2.11H19.1c-0.405,0-0.733,0.329-0.733,0.734c0,0.405,0.328,0.733,0.733,0.733h0.816
		c0.979,3.366,3.297,6.156,6.345,7.757H4.3z M32.2,43.542c-6.264,0-11.342-5.078-11.342-11.342S25.936,20.857,32.2,20.857
		c6.264,0,11.342,5.078,11.342,11.342S38.464,43.542,32.2,43.542z"/>
	<path fill="#161C49" d="M39.73,32.383h-6.976v-4.84c0-0.405-0.328-0.733-0.733-0.733c-0.405,0-0.734,0.328-0.734,0.733v5.574
		c0,0.405,0.328,0.733,0.733,0.733h7.71c0.405,0,0.733-0.328,0.733-0.733C40.463,32.712,40.135,32.383,39.73,32.383z"/>
</g>
</svg>
