<?xml version="1.0" encoding="utf-8"?>
<!-- Generator: Adobe Illustrator 17.0.0, SVG Export Plug-In . SVG Version: 6.00 Build 0)  -->
<!DOCTYPE svg PUBLIC "-//W3C//DTD SVG 1.1//EN" "http://www.w3.org/Graphics/SVG/1.1/DTD/svg11.dtd">
<svg version="1.1" id="Camada_1" xmlns="http://www.w3.org/2000/svg" xmlns:xlink="http://www.w3.org/1999/xlink" x="0px" y="0px"
	 width="45px" height="45px" viewBox="0 0 45 45" enable-background="new 0 0 45 45" xml:space="preserve">
<g>
	<path fill="#C9801D" d="M32.975,0.098c-6.592,0-11.956,5.363-11.956,11.956c0,0.367,0.018,0.73,0.05,1.089
		c-1.86,0.266-7.126,1.584-8.519,1.942c-0.612-0.294-1.2-0.636-1.758-1.022c-0.729-0.481-1.358-0.897-2.125-0.957
		c-2.402-0.19-4.764,0.7-6.444,2.428c-1.68,1.728-2.503,4.114-2.246,6.51c0.481,4.378,2.122,13.08,7.704,22.169
		c0.29,0.472,0.834,0.725,1.381,0.642c0.548-0.082,0.993-0.483,1.132-1.019l0.582-2.255c0.595-2.3,1.771-4.408,3.415-6.122
		l0.194-0.202c0.231-0.24,0.612-0.248,0.853-0.018l0.235,0.225c1.799,1.721,3.1,3.896,3.765,6.296l0.592,2.133
		c0.142,0.531,0.591,0.925,1.136,0.997c0.066,0.009,0.134,0.014,0.201,0.014c0.477,0.001,0.921-0.249,1.167-0.658
		c5.06-8.228,6.876-16.179,7.526-20.648c1.015,0.274,2.062,0.413,3.114,0.412c6.592,0,11.956-5.364,11.956-11.956
		C44.931,5.46,39.568,0.098,32.975,0.098L32.975,0.098z M21.18,43.381l-0.556-2.006c-0.735-2.649-2.171-5.05-4.157-6.95
		l-0.235-0.225c-0.814-0.776-2.102-0.749-2.883,0.061l-0.194,0.202c-1.815,1.892-3.114,4.22-3.77,6.759l-0.548,2.124
		c-5.379-8.809-6.964-17.22-7.43-21.46c-0.21-1.97,0.468-3.932,1.85-5.352c1.382-1.42,3.324-2.152,5.3-1.996
		c0.397,0.031,0.86,0.337,1.445,0.724c1.607,1.062,4.035,2.666,9.566,1.975l-0.178-1.426c-1.633,0.204-2.953,0.195-4.044,0.056
		c2.178-0.532,4.872-1.157,5.941-1.304c0.838,3.866,3.528,7.072,7.191,8.568C27.881,27.404,26.156,35.243,21.18,43.381L21.18,43.381
		z M32.975,22.572c-5.809,0-10.519-4.709-10.519-10.519c0-5.809,4.71-10.519,10.519-10.519c5.809,0,10.519,4.71,10.518,10.519
		C43.488,17.86,38.782,22.566,32.975,22.572L32.975,22.572z M32.975,22.572"/>
	<path fill="#C9801D" d="M32.746,17.002l6.478-8.107c0.255-0.324,0.202-0.793-0.12-1.051c-0.322-0.257-0.792-0.206-1.051,0.114
		l-6.023,7.54l-4.572-3.432c-0.215-0.161-0.498-0.195-0.745-0.09c-0.246,0.105-0.418,0.334-0.45,0.6
		c-0.032,0.266,0.08,0.529,0.295,0.69l5.153,3.867C32.034,17.377,32.493,17.318,32.746,17.002z"/>
</g>
</svg>
