<?xml version="1.0" encoding="utf-8"?>
<!-- Generator: Adobe Illustrator 17.0.0, SVG Export Plug-In . SVG Version: 6.00 Build 0)  -->
<!DOCTYPE svg PUBLIC "-//W3C//DTD SVG 1.1//EN" "http://www.w3.org/Graphics/SVG/1.1/DTD/svg11.dtd">
<svg version="1.1" id="Camada_1" xmlns="http://www.w3.org/2000/svg" xmlns:xlink="http://www.w3.org/1999/xlink" x="0px" y="0px"
	 width="45px" height="45px" viewBox="0 0 45 45" enable-background="new 0 0 45 45" xml:space="preserve">
<g>
	<path fill="#C9801D" d="M13.5,11.25h-1.283c-0.954,0.001-1.803,0.602-2.123,1.5l-2.815,8.001c-0.138,0.391,0.068,0.819,0.459,0.957
		c0.391,0.137,0.819-0.068,0.956-0.459l2.816-7.998c0.106-0.3,0.389-0.501,0.707-0.501H13.5c0.414,0,0.75-0.336,0.75-0.75
		C14.25,11.586,13.914,11.25,13.5,11.25z"/>
	<path fill="#C9801D" d="M8.25,26.25h-3C4.007,26.25,3,27.258,3,28.5V30c0,1.243,1.007,2.25,2.25,2.25h4.5
		c1.243,0,2.25-1.007,2.25-2.25C11.998,27.93,10.32,26.252,8.25,26.25z M9.75,30.75h-4.5c-0.414,0-0.75-0.336-0.75-0.75v-1.5
		c0-0.414,0.336-0.75,0.75-0.75h3c1.243,0,2.25,1.007,2.25,2.25C10.5,30.414,10.164,30.75,9.75,30.75z"/>
	<path fill="#C9801D" d="M25.5,30.75H15c-0.828,0-1.5,0.672-1.5,1.5v3c0,0.829,0.672,1.5,1.5,1.5h10.5c0.828,0,1.5-0.672,1.5-1.5v-3
		C27,31.421,26.328,30.75,25.5,30.75z M25.5,35.25H15v-3h10.5V35.25z"/>
	<path fill="#C9801D" d="M33.737,13.092l-1.901-0.668c-0.416-0.138-0.701-0.282-0.854-0.43c-0.154-0.149-0.23-0.391-0.23-0.728
		c0-0.416,0.099-0.676,0.297-0.78c0.198-0.104,0.589-0.156,1.173-0.156c1.257,0,2.317,0.015,3.178,0.044l0.134-1.544
		c-0.564-0.158-1.203-0.272-1.916-0.341l0.148-1.396h-1.648l-0.134,1.336c-0.861,0.01-1.532,0.092-2.012,0.245
		c-0.48,0.154-0.841,0.436-1.084,0.846c-0.243,0.411-0.364,0.992-0.364,1.745c0,0.772,0.161,1.396,0.483,1.871
		c0.322,0.475,0.859,0.852,1.611,1.129l2.02,0.728c0.376,0.119,0.634,0.25,0.772,0.394c0.138,0.143,0.208,0.389,0.208,0.735
		c0,0.386-0.102,0.641-0.305,0.765c-0.203,0.124-0.601,0.186-1.195,0.186c-0.574,0-1.688-0.02-3.341-0.059l-0.148,1.663
		c0.802,0.169,1.544,0.277,2.227,0.327l-0.148,1.648h1.648l0.149-1.604c1.247-0.02,2.121-0.243,2.621-0.668
		c0.5-0.425,0.75-1.183,0.75-2.272c0-0.772-0.161-1.398-0.483-1.878S34.519,13.369,33.737,13.092z"/>
	<path fill="#C9801D" d="M45,13.871c0-7.069-5.731-12.8-12.8-12.8c-5.136,0-9.554,3.033-11.592,7.399
		c0.034-0.072,0.061-0.148,0.096-0.22h-9.55c-1.59,0.001-3.007,1.004-3.535,2.504L3.199,23.306C1.365,23.575,0.005,25.146,0,27
		v11.25c0,0.829,0.672,1.5,1.5,1.5h0.75v3C2.25,43.992,3.258,45,4.5,45H9c1.242,0,2.25-1.008,2.25-2.25v-3h18v3
		c0,1.242,1.007,2.25,2.25,2.25H36c1.243,0,2.25-1.008,2.25-2.25v-3H39c0.829,0,1.5-0.672,1.5-1.5V27
		c0.002-0.97-0.393-1.884-1.062-2.575C42.796,22.117,45,18.253,45,13.871z M9.032,11.25c0.318-0.899,1.167-1.5,2.12-1.5H19.5v1.5
		h-2.25c-0.829,0-1.5,0.672-1.5,1.5v1.5c0,0.828,0.672,1.5,1.5,1.5h2.303c0.435,2.949,1.87,5.565,3.956,7.5h-18.7L9.032,11.25z
		 M19.419,14.25H17.25v-1.5h2.205c0-0.005,0.001-0.009,0.002-0.013c-0.033,0.375-0.057,0.752-0.057,1.135
		C19.4,13.999,19.415,14.123,19.419,14.25z M9.75,42.75c0,0.414-0.336,0.75-0.75,0.75H4.5c-0.414,0-0.75-0.336-0.75-0.75v-3h6V42.75
		z M5.25,38.25v-1.5h1.5v1.5H5.25z M36.75,42.75c0,0.414-0.336,0.75-0.75,0.75h-4.5c-0.414,0-0.75-0.336-0.75-0.75v-3h6V42.75z
		 M33.75,38.25v-1.5h1.5v1.5H33.75z M39,38.25h-2.25v-1.5c0-0.829-0.672-1.5-1.5-1.5h-1.5c-0.828,0-1.5,0.672-1.5,1.5v1.5h-24v-1.5
		c0-0.829-0.672-1.5-1.5-1.5h-1.5c-0.829,0-1.5,0.672-1.5,1.5v1.5H1.5V27c0-1.242,1.007-2.25,2.25-2.25h21.728
		c1.563,0.968,3.343,1.614,5.258,1.832C29.4,27.171,28.504,28.499,28.5,30c0,1.243,1.008,2.25,2.25,2.25h4.5
		c1.242,0,2.25-1.007,2.25-2.25v-1.5c-0.002-0.926-0.573-1.756-1.436-2.091l0.962-0.685c0.366-0.149,0.721-0.316,1.069-0.497
		C38.656,25.644,39.003,26.292,39,27V38.25z M32.25,27.75h3c0.414,0,0.75,0.336,0.75,0.75V30c0,0.414-0.336,0.75-0.75,0.75h-4.5
		C30.336,30.75,30,30.414,30,30C30,28.757,31.008,27.75,32.25,27.75z M32.2,25.214c-6.264,0-11.342-5.078-11.342-11.342
		c0-6.264,5.078-11.342,11.342-11.342c6.264,0,11.342,5.078,11.342,11.342C43.542,20.136,38.464,25.214,32.2,25.214z"/>
</g>
</svg>
