<?xml version="1.0" encoding="utf-8"?>
<!-- Generator: Adobe Illustrator 17.0.0, SVG Export Plug-In . SVG Version: 6.00 Build 0)  -->
<!DOCTYPE svg PUBLIC "-//W3C//DTD SVG 1.1//EN" "http://www.w3.org/Graphics/SVG/1.1/DTD/svg11.dtd">
<svg version="1.1" id="Camada_1" xmlns="http://www.w3.org/2000/svg" xmlns:xlink="http://www.w3.org/1999/xlink" x="0px" y="0px"
	 width="45px" height="45px" viewBox="0 0 45 45" enable-background="new 0 0 45 45" xml:space="preserve">
<g>
	<path fill="#161C49" d="M43.959,33.595l-2.742-2.852V15.667c0-0.81-0.657-1.467-1.467-1.467H36.3
		c-0.681-5.317-4.616-9.605-9.75-10.811V2.467C26.55,1.657,25.893,1,25.083,1h-22c-0.81,0-1.467,0.657-1.467,1.467v41.066
		c0,0.81,0.657,1.467,1.467,1.467H39.75c0.81,0,1.467-0.657,1.467-1.467v-8.075l0.431,0.448c0.749,0.749,1.796,0.927,2.46,0.263
		l0.114-0.114C44.886,35.391,44.708,34.344,43.959,33.595z M39.75,15.667v13.551l-2.244-2.333c0.022-0.07,0.044-0.14,0.044-0.217
		v-2.934c0-0.405-0.329-0.733-0.734-0.733c-0.405,0-0.733,0.328-0.733,0.733v1.671l-1.958-2.036
		c-0.042-0.042-0.065-0.087-0.076-0.13c0.955-1.343,1.654-2.876,2.034-4.534V20.8c0,0.405,0.328,0.733,0.733,0.733
		c0.405,0,0.734-0.328,0.734-0.733v-2.934c0-0.405-0.329-0.733-0.734-0.733c-0.192,0-0.363,0.078-0.494,0.198
		c0.057-0.491,0.094-0.987,0.094-1.494c0-0.058-0.008-0.114-0.009-0.171H39.75z M34.959,15.838c0,6.264-5.078,11.342-11.342,11.342
		s-11.342-5.078-11.342-11.342c0-6.264,5.078-11.342,11.342-11.342S34.959,9.574,34.959,15.838z M20.683,28.287
		c0.48,0.113,0.968,0.204,1.467,0.261v1.785h-1.467V28.287z M14.816,6.559c-0.536,0.509-1.025,1.064-1.467,1.658V5.4h1.467V6.559z
		 M13.35,43.533h-2.933v-6.6c0-1.215,0.985-2.2,2.2-2.2h0.733V43.533z M17.75,43.533h-2.934v-8.8h0.734c1.215,0,2.2,0.985,2.2,2.2
		V43.533z M19.217,43.533v-6.6c-0.003-2.024-1.643-3.664-3.667-3.667h-2.934c-2.024,0.002-3.664,1.643-3.667,3.667v6.6H3.083V2.467
		h22v0.661c-0.482-0.055-0.97-0.09-1.467-0.09c-2.732,0-5.259,0.863-7.337,2.321c-0.022-0.79-0.666-1.425-1.463-1.425H13.35
		c-0.81,0-1.466,0.657-1.466,1.466v2.934c0,0.489,0.245,0.915,0.614,1.18c-1.064,1.867-1.681,4.022-1.681,6.325
		c0,1.818,0.384,3.544,1.067,5.109V23c0,0.81,0.657,1.467,1.466,1.467h0.832c1.371,1.499,3.091,2.666,5.035,3.379v2.488
		c0,0.81,0.657,1.467,1.466,1.467h1.467c0.81,0,1.467-0.657,1.467-1.467v-1.695c0.497,0,0.985-0.035,1.467-0.09v14.985H19.217z
		 M35.532,43.533H30.95v-2.893l-0.005-0.002v-6.709h1.04h2.507h1.04V43.533z M39.75,43.533h-2.752v-9.604
		c0-0.81-0.657-1.467-1.467-1.467h-1.04h-2.507h-1.04c-0.81,0-1.467,0.657-1.467,1.467v9.604H26.55V28.287
		c1.962-0.461,3.754-1.363,5.252-2.612c0.006,0.006,0.013,0.005,0.019,0.012l0.595,0.619v0.361c0,0.405,0.328,0.733,0.733,0.733
		c0.095,0,0.184-0.021,0.267-0.054l6.334,6.587V43.533z"/>
	<path fill="#161C49" d="M7.483,25.934H6.016c-0.81,0-1.466,0.657-1.466,1.466v2.934c0,0.81,0.657,1.467,1.466,1.467h1.467
		c0.81,0,1.467-0.657,1.467-1.467V27.4C8.95,26.59,8.293,25.934,7.483,25.934z M7.483,30.333H6.016V27.4h1.467V30.333z"/>
	<path fill="#161C49" d="M14.816,25.934H13.35c-0.81,0-1.466,0.657-1.466,1.466v2.934c0,0.81,0.657,1.467,1.466,1.467h1.467
		c0.81,0,1.467-0.657,1.467-1.467V27.4C16.283,26.59,15.627,25.934,14.816,25.934z M14.816,30.333H13.35V27.4h1.467V30.333z"/>
	<path fill="#161C49" d="M7.483,18.6H6.016c-0.81,0-1.466,0.657-1.466,1.466V23c0,0.81,0.657,1.467,1.466,1.467h1.467
		c0.81,0,1.467-0.657,1.467-1.467v-2.934C8.95,19.257,8.293,18.6,7.483,18.6z M7.483,23H6.016v-2.934h1.467V23z"/>
	<path fill="#161C49" d="M7.483,11.267H6.016c-0.81,0-1.466,0.657-1.466,1.466v2.934c0,0.81,0.657,1.467,1.466,1.467h1.467
		c0.81,0,1.467-0.657,1.467-1.467v-2.934C8.95,11.923,8.293,11.267,7.483,11.267z M7.483,15.667H6.016v-2.934h1.467V15.667z"/>
	<path fill="#161C49" d="M7.483,3.934H6.016C5.207,3.934,4.55,4.59,4.55,5.4v2.934c0,0.81,0.657,1.467,1.466,1.467h1.467
		c0.81,0,1.467-0.657,1.467-1.467V5.4C8.95,4.59,8.293,3.934,7.483,3.934z M7.483,8.333H6.016V5.4h1.467V8.333z"/>
	<path fill="#161C49" d="M19.202,8.559c-0.037,0.014-0.067,0.036-0.101,0.055c-0.023,0.014-0.048,0.024-0.071,0.039l0.004,0.006
		c-0.218,0.151-0.37,0.39-0.37,0.675c0,0.461,0.374,0.836,0.836,0.836c0.189,0,0.356-0.074,0.496-0.181
		c1.053-0.654,2.29-1.041,3.621-1.041c2.489,0,4.659,1.327,5.869,3.305c0.124,0.306,0.422,0.523,0.772,0.523
		c0.461,0,0.836-0.374,0.836-0.836c0-0.231-0.094-0.44-0.246-0.592c-1.505-2.419-4.172-4.041-7.231-4.041
		C21.997,7.308,20.492,7.775,19.202,8.559z"/>
</g>
</svg>
