<svg xmlns="http://www.w3.org/2000/svg" width="45.002" height="45" viewBox="0 0 45.002 45">
  <g id="Agrupar_88" data-name="Agrupar 88" transform="translate(-2334.774 -927.729)">
    <path id="Caminho_84" data-name="Caminho 84" d="M2379.326,932.327l-10.5-4.536a.748.748,0,0,0-.594,0l-10.5,4.536a.749.749,0,0,0-.45.688v6.334a11.74,11.74,0,0,0-3,3.046,10.855,10.855,0,0,0-9.032-4.915c-6.458,0-10.47,4.328-10.47,11.3a14.115,14.115,0,0,0,1.561,6.7h-.811a.75.75,0,0,0,0,1.5h1.736a25.36,25.36,0,0,0,3.459,3.8c.422.4.833.789,1.216,1.177,2.765,2.8,11.481,10.275,11.85,10.589a.75.75,0,0,0,.975,0c.371-.317,9.086-7.786,11.85-10.589.384-.388.794-.777,1.217-1.177a23.762,23.762,0,0,0,3.706-4.142,13.054,13.054,0,0,0,1.842-4.312l3.183-2.266a7.637,7.637,0,0,0,3.216-6.2V933.015a.746.746,0,0,0-.45-.688Zm-43.05,16.448c0-6.134,3.353-9.8,8.97-9.8a9.548,9.548,0,0,1,8.355,5.209.754.754,0,0,0,1.347,0,10.19,10.19,0,0,1,2.328-2.941v2.612a7.641,7.641,0,0,0,3.217,6.2l.7.5-1.476,4.914h-2.443a.749.749,0,0,0-.671.415l-1.142,2.285-1.193-9.543a.75.75,0,0,0-1.462-.122l-2.09,6.965h-2.442a.75.75,0,0,0-.6.3l-1.18,1.575-1.229-7.988a.75.75,0,0,0-1.452-.123l-2.079,6.236h-3.675a12.423,12.423,0,0,1-1.785-6.7Zm34.009,7.042a22.278,22.278,0,0,1-3.484,3.878c-.435.411-.858.813-1.253,1.214-2.353,2.383-9.357,8.435-11.272,10.082-1.914-1.65-8.919-7.7-11.271-10.082-.394-.4-.817-.8-1.253-1.214a29.518,29.518,0,0,1-2.622-2.715h3.146a.75.75,0,0,0,.711-.513l1.27-3.807,1.028,6.684a.75.75,0,0,0,1.341.336l2.025-2.7h2.625a.75.75,0,0,0,.719-.535l1.231-4.094,1.059,8.475a.752.752,0,0,0,.617.647,1.029,1.029,0,0,0,.124.007.749.749,0,0,0,.671-.415l2.043-4.085h2.536a.752.752,0,0,0,.719-.534l1.251-4.162,1.037,7.795a.75.75,0,0,0,1.386.287l2.25-3.75a.75.75,0,1,0-1.285-.773l-1.147,1.912-.712-5.35,3.975,2.83a1.342,1.342,0,0,0,1.553,0l2.061-1.468a11.691,11.691,0,0,1-1.079,2.05Zm7.991-11.956a6.132,6.132,0,0,1-2.587,4.983l-7.163,5.1-7.163-5.1a6.138,6.138,0,0,1-2.587-4.982V933.509l9.75-4.212,9.75,4.212Zm0,0" fill="#c9801d"/>
    <path id="Caminho_85" data-name="Caminho 85" d="M2368.226,931.059l-7.5,3.24a.753.753,0,0,0-.45.689v8.873a4.637,4.637,0,0,0,1.956,3.76l5.859,4.171a.748.748,0,0,0,.87,0l5.859-4.17a4.633,4.633,0,0,0,1.956-3.761v-8.873a.751.751,0,0,0-.45-.689l-7.5-3.24a.745.745,0,0,0-.6,0Zm7.05,4.425v8.377a3.127,3.127,0,0,1-1.327,2.539l-5.423,3.861L2363.1,946.4a3.133,3.133,0,0,1-1.327-2.539V935.48l6.75-2.916Zm0,0" fill="#c9801d"/>
    <path id="Caminho_86" data-name="Caminho 86" d="M2364.476,942.13a.75.75,0,0,0-.9,1.2l3,2.25a.75.75,0,0,0,1.036-.132l6-7.5a.75.75,0,0,0-1.171-.936l-5.55,6.932Zm0,0" fill="#c9801d"/>
  </g>
</svg>
