<?xml version="1.0" encoding="utf-8"?>
<!-- Generator: Adobe Illustrator 17.0.0, SVG Export Plug-In . SVG Version: 6.00 Build 0)  -->
<!DOCTYPE svg PUBLIC "-//W3C//DTD SVG 1.1//EN" "http://www.w3.org/Graphics/SVG/1.1/DTD/svg11.dtd">
<svg version="1.1" id="Camada_1" xmlns="http://www.w3.org/2000/svg" xmlns:xlink="http://www.w3.org/1999/xlink" x="0px" y="0px"
	 width="45px" height="45px" viewBox="0 0 45 45" enable-background="new 0 0 45 45" xml:space="preserve">
<g>
	<path fill="#161C49" d="M31.862,31.42l-1.901-0.668c-0.416-0.138-0.701-0.282-0.854-0.431c-0.154-0.149-0.23-0.391-0.23-0.728
		c0-0.416,0.099-0.676,0.297-0.78c0.198-0.104,0.589-0.156,1.173-0.156c1.257,0,2.317,0.015,3.178,0.045l0.134-1.544
		c-0.564-0.158-1.203-0.272-1.916-0.342l0.148-1.396h-1.648l-0.134,1.336c-0.861,0.01-1.532,0.092-2.012,0.245
		c-0.48,0.154-0.841,0.436-1.084,0.846c-0.243,0.411-0.364,0.992-0.364,1.745c0,0.772,0.161,1.396,0.483,1.871
		c0.322,0.475,0.859,0.852,1.611,1.129l2.02,0.728c0.376,0.119,0.634,0.25,0.772,0.394c0.138,0.143,0.208,0.389,0.208,0.735
		c0,0.386-0.102,0.641-0.305,0.765c-0.203,0.124-0.601,0.186-1.195,0.186c-0.574,0-1.688-0.02-3.341-0.059l-0.148,1.663
		c0.802,0.169,1.544,0.277,2.227,0.327l-0.148,1.648h1.648l0.149-1.604c1.247-0.02,2.121-0.243,2.621-0.668
		c0.5-0.425,0.75-1.183,0.75-2.272c0-0.772-0.161-1.398-0.483-1.879S32.644,31.698,31.862,31.42z"/>
	<path fill="#161C49" d="M30.325,19.4c-0.212,0-0.419,0.022-0.629,0.032V3.36c0-0.81-0.657-1.467-1.467-1.467H1.467
		C0.657,1.893,0,2.55,0,3.36v1.211v0.244v38.718C0,44.343,0.657,45,1.467,45l26.762,0c0.19,0,0.371-0.038,0.537-0.104
		C29.278,44.958,29.796,45,30.325,45c7.069,0,12.8-5.731,12.8-12.8S37.394,19.4,30.325,19.4z M1.467,43.533V4.815V4.571V3.36h26.762
		v16.226c-2.326,0.384-4.441,1.385-6.164,2.844h-6.239c-0.405,0-0.733,0.329-0.733,0.734c0,0.405,0.328,0.733,0.733,0.733h4.768
		c-1.91,2.236-3.069,5.132-3.069,8.303c0,0.343,0.025,0.679,0.051,1.015h-1.75c-0.405,0-0.733,0.329-0.733,0.734
		c0,0.405,0.328,0.733,0.733,0.733h1.944c0.757,3.853,3.243,7.08,6.616,8.852L1.467,43.533z M30.325,43.542
		c-6.264,0-11.342-5.078-11.342-11.342s5.078-11.342,11.342-11.342c6.264,0,11.342,5.078,11.342,11.342S36.589,43.542,30.325,43.542
		z"/>
	<path fill="#161C49" d="M11.901,7.977l-3.567,4.429l-2.418-1.815c-0.215-0.161-0.498-0.195-0.745-0.09
		c-0.246,0.105-0.418,0.334-0.45,0.6c-0.032,0.266,0.08,0.529,0.295,0.69l3,2.25c0.324,0.243,0.783,0.185,1.036-0.131l4.022-4.997
		c0.255-0.324,0.202-0.793-0.12-1.051C12.63,7.606,12.16,7.656,11.901,7.977z"/>
	<path fill="#161C49" d="M11.901,19.478l-3.567,4.429l-2.418-1.815c-0.215-0.161-0.498-0.195-0.745-0.09
		c-0.246,0.105-0.418,0.334-0.45,0.6c-0.032,0.266,0.08,0.529,0.295,0.69l3,2.25c0.324,0.243,0.783,0.185,1.036-0.131l4.022-4.997
		c0.255-0.324,0.202-0.793-0.12-1.051C12.63,19.107,12.16,19.158,11.901,19.478z"/>
	<path fill="#161C49" d="M11.901,30.98l-3.567,4.429l-2.418-1.815c-0.215-0.161-0.498-0.195-0.745-0.09
		c-0.246,0.105-0.418,0.334-0.45,0.6c-0.032,0.266,0.08,0.529,0.295,0.69l3,2.25c0.324,0.243,0.783,0.185,1.036-0.131l4.022-4.997
		c0.255-0.324,0.202-0.793-0.12-1.051C12.63,30.608,12.16,30.659,11.901,30.98z"/>
	<path fill="#161C49" d="M15.825,11.679h9.333c0.405,0,0.733-0.328,0.733-0.733c0-0.405-0.328-0.734-0.733-0.734h-9.333
		c-0.405,0-0.733,0.329-0.733,0.734C15.092,11.351,15.42,11.679,15.825,11.679z"/>
</g>
</svg>
