<?xml version="1.0" encoding="utf-8"?>
<!-- Generator: Adobe Illustrator 17.0.0, SVG Export Plug-In . SVG Version: 6.00 Build 0)  -->
<!DOCTYPE svg PUBLIC "-//W3C//DTD SVG 1.1//EN" "http://www.w3.org/Graphics/SVG/1.1/DTD/svg11.dtd">
<svg version="1.1" id="Camada_1" xmlns="http://www.w3.org/2000/svg" xmlns:xlink="http://www.w3.org/1999/xlink" x="0px" y="0px"
	 width="45px" height="45px" viewBox="0 0 45 45" enable-background="new 0 0 45 45" xml:space="preserve">
<g>
	<path fill="#C9801D" d="M33.737,12.021l-1.901-0.668c-0.416-0.138-0.701-0.282-0.854-0.431c-0.154-0.149-0.23-0.391-0.23-0.728
		c0-0.416,0.099-0.676,0.297-0.78c0.198-0.104,0.589-0.156,1.173-0.156c1.257,0,2.317,0.015,3.178,0.044l0.134-1.544
		c-0.564-0.158-1.203-0.272-1.916-0.341l0.148-1.396h-1.648l-0.134,1.336c-0.861,0.01-1.532,0.092-2.012,0.245
		c-0.48,0.154-0.841,0.436-1.084,0.846s-0.364,0.992-0.364,1.745c0,0.772,0.161,1.396,0.483,1.871
		c0.322,0.475,0.859,0.852,1.611,1.129l2.02,0.728c0.376,0.119,0.634,0.25,0.772,0.394c0.138,0.143,0.208,0.389,0.208,0.735
		c0,0.386-0.102,0.641-0.305,0.765C33.111,15.939,32.712,16,32.118,16c-0.574,0-1.688-0.02-3.341-0.059l-0.148,1.663
		c0.802,0.169,1.544,0.277,2.227,0.327l-0.148,1.648h1.648l0.149-1.604c1.247-0.02,2.121-0.243,2.621-0.668
		c0.5-0.425,0.75-1.183,0.75-2.272c0-0.772-0.161-1.398-0.483-1.879C35.071,12.676,34.519,12.298,33.737,12.021z"/>
	<path fill="#C9801D" d="M45,12.8c0-4.515-2.344-8.476-5.875-10.755C38.856,0.876,37.813,0,36.563,0H8.438
		C6.984,0,5.801,1.183,5.801,2.637v1.532C0.068,14.756,0,14.442,0,14.94c0,0,0,0.001,0,0.001v1.758c0,1.523,0.881,2.94,2.285,3.746
		v23.676C2.285,44.606,2.679,45,3.164,45h38.672c0.485,0,0.879-0.394,0.879-0.879V20.445C44.105,19.64,45,18.207,45,16.699v-1.758
		c0,0,0-0.001,0-0.001c0-0.13-0.013-0.219-0.124-0.452C44.949,13.935,45,13.374,45,12.8z M7.559,2.637
		c0-0.485,0.394-0.879,0.879-0.879h17.31c-0.848,0.497-1.633,1.086-2.343,1.758c-7.55,0-15.408,0-15.847,0V2.637z M19.4,12.8
		c0,0.426,0.023,0.847,0.064,1.262h-2.957l1.465-8.789h3.65v0.323C20.221,7.649,19.4,10.128,19.4,12.8z M20.797,18.596
		c-0.472,0.454-1.106,0.74-1.813,0.74c-1.454,0-2.637-1.183-2.637-2.637V15.82h3.425C20.009,16.794,20.353,17.723,20.797,18.596z
		 M9.657,14.063l2.93-8.789h3.602l-1.465,8.789H9.657z M14.59,15.82v0.879c0,1.454-1.183,2.637-2.637,2.637
		c-1.454,0-2.637-1.183-2.637-2.637V15.82H14.59z M7.199,5.273h3.534l-2.93,8.789H2.365L7.199,5.273z M1.758,16.699V15.82h5.801
		v0.879c0,1.38-1.382,2.637-2.9,2.637c-0.383,0-0.779-0.083-1.148-0.241C2.462,18.649,1.758,17.686,1.758,16.699z M18.105,43.242
		H9.316v-7.559h8.789V43.242z M18.105,33.926H9.316v-7.559h8.789V33.926z M40.957,43.242H19.863V25.488
		c0-0.485-0.394-0.879-0.879-0.879H8.438c-0.485,0-0.879,0.394-0.879,0.879v17.754H4.043V21.051
		c0.204,0.028,0.409,0.043,0.615,0.043c1.157,0,2.326-0.458,3.208-1.257c0.195-0.177,0.371-0.366,0.528-0.564
		c0.799,1.102,2.096,1.821,3.559,1.821c1.436,0,2.713-0.692,3.516-1.761c0.802,1.068,2.08,1.761,3.516,1.761
		c1.033,0,1.981-0.363,2.732-0.962c1.387,1.979,3.324,3.536,5.582,4.477h-1.283c-0.485,0-0.879,0.394-0.879,0.879v8.438h-0.879
		c-0.485,0-0.879,0.394-0.879,0.879s0.394,0.879,0.879,0.879H38.32c0.485,0,0.879-0.394,0.879-0.879s-0.394-0.879-0.879-0.879
		h-0.879v-8.438c0-0.356-0.214-0.659-0.518-0.797c1.505-0.602,2.871-1.48,4.034-2.573V43.242z M35.684,26.367v7.559h-8.789v-7.559
		H35.684z M32.2,24.143c-6.264,0-11.342-5.078-11.342-11.342c0-6.264,5.078-11.342,11.342-11.342
		c6.264,0,11.342,5.078,11.342,11.342C43.542,19.064,38.464,24.143,32.2,24.143z"/>
</g>
</svg>
