<?xml version="1.0" encoding="utf-8"?>
<!-- Generator: Adobe Illustrator 17.0.0, SVG Export Plug-In . SVG Version: 6.00 Build 0)  -->
<!DOCTYPE svg PUBLIC "-//W3C//DTD SVG 1.1//EN" "http://www.w3.org/Graphics/SVG/1.1/DTD/svg11.dtd">
<svg version="1.1" id="Camada_1" xmlns="http://www.w3.org/2000/svg" xmlns:xlink="http://www.w3.org/1999/xlink" x="0px" y="0px"
	 width="45px" height="45px" viewBox="0 0 45 45" enable-background="new 0 0 45 45" xml:space="preserve">
<path id="ico_beneficios_1_" fill="#C9801D" d="M35.056,0H17.132c-2.081,0.006-3.821,1.583-4.032,3.653l-7.95,3.063
	c-2.099,0.809-3.145,3.166-2.337,5.266l6.683,17.348l0.025,0.064l0.659,1.712l0,0l0.844,2.191l0,0l2.542,6.595l-0.003,0.001
	l0.641,1.664l0.326,0.836c0.809,2.097,3.165,3.143,5.263,2.336l7.16-2.758l3.544-1.235h4.557c2.249-0.003,4.071-1.825,4.074-4.074
	V4.074C39.127,1.825,37.304,0.003,35.056,0z M13.067,34.065l-0.534-1.386l0.003-0.003l-0.626-1.628L4.335,11.395
	c-0.486-1.26,0.142-2.674,1.402-3.159l3.574-1.374l1.517-0.588l2.23-0.857v6.65v4.52h0.005v13.403l0.003,0.001L13.067,34.065z
	 M19.207,43.208c-1.26,0.485-2.674-0.143-3.159-1.403l-0.53-1.372l0.002-0.001l-0.015-0.04c0.015,0.007,0.032,0.011,0.047,0.018
	c0.003,0.001,0.007,0.002,0.01,0.004c0.497,0.209,1.031,0.32,1.57,0.321h8.494L19.207,43.208z M37.5,36.662
	c0,1.35-1.095,2.444-2.444,2.444h-5.178v-0.007l-0.019,0.007H17.14v-0.002c-1.35,0-2.444-1.095-2.444-2.444l0-8.711h-0.008V4.074
	c0-1.35,1.095-2.444,2.444-2.444h17.924c1.35,0,2.444,1.095,2.444,2.444V36.662z M32.612,30.959h2.444v1.629h-2.444V30.959z
	 M32.612,27.7h2.444v1.629h-2.444V27.7z M32.612,24.441h2.444v1.629h-2.444V24.441z M13.056,12.067v4.52L9.309,6.861l1.517-0.588
	L13.056,12.067z"/>
</svg>
