<svg xmlns="http://www.w3.org/2000/svg" width="125" height="124.862" viewBox="0 0 125 124.862">
    <defs>
        <style>
            .cls-1,.cls-2{fill:#001d7e;fill-rule:evenodd}.cls-2{fill:#ddcd00}
        </style>
    </defs>
    <g id="Itaú" transform="translate(-1072.774 -2933.638)">
        <path id="Caminho_118" d="M1093.63 2933.638h83.288a20.987 20.987 0 0 1 20.856 20.857v83.286a20.99 20.99 0 0 1-20.856 20.719h-83.288a20.75 20.75 0 0 1-20.856-20.719V2954.5a20.749 20.749 0 0 1 20.856-20.857z" class="cls-1" data-name="Caminho 118"/>
        <path id="Caminho_119" d="M1168.216 3004.494h6.767l8.288-8.425h-9.116l-5.939 8.425zm-2.486 2.072h-9.669v18.094c0 4.834 1.243 8.425 3.591 10.773a11.158 11.158 0 0 0 8.287 3.039c4.835 0 8.426-1.934 10.636-5.663h.138v4.972h8.564v-31.215h-9.669v18.234a6.414 6.414 0 0 1-.276 1.934 5.976 5.976 0 0 1-5.939 4.005c-3.73 0-5.663-2.624-5.663-7.735v-16.436zm-24.862 10.36c-6.354 0-11.188.966-14.5 3.038a10.062 10.062 0 0 0-5.249 9.116 8.99 8.99 0 0 0 2.763 6.492 11.088 11.088 0 0 0 7.873 2.9c4.281 0 7.458-1.381 9.668-4h.277v3.314h8.839v-18.37c0-4.143-1.1-7.32-3.177-9.668-2.486-2.624-6.215-4.006-11.187-4.006-5.111 0-9.393.967-12.707 3.039l1.8 6.078a17.521 17.521 0 0 1 9.254-2.487c4.282 0 6.354 1.382 6.354 4.282v.277zm-23.619-10.36h-5.939v-10.5h-9.392v10.5h-4.42v7.183h4.42v12.568c0 4.283.828 7.459 2.624 9.255a9.992 9.992 0 0 0 7.6 2.9 14.94 14.94 0 0 0 5.249-.829l-.138-7.32a2.588 2.588 0 0 1-1.8.414 3.618 3.618 0 0 1-3.315-1.657 8.008 8.008 0 0 1-.828-4.282v-11.049h5.939v-7.183zm12.845 21.685c0-3.729 3.73-5.387 11.05-5.249v3.315l-.138 1.8a5.42 5.42 0 0 1-2.348 2.9 5.9 5.9 0 0 1-4.006 1.381q-4.558 0-4.558-4.144zm-46.961-32.182v41.712h9.807v-41.712z" class="cls-2" data-name="Caminho 119"/>
    </g>
</svg>
