<svg xmlns="http://www.w3.org/2000/svg" width="160.518" height="101.641" viewBox="0 0 160.518 101.641">
    <defs>
        <style>
            .cls-1{fill:#fff}.cls-2{fill:#cf801d}
        </style>
    </defs>
    <g id="logo" transform="translate(-678.805 -4268.208)">
        <path id="Caminho_93" d="M811.048 4298.051a59.665 59.665 0 1 0-103.342 59.665c.334.577.679 1.144 1.029 1.707.168.336.344.671.535 1a18.845 18.845 0 1 0 32.64-18.845l-1.561-2.71a21.972 21.972 0 0 1 38.057-21.972l25.748 43.131a18.845 18.845 0 1 0 32.64-18.845l-25.749-43.131z" class="cls-1" data-name="Caminho 93"/>
        <path id="Caminho_94" d="M790.15 4298.051a59.665 59.665 0 1 0-103.342 59.665c.334.577.679 1.144 1.029 1.707.168.336.344.671.535 1a18.845 18.845 0 1 0 32.64-18.845l-1.561-2.71a21.972 21.972 0 0 1 38.057-21.972l25.748 43.131a18.845 18.845 0 1 0 32.64-18.845l-25.749-43.131z" class="cls-2" data-name="Caminho 94"/>
    </g>
</svg>
