<svg xmlns="http://www.w3.org/2000/svg" width="120" height="75.985" viewBox="0 0 120 75.985">
    <defs>
        <style>
            .cls-1{fill:#050a26}.cls-2{fill:#c9801d}
        </style>
    </defs>
    <g id="logo" transform="translate(-648 -22.008)">
        <path id="Caminho_197" d="M746.862 44.317a44.6 44.6 0 1 0-77.256 44.6c.249.432.507.856.769 1.276.126.252.258.5.4.749a14.088 14.088 0 1 0 24.4-14.088l-1.167-2.026a16.426 16.426 0 0 1 28.45-16.426l19.25 32.248a14.088 14.088 0 1 0 24.4-14.088l-19.246-32.245z" class="cls-1" data-name="Caminho 197"/>
        <path id="Caminho_198" d="M731.239 44.317a44.6 44.6 0 0 0-77.256 44.6c.25.432.507.856.769 1.276.126.252.258.5.4.749a14.088 14.088 0 1 0 24.4-14.088l-1.167-2.026a16.426 16.426 0 0 1 28.451-16.426l19.25 32.248a14.088 14.088 0 1 0 24.4-14.088l-19.247-32.245z" class="cls-2" data-name="Caminho 198"/>
    </g>
</svg>
