<svg xmlns="http://www.w3.org/2000/svg" width="190" height="41.424" viewBox="0 0 190 41.424">
    <defs>
        <style>
            .cls-1{fill:#5372b3}
        </style>
    </defs>
    <g id="MetLife" transform="translate(-1040.274 -3372.483)">
        <path id="Caminho_127" d="M1107.8 3397.039a5.124 5.124 0 0 0-5.188-3.953c-2.669 0-4.885 1.366-5.44 3.953zm-2.918 16.868h-4.316c-7.41-.759-12.711-5.346-12.711-13.21 0-8.343 5.893-13.369 14.3-13.369 8.966 0 14.154 5.368 14.154 13.906v.928h-19.29c0 3.611 1.964 5.564 5.741 5.564a4.621 4.621 0 0 0 4.382-2.294h8.814c-1.289 5.209-5.95 7.911-11.077 8.475z" class="cls-1" data-name="Caminho 127"/>
        <path id="Caminho_128" d="M1132.45 3413.581h-9.167v-17.713h-4.583v-7.319h4.582v-7.515h9.167v7.515h4.52v7.319h-4.52v17.713z" class="cls-1" data-name="Caminho 128"/>
        <path id="Caminho_129" d="M1174.455 3413.581h-9.167v-26.744h9.167v26.744z" class="cls-1" data-name="Caminho 129"/>
        <path id="Caminho_130" d="M1192.844 3413.471h-9.165v-16.846h-4.564v-7.319h4.564V3388c0-3.464.1-6 2.619-8.783a11.9 11.9 0 0 1 9.016-4 8.393 8.393 0 0 1 3.927.879v7.661a8.06 8.06 0 0 0-3.223-.83c-2.368 0-3.174 1.367-3.174 4.2v2.186h5.476v7.319h-5.476v16.846z" class="cls-1" data-name="Caminho 130"/>
        <path id="Caminho_131" d="M1220.283 3397.055a5.127 5.127 0 0 0-5.188-3.952c-2.668 0-4.885 1.367-5.438 3.952zm-2.778 16.852h-4.605c-7.332-.8-12.561-5.382-12.561-13.192 0-8.344 5.894-13.369 14.3-13.369 8.966 0 14.152 5.367 14.152 13.907v.926h-19.289c0 3.611 1.964 5.563 5.742 5.563a4.62 4.62 0 0 0 4.381-2.293h8.815c-1.278 5.16-5.867 7.861-10.938 8.458z" class="cls-1" data-name="Caminho 131"/>
        <path id="Caminho_132" d="M1169.856 3372.483a5.485 5.485 0 1 0 5.658 5.483 5.575 5.575 0 0 0-5.658-5.483z" class="cls-1" data-name="Caminho 132"/>
        <path id="Caminho_133" d="M1046.421 3378.52h9.272l7.348 18.753 7.782-18.753h9.366l5.476 35.088h-9.414l-2.642-20.2h-.1l-8.693 20.2h-3.748l-8.31-20.2h-.1l-3.026 20.2h-9.366l6.147-35.088z" class="cls-1" data-name="Caminho 133"/>
        <path id="Caminho_134" d="M1150.409 3405.706h11.468v7.848h-21.034V3377.9h9.566v27.8z" class="cls-1" data-name="Caminho 134"/>
        <path id="Caminho_135" d="M1226.757 3383.634h.468c.391 0 .86 0 .86-.454 0-.379-.391-.455-.7-.455h-.625v.909zm-.548-1.363h1.25c.783 0 1.095.379 1.095.909a.77.77 0 0 1-.86.833l.939 1.363h-.548l-.86-1.288h-.468v1.288h-.548v-3.1zm1.094 4.089a2.518 2.518 0 0 0 0-5.035 2.518 2.518 0 1 0 0 5.035zm0-5.451a2.918 2.918 0 1 1-3.049 2.952 2.964 2.964 0 0 1 3.049-2.952z" class="cls-1" data-name="Caminho 135"/>
    </g>
</svg>
