<svg xmlns="http://www.w3.org/2000/svg" width="190" height="67.696" viewBox="0 0 190 67.696">
    <defs>
        <style>
            .cls-1{fill:#468d5c}.cls-2,.cls-3{fill:#fff}.cls-3{fill-rule:evenodd}
        </style>
    </defs>
    <g id="Unimed" transform="translate(-709.142 -3579.811)">
        <g id="Agrupar_124" data-name="Agrupar 124">
            <path id="Caminho_144" d="M723.777 3646.4a13.548 13.548 0 0 1-13.532-13.534v-38.423a13.548 13.548 0 0 1 13.532-13.533h160.729a13.549 13.549 0 0 1 13.533 13.533v51.957z" class="cls-1" data-name="Caminho 144"/>
            <g id="Agrupar_123" data-name="Agrupar 123">
                <path id="Caminho_145" d="M884.506 3582.017a12.43 12.43 0 0 1 12.429 12.43v50.853H723.777a12.43 12.43 0 0 1-12.429-12.43v-38.423a12.429 12.429 0 0 1 12.429-12.43h160.729m0-2.206H723.777a14.651 14.651 0 0 0-14.635 14.636v38.423a14.653 14.653 0 0 0 14.635 14.637h175.365v-53.06a14.652 14.652 0 0 0-14.636-14.636z" class="cls-2" data-name="Caminho 145"/>
            </g>
        </g>
        <g id="Agrupar_125" data-name="Agrupar 125">
            <path id="Caminho_146" d="M862.015 3603.764h6.609l9.934 13.216h-6.609l4.946 6.609h-8.271l-4.944-6.609h3.28l-4.944-6.606h4.944l-4.944-6.61z" class="cls-3" data-name="Caminho 146"/>
            <path id="Caminho_147" d="M862.015 3603.764h-6.609l-9.934 13.216h6.609l-4.946 6.609h8.271l4.946-6.609h-3.327l4.989-6.606h-4.944l4.944-6.61z" class="cls-3" data-name="Caminho 147"/>
        </g>
        <path id="Caminho_148" d="M736.825 3605.114h-7.055v11.233c0 5.437 4.044 7.55 9.167 7.55 5.57 0 9.255-1.979 9.255-7.957v-10.826h-6.921v10.964c0 1.8-.4 3.054-2.246 3.054-1.708 0-2.2-1.3-2.2-3.054v-10.964z" class="cls-3" data-name="Caminho 148"/>
        <path id="Caminho_149" d="M749.945 3623.58h6.655v-7.952c0-.764 0-1.841 1.211-1.841 1.168 0 1.168 1.077 1.168 1.841v7.952h6.65v-9.571c0-2.7-1.3-4.537-4.852-4.537a4.553 4.553 0 0 0-4.493 2.7h-.045v-2.38h-6.291v13.793z" class="cls-3" data-name="Caminho 149"/>
        <path id="Caminho_150" d="M767.92 3623.58h6.649v-13.793h-6.649v13.793zm6.649-19.816h-6.649v4.583h6.649v-4.583z" class="cls-3" data-name="Caminho 150"/>
        <path id="Caminho_151" d="M776.771 3623.58h6.65v-7.952c0-.764 0-1.841 1.214-1.841 1.122 0 1.122 1.077 1.122 1.841v7.952h6.694v-7.952c0-.764 0-1.841 1.125-1.841 1.211 0 1.211 1.077 1.211 1.841v7.952h6.652v-8.267c0-2.7 0-5.841-4.852-5.841-1.663 0-3.955.764-4.4 2.381h-.045c-.542-1.664-2.473-2.381-4.315-2.381-2.112 0-3.91.764-4.718 2.7h-.045v-2.38h-6.29v13.793z" class="cls-3" data-name="Caminho 151"/>
        <path id="Caminho_152" d="M809.3 3615.358c-.089-1.078.225-2.695 1.8-2.695 1.482 0 1.661 1.662 1.661 2.695zm9.213 2.92v-.808c0-4.674-1.888-8-7.235-8-5.573 0-8.537 2.335-8.537 6.963 0 4.764 2.964 7.462 8.537 7.462a21.36 21.36 0 0 0 6.2-.811v-3.549a10.381 10.381 0 0 1-4.493.854c-1.979 0-3.551-.405-3.686-2.113z" class="cls-3" data-name="Caminho 152"/>
        <path id="Caminho_153" d="M836.644 3623.58v-19.816h-6.65v7.82h-.045a4.691 4.691 0 0 0-4.177-2.112c-4.134 0-5.842 3.28-5.842 7.009 0 3.955 1.618 7.416 6.066 7.416a4.229 4.229 0 0 0 4.4-2.833h.045v2.516zm-6.469-6.965c0 1.3-.226 2.83-1.618 2.83-1.484 0-1.708-1.527-1.708-2.964s.224-2.875 1.618-2.875c1.482 0 1.708 1.436 1.708 3.009z" class="cls-3" data-name="Caminho 153"/>
        <path id="Caminho_154" d="M842.163 3626.891v-26.437h-1.1v26.437z" class="cls-3" data-name="Caminho 154"/>
    </g>
</svg>
