<svg xmlns="http://www.w3.org/2000/svg" width="125" height="125" viewBox="0 0 125 125">
    <defs>
        <style>
            .cls-1{fill:#fff}.cls-1,.cls-2,.cls-3{fill-rule:evenodd}.cls-2{fill:#005380}.cls-3{fill:#003a74}
        </style>
    </defs>
    <g id="Zurich" transform="translate(-741.642 -3785.23)">
        <path id="Caminho_136" d="M741.642 3785.23h125v125h-125v-125z" class="cls-1" data-name="Caminho 136"/>
        <path id="Caminho_137" d="M804.974 3803.537a21.912 21.912 0 0 0-17.423 35.2l18.216-23.938h-3.907a30.073 30.073 0 0 0-5.433.42 5.844 5.844 0 0 0-2.234.91 8.779 8.779 0 0 0-2.231 2.654q-.1.185-.3.563l-1.066-.234 1.785-6.879H815.2l-18.128 24.241a24.258 24.258 0 0 1 2.6-.127q1.105 0 3.348.134l3.22.191c1.164.07 2.144.1 2.887.1a12.415 12.415 0 0 0 3.815-.455 8.508 8.508 0 0 0 2.346-1.135 10.872 10.872 0 0 0 3.25-3.706c.075-.142.191-.359.329-.65l.965.249a13.847 13.847 0 0 1-.961 2.733 11.243 11.243 0 0 1-3.586 4.754 8.812 8.812 0 0 1-5.307 1.745h-.309a38.482 38.482 0 0 1-6.277-.678 47.268 47.268 0 0 0-7.38-.753 21.927 21.927 0 0 0-3.569.283 11.345 11.345 0 0 0-3.62 1.09 21.911 21.911 0 1 0 16.147-36.722z" class="cls-2" data-name="Caminho 137"/>
        <path id="Caminho_138" d="M763.641 3862.547h-16.774l-2.061 4.553a12.73 12.73 0 0 1 1.563-.736 15.476 15.476 0 0 1 3.015-.852 19.464 19.464 0 0 1 3.007-.262q.882-.026 1.655-.026h2.484l-13.05 18.65h18.447l2.128-4.865a14.9 14.9 0 0 1-1.571.819 14.494 14.494 0 0 1-3.446 1.056 22.508 22.508 0 0 1-3.353.3q-.668.016-1.707.016h-3.268l12.931-18.649z" class="cls-3" data-name="Caminho 138"/>
        <path id="Caminho_139" d="M819.083 3883.874a2.9 2.9 0 0 1-.659-.752 3.485 3.485 0 0 1-.329-.65 5.73 5.73 0 0 1-.3-1.875v-12.847l.009-1.25a7.247 7.247 0 0 1 .227-2.4 3.046 3.046 0 0 1 .305-.667 2.989 2.989 0 0 1 .8-.887h-6.85a3.528 3.528 0 0 1 .794.845 2.694 2.694 0 0 1 .33.692 7.708 7.708 0 0 1 .219 2.3q.009.975.009 1.284v12.771a6.03 6.03 0 0 1-.338 2.061 3.155 3.155 0 0 1-.338.625 5.32 5.32 0 0 1-.65.752z" class="cls-3" data-name="Caminho 139"/>
        <path id="Caminho_140" d="M840.5 3862.741a10.379 10.379 0 0 0-1.3-.346 17.541 17.541 0 0 0-3.748-.38 15.35 15.35 0 0 0-6.083 1.131 12.305 12.305 0 0 0-2.931 1.74 10.9 10.9 0 0 0-4.057 8.717 10.384 10.384 0 0 0 3.9 8.379 12.507 12.507 0 0 0 7.97 2.468 19.44 19.44 0 0 0 5.984-.956l.346-.11v-3.877c-.51.342-.685.453-1 .634a11.773 11.773 0 0 1-1.309.65 9.247 9.247 0 0 1-3.722.794 7.247 7.247 0 0 1-5.493-2.3 8.561 8.561 0 0 1-2.129-5.908 8.9 8.9 0 0 1 1.927-5.756 7.043 7.043 0 0 1 1.934-1.579 8.359 8.359 0 0 1 4.124-1.023 10 10 0 0 1 3.832.769 6.986 6.986 0 0 1 1.757.963v-4.012z" class="cls-3" data-name="Caminho 140"/>
        <path id="Caminho_141" d="M859.2 3874.194v5.2a15.341 15.341 0 0 1-.093 2.171 3.907 3.907 0 0 1-.228.921 3.116 3.116 0 0 1-.768 1.114 6.52 6.52 0 0 1-.3.271h6.816a4.174 4.174 0 0 1-.574-.659 3.53 3.53 0 0 1-.4-.7 4.636 4.636 0 0 1-.279-1.926q-.016-.945-.017-1.106l.017-11.732v-1.267a8.678 8.678 0 0 1 .237-2.255 3.022 3.022 0 0 1 .337-.786 2.84 2.84 0 0 1 .845-.895h-6.96a2.986 2.986 0 0 1 .777.87 3.47 3.47 0 0 1 .355.743 7.2 7.2 0 0 1 .228 2.238v5.187h-9.561v-3.894c0-1.178.018-1.95.059-2.526a3.9 3.9 0 0 1 .169-.929 4.457 4.457 0 0 1 .887-1.461c.05-.053.129-.129.236-.228h-6.823a5.215 5.215 0 0 1 .7.819 3.036 3.036 0 0 1 .363.727 6.057 6.057 0 0 1 .237 2.255l.017 1.351v11.673a18.226 18.226 0 0 1-.084 2.247 3.626 3.626 0 0 1-.212.844 3.055 3.055 0 0 1-.819 1.2c-.051.048-.13.118-.236.211h6.748a3.771 3.771 0 0 1-.566-.7 4.088 4.088 0 0 1-.338-.667 4.684 4.684 0 0 1-.312-1.867 52.874 52.874 0 0 1-.017-1.275v-5.17z" class="cls-3" data-name="Caminho 141"/>
        <path id="Caminho_142" d="M766.547 3862.547a2.709 2.709 0 0 1 .777.861 2.837 2.837 0 0 1 .3.744 4.615 4.615 0 0 1 .135.979q.011.352.017 1.327l.008 1.233v6.1c0 2.153.017 2.9.085 3.758a6.936 6.936 0 0 0 1.495 3.92 7.859 7.859 0 0 0 3.6 2.5 11.643 11.643 0 0 0 3.889.6 12.99 12.99 0 0 0 4.321-.671 8.227 8.227 0 0 0 3.176-2.128 7.065 7.065 0 0 0 1.723-4.131 33.347 33.347 0 0 0 .143-3.817v-6.132l-.008-1.208v-.171a8.26 8.26 0 0 1 .194-2.112 2.753 2.753 0 0 1 .956-1.467c.135-.1.176-.135.244-.186h-6.317a3.068 3.068 0 0 1 .464.929 4.5 4.5 0 0 1 .178.8 28.722 28.722 0 0 1 .135 3.539v6.622a23.213 23.213 0 0 1-.178 3.615 4.261 4.261 0 0 1-.549 1.554 4.175 4.175 0 0 1-2.626 1.833 6.355 6.355 0 0 1-1.514.17 5.858 5.858 0 0 1-2.9-.693 3.678 3.678 0 0 1-1.267-1.107c-.584-.853-.756-1.714-.777-3.9l-.025-2.686v-5.406a28.708 28.708 0 0 1 .135-3.539 4.039 4.039 0 0 1 .524-1.537l.118-.194z" class="cls-3" data-name="Caminho 142"/>
        <path id="Caminho_143" d="M796.6 3879.49q0 .585.008 1.073a5.289 5.289 0 0 0 .279 1.968 3.019 3.019 0 0 0 .363.65 5.538 5.538 0 0 0 .591.693h-6.782a4.633 4.633 0 0 0 .71-.744 2.689 2.689 0 0 0 .371-.675 5.848 5.848 0 0 0 .245-2.061v-14a7.964 7.964 0 0 0-.211-2.272 3.122 3.122 0 0 0-.372-.777 3.547 3.547 0 0 0-.717-.8h5.506q1.02 0 1.977.025a17.231 17.231 0 0 1 3.649.372 7.028 7.028 0 0 1 3.463 1.917 4.966 4.966 0 0 1 1.445 3.5 5.338 5.338 0 0 1-.263 1.642 5.121 5.121 0 0 1-1.68 2.432 9.2 9.2 0 0 1-2.628 1.521 9.369 9.369 0 0 1-.945.329l3.31 3.894q.6.71 1.555 1.74c1 1.082 1.664 1.764 2.415 2.475.325.306.631.585.921.836s.417.356.777.642h-2.677q-.594 0-1.107-.017a4.379 4.379 0 0 1-2.12-.5 9.308 9.308 0 0 1-2.2-1.749q-.355-.365-1.039-1.149-.606-.691-.887-1.03l-3.953-4.738v4.8zm.346-6.585a7.884 7.884 0 0 0 1.115-.1 6.877 6.877 0 0 0 2.686-.87 4.147 4.147 0 0 0 1-.8 3.525 3.525 0 0 0 .829-2.4 3.284 3.284 0 0 0-1.1-2.622 3.885 3.885 0 0 0-1.444-.768 10.747 10.747 0 0 0-2.874-.358c-.174 0-.287 0-.555.011v7.9c.166.009.238.011.346.011z" class="cls-3" data-name="Caminho 143"/>
    </g>
</svg>
